<?xml version="1.0" standalone="no"?>
<!DOCTYPE svg PUBLIC "-//W3C//DTD SVG 1.1//EN" "http://www.w3.org/Graphics/SVG/1.1/DTD/svg11.dtd" >
<svg xmlns="http://www.w3.org/2000/svg" xmlns:xlink="http://www.w3.org/1999/xlink" version="1.1">
<metadata>
Created by FontForge 20170910 at Wed Jan 18 15:38:37 2006
 By Jimmy Wärting
Copyright (c) Village Type &#38; Design LLC. All rights reserved.
</metadata>
<defs>
<font id="ApexNew-Light" horiz-adv-x="570" >
  <font-face 
    font-family="Apex New Light"
    font-weight="450"
    font-stretch="normal"
    units-per-em="1000"
    panose-1="2 1 6 0 4 5 1 1 1 3"
    ascent="750"
    descent="-250"
    x-height="500"
    cap-height="750"
    bbox="-80 -270 1445 979"
    underline-thickness="20"
    underline-position="-102"
    unicode-range="U+0020-FF3F"
  />
<missing-glyph horiz-adv-x="649" 
d="M403 293h-156v242h156v-242zM325 47c-107 0 -201 -25 -275 -57v166c74 31 167 52 275 52s201 -21 275 -52v-166c-74 32 -168 57 -275 57zM515 760c54 0 95 -41 95 -95c0 -53 -41 -95 -95 -95c-53 0 -95 42 -95 95c0 54 42 95 95 95zM135 760c53 0 95 -41 95 -95
c0 -53 -42 -95 -95 -95c-54 0 -95 42 -95 95c0 54 41 95 95 95z" />
    <glyph glyph-name="f_b" unicode="fb" horiz-adv-x="909" 
d="M150 500h171v-27h-171v-473h-30v473h-95v17l95 11v71c0 130 91 183 266 183c32 0 60 -2 84 -6v-286c44 28 116 42 172 42c166 0 207 -111 207 -255s-41 -255 -207 -255c-57 0 -131 15 -175 44l-14 -39h-13v726c-17 1 -35 2 -55 2c-135 0 -235 -38 -235 -149v-79zM642 22
c149 0 176 115 176 228s-27 228 -176 228c-70 0 -127 -14 -172 -42v-372c45 -28 102 -42 172 -42z" />
    <glyph glyph-name="f_f_b" unicode="ffb" horiz-adv-x="1249" 
d="M120 0v473h-95v17l95 11v113c0 90 54 141 174 141c15 0 52 -2 62 -4v-27c-12 2 -41 4 -62 4c-84 0 -144 -28 -144 -114v-114h310v72c0 130 91 183 266 183c32 0 60 -2 84 -6v-286c44 28 116 42 172 42c166 0 207 -111 207 -255s-41 -255 -207 -255c-57 0 -131 15 -175 44
l-14 -39h-13v725c-17 2 -35 3 -55 3c-135 0 -235 -38 -235 -149v-79h171v-27h-171v-473h-30v473h-310v-473h-30zM982 22c149 0 176 115 176 228s-27 228 -176 228c-70 0 -127 -14 -172 -42v-372c45 -28 102 -42 172 -42z" />
    <glyph glyph-name="ff" unicode="ff" horiz-adv-x="710" 
d="M460 0v473h-310v-473h-30v473h-95v17l95 11v113c0 90 54 141 174 141c15 0 52 -2 62 -4v-27c-12 2 -41 4 -62 4c-84 0 -144 -28 -144 -114v-114h310v114c0 90 54 141 174 141c15 0 52 -2 62 -4v-27c-12 2 -41 4 -62 4c-84 0 -144 -28 -144 -114v-114h171v-27h-171v-473
h-30z" />
    <glyph glyph-name="f_h" unicode="fh" horiz-adv-x="874" 
d="M440 0v726c-17 1 -35 2 -55 2c-135 0 -235 -38 -235 -149v-79h171v-27h-171v-473h-30v473h-95v17l95 11v71c0 130 91 183 266 183c32 0 60 -2 84 -6v-287c44 27 119 43 175 43c117 0 164 -40 164 -140v-365h-32v368c0 88 -49 110 -132 110c-70 0 -130 -13 -175 -41v-437
h-30z" />
    <glyph glyph-name="f_f_h" unicode="ffh" horiz-adv-x="1214" 
d="M120 0v473h-95v17l95 11v113c0 90 54 141 174 141c15 0 52 -2 62 -4v-27c-12 2 -41 4 -62 4c-84 0 -144 -28 -144 -114v-114h310v72c0 130 91 183 266 183c32 0 60 -2 84 -6v-287c44 27 119 43 175 43c117 0 164 -40 164 -140v-365h-32v368c0 88 -49 110 -132 110
c-70 0 -130 -13 -175 -41v-437h-30v725c-17 2 -35 3 -55 3c-135 0 -235 -38 -235 -149v-79h171v-27h-171v-473h-30v473h-310v-473h-30z" />
    <glyph glyph-name="fi" unicode="fi" horiz-adv-x="620" 
d="M550 19v-24c-53 0 -76 24 -76 73v405h-324v-473h-30v473h-95v17l95 11v71c0 130 91 183 266 183c46 0 86 -4 118 -12v-28c-36 9 -71 13 -119 13c-135 0 -235 -38 -235 -149v-79h354v-430c0 -38 10 -51 46 -51z" />
    <glyph glyph-name="ffi" unicode="ffi" horiz-adv-x="960" 
d="M725 728c-135 0 -235 -38 -235 -149v-79h354v-430c0 -38 10 -51 46 -51v-24c-53 0 -76 24 -76 73v405h-324v-473h-30v473h-310v-473h-30v473h-95v17l95 11v113c0 90 54 141 174 141c15 0 52 -2 62 -4v-27c-12 2 -41 4 -62 4c-84 0 -144 -28 -144 -114v-114h310v72
c0 130 91 183 266 183c46 0 86 -4 118 -12v-28c-36 9 -71 13 -119 13z" />
    <glyph glyph-name="f_j" unicode="fj" horiz-adv-x="620" 
d="M336 -255v27c75 0 138 23 138 101v600h-324v-473h-30v473h-95v17l95 11v71c0 130 91 183 266 183c46 0 86 -4 118 -12v-28c-36 9 -71 13 -119 13c-135 0 -235 -38 -235 -149v-79h354v-621c0 -90 -56 -134 -168 -134z" />
    <glyph glyph-name="f_f_j" unicode="ffj" horiz-adv-x="990" 
d="M120 0v473h-95v17l95 11v113c0 90 54 141 174 141c15 0 52 -2 62 -4v-27c-12 2 -41 4 -62 4c-84 0 -144 -28 -144 -114v-114h310v72c0 130 91 183 266 183c46 0 86 -4 118 -12v-28c-36 9 -71 13 -119 13c-135 0 -235 -38 -235 -149v-79h354v-621
c0 -90 -56 -134 -168 -134v27c75 0 138 23 138 101v600h-324v-473h-30v473h-310v-473h-30z" />
    <glyph glyph-name="f_k" unicode="fk" horiz-adv-x="838" 
d="M785 500l-209 -201l247 -299h-40l-226 280l-87 -83v-197h-30v725c-17 2 -35 3 -55 3c-135 0 -235 -38 -235 -149v-79h171v-27h-171v-473h-30v473h-95v17l95 11v71c0 130 91 183 266 183c32 0 60 -2 84 -6v-517l272 268h43z" />
    <glyph glyph-name="f_f_k" unicode="ffk" horiz-adv-x="1178" 
d="M120 0v473h-95v17l95 11v113c0 90 54 141 174 141c15 0 52 -2 62 -4v-27c-12 2 -41 4 -62 4c-84 0 -144 -28 -144 -114v-114h310v72c0 130 91 183 266 183c32 0 60 -2 84 -6v-517l272 268h43l-209 -201l247 -299h-40l-226 280l-87 -83v-197h-30v725c-17 2 -35 3 -55 3
c-135 0 -235 -38 -235 -149v-79h171v-27h-171v-473h-30v473h-310v-473h-30z" />
    <glyph glyph-name="fl" unicode="fl" horiz-adv-x="620" 
d="M504 743v-673c0 -38 10 -51 46 -51v-24c-53 0 -76 24 -76 73v653c-27 5 -55 7 -89 7c-135 0 -235 -38 -235 -149v-79h171v-27h-171v-473h-30v473h-95v17l95 11v71c0 130 91 183 266 183c46 0 86 -4 118 -12z" />
    <glyph glyph-name="ffl" unicode="ffl" horiz-adv-x="960" 
d="M120 0v473h-95v17l95 11v113c0 90 54 141 174 141c15 0 52 -2 62 -4v-27c-12 2 -41 4 -62 4c-84 0 -144 -28 -144 -114v-114h310v72c0 130 91 183 266 183c46 0 86 -4 118 -12v-673c0 -38 10 -51 46 -51v-24c-53 0 -76 24 -76 73v653c-27 5 -55 7 -89 7
c-135 0 -235 -38 -235 -149v-79h171v-27h-171v-473h-30v473h-310v-473h-30z" />
    <glyph glyph-name="f_t" unicode="ft" horiz-adv-x="710" 
d="M640 19v-24h-12c-112 0 -168 44 -168 134v344h-310v-473h-30v473h-95v17l95 11v113c0 90 54 141 174 141c15 0 52 -2 62 -4v-27c-12 2 -41 4 -62 4c-84 0 -144 -28 -144 -114v-114h310v150l30 4v-154h171v-27h-171v-352c0 -78 63 -102 138 -102h12z" />
    <glyph glyph-name="f_f_t" unicode="fft" horiz-adv-x="1050" 
d="M460 0v473h-310v-473h-30v473h-95v17l95 11v113c0 90 54 141 174 141c15 0 52 -2 62 -4v-27c-12 2 -41 4 -62 4c-84 0 -144 -28 -144 -114v-114h310v114c0 90 54 141 174 141c15 0 52 -2 62 -4v-27c-12 2 -41 4 -62 4c-84 0 -144 -28 -144 -114v-114h310v150l30 4v-154
h171v-27h-171v-352c0 -78 63 -102 138 -102h12v-24h-12c-112 0 -168 44 -168 134v344h-310v-473h-30z" />
    <glyph glyph-name="f_dotlessi" unicode="f&#x131;" horiz-adv-x="620" 
d="M550 19v-24c-53 0 -76 24 -76 73v405h-324v-473h-30v473h-95v17l95 11v113c0 90 54 141 174 141c15 0 52 -2 62 -4v-27c-12 2 -41 4 -62 4c-84 0 -144 -28 -144 -114v-114h354v-430c0 -38 10 -51 46 -51z" />
    <glyph glyph-name="f_f_dotlessi" unicode="ff&#x131;" horiz-adv-x="960" 
d="M120 0v473h-95v17l95 11v113c0 90 54 141 174 141c15 0 52 -2 62 -4v-27c-12 2 -41 4 -62 4c-84 0 -144 -28 -144 -114v-114h310v114c0 90 54 141 174 141c15 0 52 -2 62 -4v-27c-12 2 -41 4 -62 4c-84 0 -144 -28 -144 -114v-114h354v-430c0 -38 10 -51 46 -51v-24
c-53 0 -76 24 -76 73v405h-324v-473h-30v473h-310v-473h-30z" />
    <glyph glyph-name="f_t_t" unicode="ftt" horiz-adv-x="1050" 
d="M640 19v-24h-12c-112 0 -168 44 -168 134v344h-310v-473h-30v473h-95v17l95 11v113c0 90 54 141 174 141c15 0 52 -2 62 -4v-27c-12 2 -41 4 -62 4c-84 0 -144 -28 -144 -114v-114h310v150l30 4v-154h310v150l30 4v-154h171v-27h-171v-352c0 -78 63 -102 138 -102h12v-24
h-12c-112 0 -168 44 -168 134v344h-310v-352c0 -78 63 -102 138 -102h12z" />
    <glyph glyph-name="t_t" unicode="tt" horiz-adv-x="710" 
d="M640 19v-24h-12c-112 0 -168 44 -168 134v344h-310v-352c0 -78 63 -102 138 -102h12v-24h-12c-112 0 -168 44 -168 134v344h-95v17l95 11v149l30 4v-154h310v150l30 4v-154h171v-27h-171v-352c0 -78 63 -102 138 -102h12z" />
    <glyph glyph-name="interrobang" unicode="&#x21;&#x3f;" horiz-adv-x="470" 
d="M188 210h-16l-14 518c-53 -2 -99 -14 -128 -22v27c32 12 102 22 145 22c211 0 245 -93 245 -193c0 -148 -73 -161 -185 -206c-18 -8 -33 -15 -44 -23zM390 561c0 87 -32 159 -189 166l-9 -361c12 7 27 14 43 20c82 31 155 41 155 175zM150 25c0 16 13 30 30 30
c16 0 30 -14 30 -30c0 -17 -14 -30 -30 -30c-17 0 -30 13 -30 30z" />
    <glyph glyph-name="interrobangdown" unicode="&#xa1;&#xbf;" horiz-adv-x="470" 
d="M262 290h16l13 -518c54 2 100 14 129 22v-27c-32 -12 -102 -22 -145 -22c-211 0 -245 93 -245 193c0 148 73 161 185 206c18 7 32 14 44 22zM60 -61c0 -87 31 -159 188 -166l10 361c-12 -7 -27 -14 -43 -20c-82 -31 -155 -41 -155 -175zM300 475c0 -16 -13 -30 -30 -30
c-16 0 -30 14 -30 30c0 17 14 30 30 30c17 0 30 -13 30 -30z" />
    <glyph glyph-name=".notdef" horiz-adv-x="649" 
d="M403 293h-156v242h156v-242zM325 47c-107 0 -201 -25 -275 -57v166c74 31 167 52 275 52s201 -21 275 -52v-166c-74 32 -168 57 -275 57zM515 760c54 0 95 -41 95 -95c0 -53 -41 -95 -95 -95c-53 0 -95 42 -95 95c0 54 42 95 95 95zM135 760c53 0 95 -41 95 -95
c0 -53 -42 -95 -95 -95c-54 0 -95 42 -95 95c0 54 41 95 95 95z" />
    <glyph glyph-name="space" unicode=" " horiz-adv-x="170" 
 />
    <glyph glyph-name="A" unicode="A" horiz-adv-x="602" 
d="M577 0h-37l-75 217h-329l-74 -217h-37l265 755h22zM301 699l-156 -454h311z" />
    <glyph glyph-name="B" unicode="B" horiz-adv-x="589" 
d="M70 0v750h228c169 0 225 -83 225 -188c0 -90 -53 -163 -145 -171c117 0 171 -83 171 -189c0 -114 -62 -202 -243 -202h-236zM102 375v-346h211c167 0 204 84 204 173c0 123 -54 173 -202 173h-213zM491 562c0 82 -27 159 -184 159h-205v-318h213c138 0 176 79 176 159z
" />
    <glyph glyph-name="C" unicode="C" horiz-adv-x="584" 
d="M55 375c0 242 69 380 290 380c87 0 144 -13 184 -29v-31c-62 23 -111 31 -184 31c-187 0 -258 -117 -258 -351s71 -351 258 -351c73 0 122 8 184 31v-31c-40 -16 -97 -29 -184 -29c-221 0 -290 138 -290 380z" />
    <glyph glyph-name="D" unicode="D" horiz-adv-x="630" 
d="M287 0h-217v750h217c237 0 288 -140 288 -375s-51 -375 -288 -375zM102 721v-692h180c208 0 260 114 260 346s-52 346 -260 346h-180z" />
    <glyph glyph-name="E" unicode="E" horiz-adv-x="541" 
d="M449 403v-28h-347v-346h384v-29h-416v750h416v-29h-384v-318h347z" />
    <glyph glyph-name="F" unicode="F" horiz-adv-x="516" 
d="M439 403v-28h-337v-375h-32v750h406v-29h-374v-318h337z" />
    <glyph glyph-name="G" unicode="G" horiz-adv-x="636" 
d="M345 24c63 0 139 9 189 33v290h-163v28h195v-341c-50 -21 -122 -39 -221 -39c-221 0 -290 138 -290 380s69 380 290 380c98 0 159 -17 200 -36v-31c-61 25 -119 38 -200 38c-187 0 -258 -117 -258 -351s71 -351 258 -351z" />
    <glyph glyph-name="H" unicode="H" horiz-adv-x="634" 
d="M564 0h-32v375h-430v-375h-32v750h32v-347h430v347h32v-750z" />
    <glyph glyph-name="I" unicode="I" horiz-adv-x="216" 
d="M124 0h-32v750h32v-750z" />
    <glyph glyph-name="J" unicode="J" horiz-adv-x="351" 
d="M30 -2v27c6 -1 30 -3 53 -3c81 0 136 24 136 108v620h32v-618c0 -87 -51 -137 -168 -137c-15 0 -37 1 -53 3z" />
    <glyph glyph-name="K" unicode="K" horiz-adv-x="548" 
d="M190 396l-91 -105v-291h-29v750h29v-419l362 419h37l-290 -333l325 -417h-39z" />
    <glyph glyph-name="L" unicode="L" horiz-adv-x="489" 
d="M101 750v-721h363v-29h-394v750h31z" />
    <glyph glyph-name="M" unicode="M" horiz-adv-x="750" 
d="M360 103l-258 547l1 -650h-33v750h21l284 -611l284 611h21v-750h-33l1 650l-258 -547h-30z" />
    <glyph glyph-name="N" unicode="N" horiz-adv-x="644" 
d="M574 0h-20l-453 680l2 -680h-33v750h20l453 -680l-2 680h33v-750z" />
    <glyph glyph-name="O" unicode="O" horiz-adv-x="658" 
d="M603 375c0 -228 -34 -380 -274 -380c-239 0 -274 152 -274 380s35 380 274 380c240 0 274 -152 274 -380zM571 375c0 230 -36 351 -242 351s-242 -121 -242 -351s36 -351 242 -351s242 121 242 351z" />
    <glyph glyph-name="P" unicode="P" horiz-adv-x="563" 
d="M304 750c182 0 229 -104 229 -217s-47 -216 -229 -216h-202v-317h-32v750h234zM102 721v-376h207c166 0 192 103 192 188c0 86 -26 188 -192 188h-207z" />
    <glyph glyph-name="Q" unicode="Q" horiz-adv-x="658" 
d="M603 375c0 -218 -31 -366 -242 -379v-1l343 -79v-35l-469 124c-159 42 -180 179 -180 370c0 228 35 380 274 380c240 0 274 -152 274 -380zM571 375c0 230 -36 351 -242 351s-242 -121 -242 -351s36 -351 242 -351s242 121 242 351z" />
    <glyph glyph-name="R" unicode="R" horiz-adv-x="583" 
d="M102 346v-346h-32v750h236c187 0 228 -74 228 -202c0 -110 -31 -180 -159 -198l188 -350h-39l-181 347c-12 -1 -24 -1 -37 -1h-204zM102 375h219c158 0 181 77 181 173s-23 173 -181 173h-219v-346z" />
    <glyph glyph-name="S" unicode="S" horiz-adv-x="569" 
d="M303 755c87 0 144 -13 184 -29v-31c-62 23 -111 31 -184 31c-171 0 -213 -76 -213 -166c0 -122 51 -140 206 -157c149 -16 224 -37 224 -196c0 -99 -50 -212 -271 -212c-64 0 -152 15 -200 34v30c46 -17 107 -35 201 -35c182 0 238 79 238 183c0 127 -34 150 -200 169
c-161 18 -229 45 -229 185c0 94 46 194 244 194z" />
    <glyph glyph-name="T" unicode="T" horiz-adv-x="528" 
d="M498 722h-218v-722h-32v722h-218v28h468v-28z" />
    <glyph glyph-name="U" unicode="U" horiz-adv-x="644" 
d="M322 24c146 0 226 47 226 220v506h31v-507c0 -207 -118 -248 -257 -248s-257 41 -257 248v507h31v-506c0 -173 80 -220 226 -220z" />
    <glyph glyph-name="V" unicode="V" horiz-adv-x="602" 
d="M542 750h35l-265 -755h-22l-265 755h35l241 -700z" />
    <glyph glyph-name="W" unicode="W" horiz-adv-x="808" 
d="M585 -5l-181 692l-181 -692h-26l-172 755h33l152 -695l180 695h28l180 -695l152 695h33l-172 -755h-26z" />
    <glyph glyph-name="X" unicode="X" horiz-adv-x="577" 
d="M288 404l221 346h40l-243 -370l251 -380h-42l-227 356l-226 -356h-42l250 380l-242 370h40z" />
    <glyph glyph-name="Y" unicode="Y" horiz-adv-x="618" 
d="M593 750l-268 -443v-307h-32v307l-268 443h39l245 -414l245 414h39z" />
    <glyph glyph-name="Z" unicode="Z" horiz-adv-x="586" 
d="M551 0h-516v22l463 700h-442v28h480v-22l-463 -700h478v-28z" />
    <glyph glyph-name="Aacute" unicode="&#xc1;" horiz-adv-x="602" 
d="M577 0h-37l-75 217h-329l-74 -217h-37l265 755h22zM301 699l-156 -454h311zM314 800h-26l60 100h51z" />
    <glyph glyph-name="Agrave" unicode="&#xc0;" horiz-adv-x="602" 
d="M577 0h-37l-75 217h-329l-74 -217h-37l265 755h22zM301 699l-156 -454h311zM314 800h-26l-85 100h51z" />
    <glyph glyph-name="Acircumflex" unicode="&#xc2;" horiz-adv-x="602" 
d="M577 0h-37l-75 217h-329l-74 -217h-37l265 755h22zM301 699l-156 -454h311zM185 800h-29l128 100h34l128 -100h-29l-116 76z" />
    <glyph glyph-name="Adieresis" unicode="&#xc4;" horiz-adv-x="602" 
d="M577 0h-37l-75 217h-329l-74 -217h-37l265 755h22zM301 699l-156 -454h311zM176 850c0 16 13 30 30 30c16 0 30 -14 30 -30c0 -17 -14 -30 -30 -30c-17 0 -30 13 -30 30zM366 850c0 16 13 30 30 30c16 0 30 -14 30 -30c0 -17 -14 -30 -30 -30c-17 0 -30 13 -30 30z" />
    <glyph glyph-name="Atilde" unicode="&#xc3;" horiz-adv-x="602" 
d="M577 0h-37l-75 217h-329l-74 -217h-37l265 755h22zM301 699l-156 -454h311zM431 891h28c-4 -58 -36 -88 -87 -88c-72 0 -83 69 -141 69c-35 0 -58 -18 -60 -63h-28c4 58 36 88 87 88c72 0 83 -69 141 -69c35 0 58 18 60 63z" />
    <glyph glyph-name="Aring" unicode="&#xc5;" horiz-adv-x="602" 
d="M577 0h-37l-75 217h-329l-74 -217h-37l265 755h22zM301 699l-156 -454h311zM301 921c50 0 94 -16 94 -71s-44 -71 -94 -71s-94 16 -94 71s44 71 94 71zM301 802c49 0 68 19 68 48s-19 48 -68 48s-70 -19 -70 -48s21 -48 70 -48z" />
    <glyph glyph-name="Acaron" unicode="&#x1cd;" horiz-adv-x="602" 
d="M577 0h-37l-75 217h-329l-74 -217h-37l265 755h22zM301 699l-156 -454h311zM417 900h29l-128 -100h-34l-128 100h29l116 -76z" />
    <glyph glyph-name="Amacron" unicode="&#x100;" horiz-adv-x="602" 
d="M577 0h-37l-75 217h-329l-74 -217h-37l265 755h22zM301 699l-156 -454h311zM438 837h-274v27h274v-27z" />
    <glyph glyph-name="Abreve" unicode="&#x102;" horiz-adv-x="602" 
d="M577 0h-37l-75 217h-329l-74 -217h-37l265 755h22zM301 699l-156 -454h311zM301 790c-95 0 -142 36 -145 110h21c2 -50 36 -83 124 -83s122 33 124 83h21c-3 -74 -50 -110 -145 -110z" />
    <glyph glyph-name="Ainvertedbreve" unicode="&#x202;" horiz-adv-x="602" 
d="M577 0h-37l-75 217h-329l-74 -217h-37l265 755h22zM301 699l-156 -454h311zM301 910c95 0 142 -36 145 -110h-21c-2 50 -36 83 -124 83s-122 -33 -124 -83h-21c3 74 50 110 145 110z" />
    <glyph glyph-name="Adoublegrave" unicode="&#xe000;" horiz-adv-x="602" 
d="M577 0h-37l-75 217h-329l-74 -217h-37l265 755h22zM301 699l-156 -454h311zM364 800h-26l-85 100h51zM264 800h-26l-85 100h51z" />
    <glyph glyph-name="Adotabove" unicode="&#xe001;" horiz-adv-x="602" 
d="M577 0h-37l-75 217h-329l-74 -217h-37l265 755h22zM301 699l-156 -454h311zM271 850c0 16 13 30 30 30c16 0 30 -14 30 -30c0 -17 -14 -30 -30 -30c-17 0 -30 13 -30 30z" />
    <glyph glyph-name="Aringacute" unicode="&#x1fa;" horiz-adv-x="602" 
d="M577 0h-37l-75 217h-329l-74 -217h-37l265 755h22zM301 699l-156 -454h311zM301 921c50 0 93 -16 93 -71s-43 -71 -93 -71s-93 16 -93 71c0 20 6 35 18 50l61 75h31l-51 -57c10 2 24 3 34 3zM301 802c49 0 68 19 68 48s-19 48 -68 48s-68 -19 -68 -48s19 -48 68 -48z" />
    <glyph glyph-name="Adieresismacron" unicode="&#x1de;" horiz-adv-x="602" 
d="M577 0h-37l-75 217h-329l-74 -217h-37l265 755h22zM301 699l-156 -454h311zM176 850c0 16 13 30 30 30c16 0 30 -14 30 -30c0 -17 -14 -30 -30 -30c-17 0 -30 13 -30 30zM366 850c0 16 13 30 30 30c16 0 30 -14 30 -30c0 -17 -14 -30 -30 -30c-17 0 -30 13 -30 30z
M438 937h-274v27h274v-27z" />
    <glyph glyph-name="Aogonek" unicode="&#x104;" horiz-adv-x="602" 
d="M577 0c-34 -14 -124 -67 -124 -149c0 -53 21 -77 70 -77c23 0 43 6 59 11v-25c-15 -5 -36 -10 -66 -10c-49 0 -89 30 -89 96c0 78 57 128 111 158l-73 213h-329l-74 -217h-37l265 755h22zM301 699l-156 -454h311z" />
    <glyph glyph-name="Anocross" unicode="&#xe002;" horiz-adv-x="602" 
d="M577 0h-35l-241 700l-241 -700h-35l265 755h22z" />
    <glyph glyph-name="AE" unicode="&#xc6;" horiz-adv-x="935" 
d="M843 403v-28h-344l61 -346h320v-29h-349l-37 217h-324l-107 -217h-37l377 750h477v-29h-441l55 -318h349zM411 702l-227 -457h305z" />
    <glyph glyph-name="AEacute" unicode="&#x1fc;" horiz-adv-x="935" 
d="M843 403v-28h-344l61 -346h320v-29h-349l-37 217h-324l-107 -217h-37l377 750h477v-29h-441l55 -318h349zM411 702l-227 -457h305zM440 800h-26l60 100h51z" />
    <glyph glyph-name="AEmacron" unicode="&#x1e2;" horiz-adv-x="935" 
d="M843 403v-28h-344l61 -346h320v-29h-349l-37 217h-324l-107 -217h-37l377 750h477v-29h-441l55 -318h349zM411 702l-227 -457h305zM564 837h-274v27h274v-27z" />
    <glyph glyph-name="Cacute" unicode="&#x106;" horiz-adv-x="584" 
d="M55 375c0 242 69 380 290 380c87 0 144 -13 184 -29v-31c-62 23 -111 31 -184 31c-187 0 -258 -117 -258 -351s71 -351 258 -351c73 0 122 8 184 31v-31c-40 -16 -97 -29 -184 -29c-221 0 -290 138 -290 380zM358 800h-26l60 100h51z" />
    <glyph glyph-name="Ccircumflex" unicode="&#x108;" horiz-adv-x="584" 
d="M55 375c0 242 69 380 290 380c87 0 144 -13 184 -29v-31c-62 23 -111 31 -184 31c-187 0 -258 -117 -258 -351s71 -351 258 -351c73 0 122 8 184 31v-31c-40 -16 -97 -29 -184 -29c-221 0 -290 138 -290 380zM229 800h-29l128 100h34l128 -100h-29l-116 76z" />
    <glyph glyph-name="Ccaron" unicode="&#x10c;" horiz-adv-x="584" 
d="M55 375c0 242 69 380 290 380c87 0 144 -13 184 -29v-31c-62 23 -111 31 -184 31c-187 0 -258 -117 -258 -351s71 -351 258 -351c73 0 122 8 184 31v-31c-40 -16 -97 -29 -184 -29c-221 0 -290 138 -290 380zM461 900h29l-128 -100h-34l-128 100h29l116 -76z" />
    <glyph glyph-name="Cdotaccent" unicode="&#x10a;" horiz-adv-x="584" 
d="M55 375c0 242 69 380 290 380c87 0 144 -13 184 -29v-31c-62 23 -111 31 -184 31c-187 0 -258 -117 -258 -351s71 -351 258 -351c73 0 122 8 184 31v-31c-40 -16 -97 -29 -184 -29c-221 0 -290 138 -290 380zM315 850c0 16 13 30 30 30c16 0 30 -14 30 -30
c0 -17 -14 -30 -30 -30c-17 0 -30 13 -30 30z" />
    <glyph glyph-name="Ccedilla" unicode="&#xc7;" horiz-adv-x="584" 
d="M55 375c0 242 69 380 290 380c87 0 144 -13 184 -29v-31c-62 23 -111 31 -184 31c-187 0 -258 -117 -258 -351s71 -351 258 -351c73 0 122 8 184 31v-31c-39 -16 -93 -28 -175 -29l4 -67c45 -9 97 -42 97 -94c0 -51 -40 -84 -104 -84c-44 0 -69 10 -82 16v27
c17 -6 44 -16 75 -16c58 0 81 23 81 55c0 46 -37 67 -96 78l6 86c-213 4 -280 140 -280 379z" />
    <glyph glyph-name="Dcaron" unicode="&#x10e;" horiz-adv-x="630" 
d="M287 0h-217v750h217c237 0 288 -140 288 -375s-51 -375 -288 -375zM102 721v-692h180c208 0 260 114 260 346s-52 346 -260 346h-180zM403 900h29l-128 -100h-34l-128 100h29l116 -76z" />
    <glyph glyph-name="Dcedilla" unicode="&#x1e10;" horiz-adv-x="630" 
d="M287 0h-217v750h217c237 0 288 -140 288 -375s-51 -375 -288 -375zM102 721v-692h180c208 0 260 114 260 346s-52 346 -260 346h-180zM271 -90l2 24c77 -12 124 -50 124 -100c0 -51 -40 -84 -104 -84c-44 0 -69 10 -82 16v27c17 -6 44 -16 75 -16c58 0 81 23 81 55
c0 46 -37 67 -96 78z" />
    <glyph glyph-name="Ddotbelow" unicode="&#x1e0c;" horiz-adv-x="630" 
d="M287 0h-217v750h217c237 0 288 -140 288 -375s-51 -375 -288 -375zM102 721v-692h180c208 0 260 114 260 346s-52 346 -260 346h-180zM257 -150c0 16 13 30 30 30c16 0 30 -14 30 -30c0 -17 -14 -30 -30 -30c-17 0 -30 13 -30 30z" />
    <glyph glyph-name="Dcroat" unicode="&#x110;" horiz-adv-x="670" 
d="M110 390v360h217c237 0 288 -140 288 -375s-51 -375 -288 -375h-217v362h-90v28h90zM321 390v-28h-179v-333h180c208 0 260 114 260 346s-52 346 -260 346h-180v-331h179z" />
    <glyph glyph-name="Eacute" unicode="&#xc9;" horiz-adv-x="541" 
d="M449 403v-28h-347v-346h384v-29h-416v750h416v-29h-384v-318h347zM298 800h-26l60 100h51z" />
    <glyph glyph-name="Egrave" unicode="&#xc8;" horiz-adv-x="541" 
d="M449 403v-28h-347v-346h384v-29h-416v750h416v-29h-384v-318h347zM298 800h-26l-85 100h51z" />
    <glyph glyph-name="Ecircumflex" unicode="&#xca;" horiz-adv-x="541" 
d="M449 403v-28h-347v-346h384v-29h-416v750h416v-29h-384v-318h347zM169 800h-29l128 100h34l128 -100h-29l-116 76z" />
    <glyph glyph-name="Edieresis" unicode="&#xcb;" horiz-adv-x="541" 
d="M449 403v-28h-347v-346h384v-29h-416v750h416v-29h-384v-318h347zM160 850c0 16 13 30 30 30c16 0 30 -14 30 -30c0 -17 -14 -30 -30 -30c-17 0 -30 13 -30 30zM350 850c0 16 13 30 30 30c16 0 30 -14 30 -30c0 -17 -14 -30 -30 -30c-17 0 -30 13 -30 30z" />
    <glyph glyph-name="Ecaron" unicode="&#x11a;" horiz-adv-x="541" 
d="M449 403v-28h-347v-346h384v-29h-416v750h416v-29h-384v-318h347zM401 900h29l-128 -100h-34l-128 100h29l116 -76z" />
    <glyph glyph-name="Emacron" unicode="&#x112;" horiz-adv-x="541" 
d="M449 403v-28h-347v-346h384v-29h-416v750h416v-29h-384v-318h347zM422 837h-274v27h274v-27z" />
    <glyph glyph-name="Ebreve" unicode="&#x114;" horiz-adv-x="541" 
d="M449 403v-28h-347v-346h384v-29h-416v750h416v-29h-384v-318h347zM285 790c-95 0 -142 36 -145 110h21c2 -50 36 -83 124 -83s122 33 124 83h21c-3 -74 -50 -110 -145 -110z" />
    <glyph glyph-name="Einvertedbreve" unicode="&#x206;" horiz-adv-x="541" 
d="M449 403v-28h-347v-346h384v-29h-416v750h416v-29h-384v-318h347zM285 910c95 0 142 -36 145 -110h-21c-2 50 -36 83 -124 83s-122 -33 -124 -83h-21c3 74 50 110 145 110z" />
    <glyph glyph-name="Edoublegrave" unicode="&#xe003;" horiz-adv-x="541" 
d="M449 403v-28h-347v-346h384v-29h-416v750h416v-29h-384v-318h347zM348 800h-26l-85 100h51zM248 800h-26l-85 100h51z" />
    <glyph glyph-name="Edotaccent" unicode="&#x116;" horiz-adv-x="541" 
d="M449 403v-28h-347v-346h384v-29h-416v750h416v-29h-384v-318h347zM255 850c0 16 13 30 30 30c16 0 30 -14 30 -30c0 -17 -14 -30 -30 -30c-17 0 -30 13 -30 30z" />
    <glyph glyph-name="Eacutedotbelow" unicode="&#xe004;" horiz-adv-x="541" 
d="M449 403v-28h-347v-346h384v-29h-416v750h416v-29h-384v-318h347zM255 -150c0 16 13 30 30 30c16 0 30 -14 30 -30c0 -17 -14 -30 -30 -30c-17 0 -30 13 -30 30zM298 800h-26l60 100h51z" />
    <glyph glyph-name="Egravedotbelow" unicode="&#xe005;" horiz-adv-x="541" 
d="M449 403v-28h-347v-346h384v-29h-416v750h416v-29h-384v-318h347zM255 -150c0 16 13 30 30 30c16 0 30 -14 30 -30c0 -17 -14 -30 -30 -30c-17 0 -30 13 -30 30zM298 800h-26l-85 100h51z" />
    <glyph glyph-name="Eogonek" unicode="&#x118;" horiz-adv-x="541" 
d="M449 403v-28h-347v-346h384v-29c-34 -14 -124 -67 -124 -149c0 -53 21 -77 70 -77c23 0 43 6 59 11v-25c-15 -5 -36 -10 -66 -10c-49 0 -89 30 -89 96c0 72 50 121 104 154h-370v750h416v-29h-384v-318h347z" />
    <glyph glyph-name="Gacute" unicode="&#x1f4;" horiz-adv-x="636" 
d="M345 24c63 0 139 9 189 33v290h-163v28h195v-341c-50 -21 -122 -39 -221 -39c-221 0 -290 138 -290 380s69 380 290 380c98 0 159 -17 200 -36v-31c-61 25 -119 38 -200 38c-187 0 -258 -117 -258 -351s71 -351 258 -351zM358 800h-26l60 100h51z" />
    <glyph glyph-name="Gcircumflex" unicode="&#x11c;" horiz-adv-x="636" 
d="M345 24c63 0 139 9 189 33v290h-163v28h195v-341c-50 -21 -122 -39 -221 -39c-221 0 -290 138 -290 380s69 380 290 380c98 0 159 -17 200 -36v-31c-61 25 -119 38 -200 38c-187 0 -258 -117 -258 -351s71 -351 258 -351zM229 800h-29l128 100h34l128 -100h-29l-116 76z
" />
    <glyph glyph-name="Gtilde" unicode="&#xe006;" horiz-adv-x="636" 
d="M345 24c63 0 139 9 189 33v290h-163v28h195v-341c-50 -21 -122 -39 -221 -39c-221 0 -290 138 -290 380s69 380 290 380c98 0 159 -17 200 -36v-31c-61 25 -119 38 -200 38c-187 0 -258 -117 -258 -351s71 -351 258 -351zM475 891h28c-4 -58 -36 -88 -87 -88
c-72 0 -83 69 -141 69c-35 0 -58 -18 -60 -63h-28c4 58 36 88 87 88c72 0 83 -69 141 -69c35 0 58 18 60 63z" />
    <glyph glyph-name="Gcaron" unicode="&#x1e6;" horiz-adv-x="636" 
d="M345 24c63 0 139 9 189 33v290h-163v28h195v-341c-50 -21 -122 -39 -221 -39c-221 0 -290 138 -290 380s69 380 290 380c98 0 159 -17 200 -36v-31c-61 25 -119 38 -200 38c-187 0 -258 -117 -258 -351s71 -351 258 -351zM461 900h29l-128 -100h-34l-128 100h29l116 -76z
" />
    <glyph glyph-name="Gbreve" unicode="&#x11e;" horiz-adv-x="636" 
d="M345 24c63 0 139 9 189 33v290h-163v28h195v-341c-50 -21 -122 -39 -221 -39c-221 0 -290 138 -290 380s69 380 290 380c98 0 159 -17 200 -36v-31c-61 25 -119 38 -200 38c-187 0 -258 -117 -258 -351s71 -351 258 -351zM345 790c-95 0 -142 36 -145 110h21
c2 -50 36 -83 124 -83s122 33 124 83h21c-3 -74 -50 -110 -145 -110z" />
    <glyph glyph-name="Gdotaccent" unicode="&#x120;" horiz-adv-x="636" 
d="M345 24c63 0 139 9 189 33v290h-163v28h195v-341c-50 -21 -122 -39 -221 -39c-221 0 -290 138 -290 380s69 380 290 380c98 0 159 -17 200 -36v-31c-61 25 -119 38 -200 38c-187 0 -258 -117 -258 -351s71 -351 258 -351zM315 850c0 16 13 30 30 30c16 0 30 -14 30 -30
c0 -17 -14 -30 -30 -30c-17 0 -30 13 -30 30z" />
    <glyph glyph-name="Gcommaturnedabove" unicode="&#xe007;" horiz-adv-x="636" 
d="M345 24c63 0 139 9 189 33v290h-163v28h195v-341c-50 -21 -122 -39 -221 -39c-221 0 -290 138 -290 380s69 380 290 380c98 0 159 -17 200 -36v-31c-61 25 -119 38 -200 38c-187 0 -258 -117 -258 -351s71 -351 258 -351zM377 900h26l-40 -100h-41z" />
    <glyph glyph-name="Gcommaaccent" unicode="&#x122;" horiz-adv-x="636" 
d="M345 24c63 0 139 9 189 33v290h-163v28h195v-341c-50 -21 -122 -39 -221 -39c-221 0 -290 138 -290 380s69 380 290 380c98 0 159 -17 200 -36v-31c-61 25 -119 38 -200 38c-187 0 -258 -117 -258 -351s71 -351 258 -351zM331 -50h37l-43 -200h-20z" />
    <glyph glyph-name="Gstroke" unicode="&#x1e4;" horiz-adv-x="656" 
d="M634 225v-28h-68v-163c-50 -21 -122 -39 -221 -39c-221 0 -290 138 -290 380s69 380 290 380c98 0 159 -17 200 -36v-31c-61 25 -119 38 -200 38c-187 0 -258 -117 -258 -351s71 -351 258 -351c63 0 139 9 189 33v140h-133v28h133v122h-163v28h195v-150h68z" />
    <glyph glyph-name="Hcircumflex" unicode="&#x124;" horiz-adv-x="634" 
d="M564 0h-32v375h-430v-375h-32v750h32v-347h430v347h32v-750zM201 800h-29l128 100h34l128 -100h-29l-116 76z" />
    <glyph glyph-name="Hcaron" unicode="&#xe008;" horiz-adv-x="634" 
d="M564 0h-32v375h-430v-375h-32v750h32v-347h430v347h32v-750zM433 900h29l-128 -100h-34l-128 100h29l116 -76z" />
    <glyph glyph-name="Hdotbelow" unicode="&#x1e24;" horiz-adv-x="634" 
d="M564 0h-32v375h-430v-375h-32v750h32v-347h430v347h32v-750zM287 -150c0 16 13 30 30 30c16 0 30 -14 30 -30c0 -17 -14 -30 -30 -30c-17 0 -30 13 -30 30z" />
    <glyph glyph-name="Hmacronbelow" unicode="&#xe009;" horiz-adv-x="634" 
d="M564 0h-32v375h-430v-375h-32v750h32v-347h430v347h32v-750zM180 -136h274v-27h-274v27z" />
    <glyph glyph-name="Hbar" unicode="&#x126;" horiz-adv-x="634" 
d="M564 0h-32v375h-430v-375h-32v750h32v-162h430v162h32v-750zM102 403h430v158h-430v-158z" />
    <glyph glyph-name="Iacute" unicode="&#xcd;" horiz-adv-x="216" 
d="M124 0h-32v750h32v-750zM121 800h-26l60 100h51z" />
    <glyph glyph-name="Igrave" unicode="&#xcc;" horiz-adv-x="216" 
d="M124 0h-32v750h32v-750zM121 800h-26l-85 100h51z" />
    <glyph glyph-name="Icircumflex" unicode="&#xce;" horiz-adv-x="216" 
d="M124 0h-32v750h32v-750zM-8 800h-29l128 100h34l128 -100h-29l-116 76z" />
    <glyph glyph-name="Idieresis" unicode="&#xcf;" horiz-adv-x="216" 
d="M124 0h-32v750h32v-750zM3 850c0 16 13 30 30 30c16 0 30 -14 30 -30c0 -17 -14 -30 -30 -30c-17 0 -30 13 -30 30zM153 850c0 16 13 30 30 30c16 0 30 -14 30 -30c0 -17 -14 -30 -30 -30c-17 0 -30 13 -30 30z" />
    <glyph glyph-name="Itilde" unicode="&#x128;" horiz-adv-x="216" 
d="M124 0h-32v750h32v-750zM238 891h28c-4 -58 -36 -88 -87 -88c-72 0 -83 69 -141 69c-35 0 -58 -18 -60 -63h-28c4 58 36 88 87 88c72 0 83 -69 141 -69c35 0 58 18 60 63z" />
    <glyph glyph-name="Icaron" unicode="&#x1cf;" horiz-adv-x="216" 
d="M124 0h-32v750h32v-750zM224 900h29l-128 -100h-34l-128 100h29l116 -76z" />
    <glyph glyph-name="Imacron" unicode="&#x12a;" horiz-adv-x="216" 
d="M124 0h-32v750h32v-750zM245 837h-274v27h274v-27z" />
    <glyph glyph-name="Ibreve" unicode="&#x12c;" horiz-adv-x="216" 
d="M124 0h-32v750h32v-750zM108 790c-95 0 -142 36 -145 110h21c2 -50 36 -83 124 -83s122 33 124 83h21c-3 -74 -50 -110 -145 -110z" />
    <glyph glyph-name="Iinvertedbreve" unicode="&#x20a;" horiz-adv-x="216" 
d="M124 0h-32v750h32v-750zM108 910c95 0 142 -36 145 -110h-21c-2 50 -36 83 -124 83s-122 -33 -124 -83h-21c3 74 50 110 145 110z" />
    <glyph glyph-name="Idoublegrave" unicode="&#xe00b;" horiz-adv-x="216" 
d="M124 0h-32v750h32v-750zM161 800h-26l-85 100h51zM81 800h-26l-85 100h51z" />
    <glyph glyph-name="Idotaccent" unicode="&#x130;" horiz-adv-x="216" 
d="M124 0h-32v750h32v-750zM78 850c0 16 13 30 30 30c16 0 30 -14 30 -30c0 -17 -14 -30 -30 -30c-17 0 -30 13 -30 30z" />
    <glyph glyph-name="Idotbelow" unicode="&#x1eca;" horiz-adv-x="216" 
d="M124 0h-32v750h32v-750zM78 -150c0 16 13 30 30 30c16 0 30 -14 30 -30c0 -17 -14 -30 -30 -30c-17 0 -30 13 -30 30z" />
    <glyph glyph-name="Iogonek" unicode="&#x12e;" horiz-adv-x="216" 
d="M124 0c-34 -14 -88 -67 -88 -149c0 -53 24 -77 73 -77c23 0 43 6 59 11v-25c-15 -5 -36 -10 -66 -10c-49 0 -92 30 -92 96s32 123 82 162v742h32v-750z" />
    <glyph glyph-name="Jcircumflex" unicode="&#x134;" horiz-adv-x="351" 
d="M30 -2v27c6 -1 30 -3 53 -3c81 0 136 24 136 108v620h32v-618c0 -87 -51 -137 -168 -137c-15 0 -37 1 -53 3zM119 800h-29l128 100h34l128 -100h-29l-116 76z" />
    <glyph glyph-name="Jcaron" unicode="&#xe00c;" horiz-adv-x="351" 
d="M30 -2v27c6 -1 30 -3 53 -3c81 0 136 24 136 108v620h32v-618c0 -87 -51 -137 -168 -137c-15 0 -37 1 -53 3zM351 900h29l-128 -100h-34l-128 100h29l116 -76z" />
    <glyph glyph-name="Kcaron" unicode="&#x1e8;" horiz-adv-x="548" 
d="M390 900h29l-128 -100h-34l-128 100h29l116 -76zM190 396l-91 -105v-291h-29v750h29v-419l362 419h37l-290 -333l325 -417h-39z" />
    <glyph glyph-name="Kcommaaccent" unicode="&#x136;" horiz-adv-x="548" 
d="M264 -50h37l-43 -200h-20zM190 396l-91 -105v-291h-29v750h29v-419l362 419h37l-290 -333l325 -417h-39z" />
    <glyph glyph-name="Kcedilla" unicode="&#xe00d;" horiz-adv-x="548" 
d="M241 -90l2 24c77 -12 124 -50 124 -100c0 -51 -40 -84 -104 -84c-44 0 -69 10 -82 16v27c17 -6 44 -16 75 -16c58 0 81 23 81 55c0 46 -37 67 -96 78zM190 396l-91 -105v-291h-29v750h29v-419l362 419h37l-290 -333l325 -417h-39z" />
    <glyph glyph-name="Khook" unicode="&#x198;" horiz-adv-x="548" 
d="M99 0h-29v750h29v-403c50 19 85 56 130 138c62 112 101 270 254 265v-27c-129 2 -167 -132 -229 -251c-13 -25 -26 -46 -39 -64l318 -408h-39l-297 386c-29 -34 -61 -55 -98 -69v-317z" />
    <glyph glyph-name="Lacute" unicode="&#x139;" horiz-adv-x="489" 
d="M101 750v-721h363v-29h-394v750h31zM99 800h-26l60 100h51z" />
    <glyph glyph-name="Lcaron" unicode="&#x13d;" horiz-adv-x="489" 
d="M101 750v-721h363v-29h-394v750h31zM227 750h34l-40 -200h-20z" />
    <glyph glyph-name="Lcommaaccent" unicode="&#x13b;" horiz-adv-x="489" 
d="M101 750v-721h363v-29h-394v750h31zM247 -50h37l-43 -200h-20z" />
    <glyph glyph-name="Lcedilla" unicode="&#xe00e;" horiz-adv-x="489" 
d="M101 750v-721h363v-29h-394v750h31zM245 -90l2 24c77 -12 124 -50 124 -100c0 -51 -40 -84 -104 -84c-44 0 -69 10 -82 16v27c17 -6 44 -16 75 -16c58 0 81 23 81 55c0 46 -37 67 -96 78z" />
    <glyph glyph-name="Ldotbelow" unicode="&#x1e36;" horiz-adv-x="489" 
d="M101 750v-721h363v-29h-394v750h31zM231 -150c0 16 13 30 30 30c16 0 30 -14 30 -30c0 -17 -14 -30 -30 -30c-17 0 -30 13 -30 30z" />
    <glyph glyph-name="Ldotbelowmacron" unicode="&#x1e38;" horiz-adv-x="489" 
d="M101 750v-721h363v-29h-394v750h31zM231 -150c0 16 13 30 30 30c16 0 30 -14 30 -30c0 -17 -14 -30 -30 -30c-17 0 -30 13 -30 30zM223 837h-274v27h274v-27z" />
    <glyph glyph-name="Ldot" unicode="&#x13f;" horiz-adv-x="489" 
d="M101 750v-721h363v-29h-394v750h31zM305 375c0 16 13 30 30 30c16 0 30 -14 30 -30c0 -17 -14 -30 -30 -30c-17 0 -30 13 -30 30z" />
    <glyph glyph-name="Lslash" unicode="&#x141;" horiz-adv-x="509" 
d="M388 480v-28l-267 -136v-287h363v-29h-394v300l-90 -46v28l90 46v422h31v-406z" />
    <glyph glyph-name="Mmacron" unicode="&#xe00f;" horiz-adv-x="750" 
d="M360 103l-258 547l1 -650h-33v750h21l284 -611l284 611h21v-750h-33l1 650l-258 -547h-30zM512 837h-274v27h274v-27z" />
    <glyph glyph-name="Mcedilla" unicode="&#xe010;" horiz-adv-x="750" 
d="M360 103l-258 547l1 -650h-33v750h21l284 -611l284 611h21v-750h-33l1 650l-258 -547h-30zM359 -90l2 24c77 -12 124 -50 124 -100c0 -51 -40 -84 -104 -84c-44 0 -69 10 -82 16v27c17 -6 44 -16 75 -16c58 0 81 23 81 55c0 46 -37 67 -96 78z" />
    <glyph glyph-name="Mdotbelow" unicode="&#x1e42;" horiz-adv-x="750" 
d="M360 103l-258 547l1 -650h-33v750h21l284 -611l284 611h21v-750h-33l1 650l-258 -547h-30zM345 -150c0 16 13 30 30 30c16 0 30 -14 30 -30c0 -17 -14 -30 -30 -30c-17 0 -30 13 -30 30z" />
    <glyph glyph-name="Nacute" unicode="&#x143;" horiz-adv-x="644" 
d="M574 0h-20l-453 680l2 -680h-33v750h20l453 -680l-2 680h33v-750zM335 800h-26l60 100h51z" />
    <glyph glyph-name="Ngrave" unicode="&#xe011;" horiz-adv-x="644" 
d="M574 0h-20l-453 680l2 -680h-33v750h20l453 -680l-2 680h33v-750zM335 800h-26l-85 100h51z" />
    <glyph glyph-name="Ndieresis" unicode="&#xe012;" horiz-adv-x="644" 
d="M574 0h-20l-453 680l2 -680h-33v750h20l453 -680l-2 680h33v-750zM197 850c0 16 13 30 30 30c16 0 30 -14 30 -30c0 -17 -14 -30 -30 -30c-17 0 -30 13 -30 30zM387 850c0 16 13 30 30 30c16 0 30 -14 30 -30c0 -17 -14 -30 -30 -30c-17 0 -30 13 -30 30z" />
    <glyph glyph-name="Ntilde" unicode="&#xd1;" horiz-adv-x="644" 
d="M574 0h-20l-453 680l2 -680h-33v750h20l453 -680l-2 680h33v-750zM452 891h28c-4 -58 -36 -88 -87 -88c-72 0 -83 69 -141 69c-35 0 -58 -18 -60 -63h-28c4 58 36 88 87 88c72 0 83 -69 141 -69c35 0 58 18 60 63z" />
    <glyph glyph-name="Ncaron" unicode="&#x147;" horiz-adv-x="644" 
d="M574 0h-20l-453 680l2 -680h-33v750h20l453 -680l-2 680h33v-750zM438 900h29l-128 -100h-34l-128 100h29l116 -76z" />
    <glyph glyph-name="Nmacron" unicode="&#xe013;" horiz-adv-x="644" 
d="M574 0h-20l-453 680l2 -680h-33v750h20l453 -680l-2 680h33v-750zM459 837h-274v27h274v-27z" />
    <glyph glyph-name="Ndotaccent" unicode="&#x1e44;" horiz-adv-x="644" 
d="M574 0h-20l-453 680l2 -680h-33v750h20l453 -680l-2 680h33v-750zM292 850c0 16 13 30 30 30c16 0 30 -14 30 -30c0 -17 -14 -30 -30 -30c-17 0 -30 13 -30 30z" />
    <glyph glyph-name="Ncommaaccent" unicode="&#x145;" horiz-adv-x="644" 
d="M574 0h-20l-453 680l2 -680h-33v750h20l453 -680l-2 680h33v-750zM308 -50h37l-43 -200h-20z" />
    <glyph glyph-name="Ncedilla" unicode="&#xe014;" horiz-adv-x="644" 
d="M574 0h-20l-453 680l2 -680h-33v750h20l453 -680l-2 680h33v-750zM306 -90l2 24c77 -12 124 -50 124 -100c0 -51 -40 -84 -104 -84c-44 0 -69 10 -82 16v27c17 -6 44 -16 75 -16c58 0 81 23 81 55c0 46 -37 67 -96 78z" />
    <glyph glyph-name="Ndotbelow" unicode="&#x1e46;" horiz-adv-x="644" 
d="M574 0h-20l-453 680l2 -680h-33v750h20l453 -680l-2 680h33v-750zM292 -150c0 16 13 30 30 30c16 0 30 -14 30 -30c0 -17 -14 -30 -30 -30c-17 0 -30 13 -30 30z" />
    <glyph glyph-name="Ndescender" unicode="&#xe015;" horiz-adv-x="644" 
d="M606 -125h-32v125h-20l-453 680l2 -680h-33v750h20l453 -680l-2 680h33v-721h32v-154z" />
    <glyph glyph-name="Oacute" unicode="&#xd3;" horiz-adv-x="658" 
d="M603 375c0 -228 -34 -380 -274 -380c-239 0 -274 152 -274 380s35 380 274 380c240 0 274 -152 274 -380zM571 375c0 230 -36 351 -242 351s-242 -121 -242 -351s36 -351 242 -351s242 121 242 351zM342 800h-26l60 100h51z" />
    <glyph glyph-name="Ograve" unicode="&#xd2;" horiz-adv-x="658" 
d="M603 375c0 -228 -34 -380 -274 -380c-239 0 -274 152 -274 380s35 380 274 380c240 0 274 -152 274 -380zM571 375c0 230 -36 351 -242 351s-242 -121 -242 -351s36 -351 242 -351s242 121 242 351zM342 800h-26l-85 100h51z" />
    <glyph glyph-name="Ocircumflex" unicode="&#xd4;" horiz-adv-x="658" 
d="M603 375c0 -228 -34 -380 -274 -380c-239 0 -274 152 -274 380s35 380 274 380c240 0 274 -152 274 -380zM571 375c0 230 -36 351 -242 351s-242 -121 -242 -351s36 -351 242 -351s242 121 242 351zM213 800h-29l128 100h34l128 -100h-29l-116 76z" />
    <glyph glyph-name="Odieresis" unicode="&#xd6;" horiz-adv-x="658" 
d="M603 375c0 -228 -34 -380 -274 -380c-239 0 -274 152 -274 380s35 380 274 380c240 0 274 -152 274 -380zM571 375c0 230 -36 351 -242 351s-242 -121 -242 -351s36 -351 242 -351s242 121 242 351zM204 850c0 16 13 30 30 30c16 0 30 -14 30 -30c0 -17 -14 -30 -30 -30
c-17 0 -30 13 -30 30zM394 850c0 16 13 30 30 30c16 0 30 -14 30 -30c0 -17 -14 -30 -30 -30c-17 0 -30 13 -30 30z" />
    <glyph glyph-name="Otilde" unicode="&#xd5;" horiz-adv-x="658" 
d="M603 375c0 -228 -34 -380 -274 -380c-239 0 -274 152 -274 380s35 380 274 380c240 0 274 -152 274 -380zM571 375c0 230 -36 351 -242 351s-242 -121 -242 -351s36 -351 242 -351s242 121 242 351zM459 891h28c-4 -58 -36 -88 -87 -88c-72 0 -83 69 -141 69
c-35 0 -58 -18 -60 -63h-28c4 58 36 88 87 88c72 0 83 -69 141 -69c35 0 58 18 60 63z" />
    <glyph glyph-name="Ocaron" unicode="&#x1d1;" horiz-adv-x="658" 
d="M603 375c0 -228 -34 -380 -274 -380c-239 0 -274 152 -274 380s35 380 274 380c240 0 274 -152 274 -380zM571 375c0 230 -36 351 -242 351s-242 -121 -242 -351s36 -351 242 -351s242 121 242 351zM445 900h29l-128 -100h-34l-128 100h29l116 -76z" />
    <glyph glyph-name="Omacron" unicode="&#x14c;" horiz-adv-x="658" 
d="M603 375c0 -228 -34 -380 -274 -380c-239 0 -274 152 -274 380s35 380 274 380c240 0 274 -152 274 -380zM571 375c0 230 -36 351 -242 351s-242 -121 -242 -351s36 -351 242 -351s242 121 242 351zM466 837h-274v27h274v-27z" />
    <glyph glyph-name="Obreve" unicode="&#x14e;" horiz-adv-x="658" 
d="M603 375c0 -228 -34 -380 -274 -380c-239 0 -274 152 -274 380s35 380 274 380c240 0 274 -152 274 -380zM571 375c0 230 -36 351 -242 351s-242 -121 -242 -351s36 -351 242 -351s242 121 242 351zM329 790c-95 0 -142 36 -145 110h21c2 -50 36 -83 124 -83
s122 33 124 83h21c-3 -74 -50 -110 -145 -110z" />
    <glyph glyph-name="Oinvertedbreve" unicode="&#x20e;" horiz-adv-x="658" 
d="M603 375c0 -228 -34 -380 -274 -380c-239 0 -274 152 -274 380s35 380 274 380c240 0 274 -152 274 -380zM571 375c0 230 -36 351 -242 351s-242 -121 -242 -351s36 -351 242 -351s242 121 242 351zM329 910c95 0 142 -36 145 -110h-21c-2 50 -36 83 -124 83
s-122 -33 -124 -83h-21c3 74 50 110 145 110z" />
    <glyph glyph-name="Ohungarumlaut" unicode="&#x150;" horiz-adv-x="658" 
d="M603 375c0 -228 -34 -380 -274 -380c-239 0 -274 152 -274 380s35 380 274 380c240 0 274 -152 274 -380zM571 375c0 230 -36 351 -242 351s-242 -121 -242 -351s36 -351 242 -351s242 121 242 351zM292 800h-26l60 100h51zM392 800h-26l60 100h51z" />
    <glyph glyph-name="Odoublegrave" unicode="&#xe016;" horiz-adv-x="658" 
d="M603 375c0 -228 -34 -380 -274 -380c-239 0 -274 152 -274 380s35 380 274 380c240 0 274 -152 274 -380zM571 375c0 230 -36 351 -242 351s-242 -121 -242 -351s36 -351 242 -351s242 121 242 351zM392 800h-26l-85 100h51zM292 800h-26l-85 100h51z" />
    <glyph glyph-name="Ocommaturnedabove" unicode="&#xe017;" horiz-adv-x="658" 
d="M603 375c0 -228 -34 -380 -274 -380c-239 0 -274 152 -274 380s35 380 274 380c240 0 274 -152 274 -380zM571 375c0 230 -36 351 -242 351s-242 -121 -242 -351s36 -351 242 -351s242 121 242 351zM361 900h26l-40 -100h-41z" />
    <glyph glyph-name="Otildemacron" unicode="&#xe018;" horiz-adv-x="658" 
d="M603 375c0 -228 -34 -380 -274 -380c-239 0 -274 152 -274 380s35 380 274 380c240 0 274 -152 274 -380zM571 375c0 230 -36 351 -242 351s-242 -121 -242 -351s36 -351 242 -351s242 121 242 351zM466 952h-274v27h274v-27zM459 891h28c-4 -58 -36 -88 -87 -88
c-72 0 -83 69 -141 69c-35 0 -58 -18 -60 -63h-28c4 58 36 88 87 88c72 0 83 -69 141 -69c35 0 58 18 60 63z" />
    <glyph glyph-name="Odotabove" unicode="&#xe019;" horiz-adv-x="658" 
d="M603 375c0 -228 -34 -380 -274 -380c-239 0 -274 152 -274 380s35 380 274 380c240 0 274 -152 274 -380zM571 375c0 230 -36 351 -242 351s-242 -121 -242 -351s36 -351 242 -351s242 121 242 351zM299 850c0 16 13 30 30 30c16 0 30 -14 30 -30c0 -17 -14 -30 -30 -30
c-17 0 -30 13 -30 30z" />
    <glyph glyph-name="Odotabovemacron" unicode="&#xe01a;" horiz-adv-x="658" 
d="M603 375c0 -228 -34 -380 -274 -380c-239 0 -274 152 -274 380s35 380 274 380c240 0 274 -152 274 -380zM571 375c0 230 -36 351 -242 351s-242 -121 -242 -351s36 -351 242 -351s242 121 242 351zM299 850c0 16 13 30 30 30c16 0 30 -14 30 -30c0 -17 -14 -30 -30 -30
c-17 0 -30 13 -30 30zM466 952h-274v27h274v-27z" />
    <glyph glyph-name="Ocedilla" unicode="&#xe01b;" horiz-adv-x="658" 
d="M603 375c0 -228 -34 -380 -274 -380c-239 0 -274 152 -274 380s35 380 274 380c240 0 274 -152 274 -380zM571 375c0 230 -36 351 -242 351s-242 -121 -242 -351s36 -351 242 -351s242 121 242 351zM313 -90l2 24c77 -12 124 -50 124 -100c0 -51 -40 -84 -104 -84
c-44 0 -69 10 -82 16v27c17 -6 44 -16 75 -16c58 0 81 23 81 55c0 46 -37 67 -96 78z" />
    <glyph glyph-name="Odotbelow" unicode="&#x1ecc;" horiz-adv-x="658" 
d="M603 375c0 -228 -34 -380 -274 -380c-239 0 -274 152 -274 380s35 380 274 380c240 0 274 -152 274 -380zM571 375c0 230 -36 351 -242 351s-242 -121 -242 -351s36 -351 242 -351s242 121 242 351zM299 -150c0 16 13 30 30 30c16 0 30 -14 30 -30c0 -17 -14 -30 -30 -30
c-17 0 -30 13 -30 30z" />
    <glyph glyph-name="Oogonek" unicode="&#x1ea;" horiz-adv-x="658" 
d="M603 375c0 -204 -28 -347 -205 -375c-34 -14 -124 -67 -124 -149c0 -53 21 -77 70 -77c23 0 43 6 59 11v-25c-15 -5 -36 -10 -66 -10c-49 0 -89 30 -89 96c0 69 45 117 97 150c-6 0 -11 -1 -16 -1c-239 0 -274 152 -274 380s35 380 274 380c240 0 274 -152 274 -380z
M571 375c0 230 -36 351 -242 351s-242 -121 -242 -351s36 -351 242 -351s242 121 242 351z" />
    <glyph glyph-name="Oogonekmacron" unicode="&#x1ec;" horiz-adv-x="658" 
d="M603 375c0 -204 -28 -347 -205 -375c-34 -14 -124 -67 -124 -149c0 -53 21 -77 70 -77c23 0 43 6 59 11v-25c-15 -5 -36 -10 -66 -10c-49 0 -89 30 -89 96c0 69 45 117 97 150c-6 0 -11 -1 -16 -1c-239 0 -274 152 -274 380s35 380 274 380c240 0 274 -152 274 -380z
M571 375c0 230 -36 351 -242 351s-242 -121 -242 -351s36 -351 242 -351s242 121 242 351zM466 837h-274v27h274v-27z" />
    <glyph glyph-name="Ounderlineaccent" unicode="&#xe01c;" horiz-adv-x="658" 
d="M603 375c0 -228 -34 -380 -274 -380c-239 0 -274 152 -274 380s35 380 274 380c240 0 274 -152 274 -380zM571 375c0 230 -36 351 -242 351s-242 -121 -242 -351s36 -351 242 -351s242 121 242 351zM317 -250v200h24v-200h-24z" />
    <glyph glyph-name="Oslash" unicode="&#xd8;" horiz-adv-x="658" 
d="M151 43l-25 -43h-36l38 64c-61 66 -73 175 -73 311c0 228 35 380 274 380c81 0 138 -18 179 -49l26 44h36l-39 -66c60 -66 72 -174 72 -309c0 -228 -34 -380 -274 -380c-80 0 -137 17 -178 48zM329 726c-206 0 -242 -121 -242 -351c0 -129 11 -224 58 -282l347 586
c-37 31 -89 47 -163 47zM571 375c0 128 -11 222 -57 281l-347 -586c37 -31 88 -46 162 -46c206 0 242 121 242 351z" />
    <glyph glyph-name="Oslashacute" unicode="&#x1fe;" horiz-adv-x="658" 
d="M151 43l-25 -43h-36l38 64c-61 66 -73 175 -73 311c0 228 35 380 274 380c81 0 138 -18 179 -49l26 44h36l-39 -66c60 -66 72 -174 72 -309c0 -228 -34 -380 -274 -380c-80 0 -137 17 -178 48zM329 726c-206 0 -242 -121 -242 -351c0 -129 11 -224 58 -282l347 586
c-37 31 -89 47 -163 47zM571 375c0 128 -11 222 -57 281l-347 -586c37 -31 88 -46 162 -46c206 0 242 121 242 351zM342 800h-26l60 100h51z" />
    <glyph glyph-name="barredO" unicode="&#xe01d;" horiz-adv-x="658" 
d="M603 375c0 -228 -34 -380 -274 -380c-239 0 -274 152 -274 380s35 380 274 380c240 0 274 -152 274 -380zM571 375h-484c0 -230 36 -351 242 -351s242 121 242 351zM329 726c-198 0 -239 -112 -242 -323h484c-3 211 -45 323 -242 323z" />
    <glyph glyph-name="OE" unicode="&#x152;" horiz-adv-x="869" 
d="M777 403v-28h-307v-346h344v-29h-471c-237 0 -288 140 -288 375s51 375 288 375h471v-29h-344v-318h307zM438 29v692h-90c-208 0 -260 -114 -260 -346s52 -346 260 -346h90z" />
    <glyph glyph-name="Pmacron" unicode="&#xe01e;" horiz-adv-x="563" 
d="M304 750c182 0 229 -104 229 -217s-47 -216 -229 -216h-202v-317h-32v750h234zM102 721v-376h207c166 0 192 103 192 188c0 86 -26 188 -192 188h-207zM418 837h-274v27h274v-27z" />
    <glyph glyph-name="Racute" unicode="&#x154;" horiz-adv-x="583" 
d="M102 346v-346h-32v750h236c187 0 228 -74 228 -202c0 -110 -31 -180 -159 -198l188 -350h-39l-181 347c-12 -1 -24 -1 -37 -1h-204zM102 375h219c158 0 181 77 181 173s-23 173 -181 173h-219v-346zM290 800h-26l60 100h51z" />
    <glyph glyph-name="Rcaron" unicode="&#x158;" horiz-adv-x="583" 
d="M102 346v-346h-32v750h236c187 0 228 -74 228 -202c0 -110 -31 -180 -159 -198l188 -350h-39l-181 347c-12 -1 -24 -1 -37 -1h-204zM102 375h219c158 0 181 77 181 173s-23 173 -181 173h-219v-346zM393 900h29l-128 -100h-34l-128 100h29l116 -76z" />
    <glyph glyph-name="Rinvertedbreve" unicode="&#x212;" horiz-adv-x="583" 
d="M102 346v-346h-32v750h236c187 0 228 -74 228 -202c0 -110 -31 -180 -159 -198l188 -350h-39l-181 347c-12 -1 -24 -1 -37 -1h-204zM102 375h219c158 0 181 77 181 173s-23 173 -181 173h-219v-346zM277 910c95 0 142 -36 145 -110h-21c-2 50 -36 83 -124 83
s-122 -33 -124 -83h-21c3 74 50 110 145 110z" />
    <glyph glyph-name="Rdoublegrave" unicode="&#xe01f;" horiz-adv-x="583" 
d="M102 346v-346h-32v750h236c187 0 228 -74 228 -202c0 -110 -31 -180 -159 -198l188 -350h-39l-181 347c-12 -1 -24 -1 -37 -1h-204zM102 375h219c158 0 181 77 181 173s-23 173 -181 173h-219v-346zM340 800h-26l-85 100h51zM240 800h-26l-85 100h51z" />
    <glyph glyph-name="Rcommaaccent" unicode="&#x156;" horiz-adv-x="583" 
d="M102 346v-346h-32v750h236c187 0 228 -74 228 -202c0 -110 -31 -180 -159 -198l188 -350h-39l-181 347c-12 -1 -24 -1 -37 -1h-204zM102 375h219c158 0 181 77 181 173s-23 173 -181 173h-219v-346zM264 -50h37l-43 -200h-20z" />
    <glyph glyph-name="Rcedilla" unicode="&#xe020;" horiz-adv-x="583" 
d="M102 346v-346h-32v750h236c187 0 228 -74 228 -202c0 -110 -31 -180 -159 -198l188 -350h-39l-181 347c-12 -1 -24 -1 -37 -1h-204zM102 375h219c158 0 181 77 181 173s-23 173 -181 173h-219v-346zM261 -90l2 24c77 -12 124 -50 124 -100c0 -51 -40 -84 -104 -84
c-44 0 -69 10 -82 16v27c17 -6 44 -16 75 -16c58 0 81 23 81 55c0 46 -37 67 -96 78z" />
    <glyph glyph-name="Rdotbelow" unicode="&#x1e5a;" horiz-adv-x="583" 
d="M102 346v-346h-32v750h236c187 0 228 -74 228 -202c0 -110 -31 -180 -159 -198l188 -350h-39l-181 347c-12 -1 -24 -1 -37 -1h-204zM102 375h219c158 0 181 77 181 173s-23 173 -181 173h-219v-346zM247 -150c0 16 13 30 30 30c16 0 30 -14 30 -30c0 -17 -14 -30 -30 -30
c-17 0 -30 13 -30 30z" />
    <glyph glyph-name="Rdotbelowmacron" unicode="&#x1e5c;" horiz-adv-x="583" 
d="M102 346v-346h-32v750h236c187 0 228 -74 228 -202c0 -110 -31 -180 -159 -198l188 -350h-39l-181 347c-12 -1 -24 -1 -37 -1h-204zM102 375h219c158 0 181 77 181 173s-23 173 -181 173h-219v-346zM247 -150c0 16 13 30 30 30c16 0 30 -14 30 -30c0 -17 -14 -30 -30 -30
c-17 0 -30 13 -30 30zM414 837h-274v27h274v-27z" />
    <glyph glyph-name="Sacute" unicode="&#x15a;" horiz-adv-x="569" 
d="M306 800h-26l60 100h51zM303 755c87 0 144 -13 184 -29v-31c-62 23 -111 31 -184 31c-171 0 -213 -76 -213 -166c0 -122 51 -140 206 -157c149 -16 224 -37 224 -196c0 -99 -50 -212 -271 -212c-64 0 -152 15 -200 34v30c46 -17 107 -35 201 -35c182 0 238 79 238 183
c0 127 -34 150 -200 169c-161 18 -229 45 -229 185c0 94 46 194 244 194z" />
    <glyph glyph-name="Scircumflex" unicode="&#x15c;" horiz-adv-x="569" 
d="M177 800h-29l128 100h34l128 -100h-29l-116 76zM303 755c87 0 144 -13 184 -29v-31c-62 23 -111 31 -184 31c-171 0 -213 -76 -213 -166c0 -122 51 -140 206 -157c149 -16 224 -37 224 -196c0 -99 -50 -212 -271 -212c-64 0 -152 15 -200 34v30c46 -17 107 -35 201 -35
c182 0 238 79 238 183c0 127 -34 150 -200 169c-161 18 -229 45 -229 185c0 94 46 194 244 194z" />
    <glyph glyph-name="Scaron" unicode="&#x160;" horiz-adv-x="569" 
d="M409 900h29l-128 -100h-34l-128 100h29l116 -76zM303 755c87 0 144 -13 184 -29v-31c-62 23 -111 31 -184 31c-171 0 -213 -76 -213 -166c0 -122 51 -140 206 -157c149 -16 224 -37 224 -196c0 -99 -50 -212 -271 -212c-64 0 -152 15 -200 34v30c46 -17 107 -35 201 -35
c182 0 238 79 238 183c0 127 -34 150 -200 169c-161 18 -229 45 -229 185c0 94 46 194 244 194z" />
    <glyph glyph-name="Scommaaccent" unicode="&#x218;" horiz-adv-x="569" 
d="M251 -50h37l-43 -200h-20zM303 755c87 0 144 -13 184 -29v-31c-62 23 -111 31 -184 31c-171 0 -213 -76 -213 -166c0 -122 51 -140 206 -157c149 -16 224 -37 224 -196c0 -99 -50 -212 -271 -212c-64 0 -152 15 -200 34v30c46 -17 107 -35 201 -35c182 0 238 79 238 183
c0 127 -34 150 -200 169c-161 18 -229 45 -229 185c0 94 46 194 244 194z" />
    <glyph glyph-name="Scedilla" unicode="&#x15e;" horiz-adv-x="569" 
d="M303 755c87 0 144 -13 184 -29v-31c-62 23 -111 31 -184 31c-171 0 -213 -76 -213 -166c0 -122 51 -140 206 -157c149 -16 224 -37 224 -196c0 -95 -46 -201 -241 -211l4 -68c45 -9 97 -42 97 -94c0 -51 -40 -84 -104 -84c-44 0 -69 10 -82 16v27c17 -6 44 -16 75 -16
c58 0 81 23 81 55c0 46 -37 67 -96 78l6 85h-11c-64 0 -152 15 -200 34v30c46 -17 107 -35 201 -35c182 0 238 79 238 183c0 127 -34 150 -200 169c-161 18 -229 45 -229 185c0 94 46 194 244 194z" />
    <glyph glyph-name="Sdotbelow" unicode="&#x1e62;" horiz-adv-x="569" 
d="M240 -150c0 16 13 30 30 30c16 0 30 -14 30 -30c0 -17 -14 -30 -30 -30c-17 0 -30 13 -30 30zM303 755c87 0 144 -13 184 -29v-31c-62 23 -111 31 -184 31c-171 0 -213 -76 -213 -166c0 -122 51 -140 206 -157c149 -16 224 -37 224 -196c0 -99 -50 -212 -271 -212
c-64 0 -152 15 -200 34v30c46 -17 107 -35 201 -35c182 0 238 79 238 183c0 127 -34 150 -200 169c-161 18 -229 45 -229 185c0 94 46 194 244 194z" />
    <glyph glyph-name="Tcaron" unicode="&#x164;" horiz-adv-x="528" 
d="M498 722h-218v-722h-32v722h-218v28h468v-28zM380 900h29l-128 -100h-34l-128 100h29l116 -76z" />
    <glyph glyph-name="Tcommaaccent" unicode="&#x162;" horiz-adv-x="528" 
d="M498 722h-218v-722h-32v722h-218v28h468v-28zM245 -50h37l-43 -200h-20z" />
    <glyph glyph-name="Tcommaaccent" unicode="&#x21a;" horiz-adv-x="528" 
d="M498 722h-218v-722h-32v722h-218v28h468v-28zM245 -50h37l-43 -200h-20z" />
    <glyph glyph-name="Tcedilla" unicode="&#xe021;" horiz-adv-x="528" 
d="M498 722h-218v-722h-32v722h-218v28h468v-28zM248 -90l2 24c77 -12 124 -50 124 -100c0 -51 -40 -84 -104 -84c-44 0 -69 10 -82 16v27c17 -6 44 -16 75 -16c58 0 81 23 81 55c0 46 -37 67 -96 78z" />
    <glyph glyph-name="Tdotbelow" unicode="&#x1e6c;" horiz-adv-x="528" 
d="M498 722h-218v-722h-32v722h-218v28h468v-28zM234 -150c0 16 13 30 30 30c16 0 30 -14 30 -30c0 -17 -14 -30 -30 -30c-17 0 -30 13 -30 30z" />
    <glyph glyph-name="Tbar" unicode="&#x166;" horiz-adv-x="528" 
d="M112 403h136v319h-218v28h468v-28h-218v-319h136v-28h-136v-375h-32v375h-136v28z" />
    <glyph glyph-name="Uacute" unicode="&#xda;" horiz-adv-x="644" 
d="M322 24c146 0 226 47 226 220v506h31v-507c0 -207 -118 -248 -257 -248s-257 41 -257 248v507h31v-506c0 -173 80 -220 226 -220zM335 800h-26l60 100h51z" />
    <glyph glyph-name="Ugrave" unicode="&#xd9;" horiz-adv-x="644" 
d="M322 24c146 0 226 47 226 220v506h31v-507c0 -207 -118 -248 -257 -248s-257 41 -257 248v507h31v-506c0 -173 80 -220 226 -220zM335 800h-26l-85 100h51z" />
    <glyph glyph-name="Ucircumflex" unicode="&#xdb;" horiz-adv-x="644" 
d="M322 24c146 0 226 47 226 220v506h31v-507c0 -207 -118 -248 -257 -248s-257 41 -257 248v507h31v-506c0 -173 80 -220 226 -220zM206 800h-29l128 100h34l128 -100h-29l-116 76z" />
    <glyph glyph-name="Udieresis" unicode="&#xdc;" horiz-adv-x="644" 
d="M322 24c146 0 226 47 226 220v506h31v-507c0 -207 -118 -248 -257 -248s-257 41 -257 248v507h31v-506c0 -173 80 -220 226 -220zM197 850c0 16 13 30 30 30c16 0 30 -14 30 -30c0 -17 -14 -30 -30 -30c-17 0 -30 13 -30 30zM387 850c0 16 13 30 30 30
c16 0 30 -14 30 -30c0 -17 -14 -30 -30 -30c-17 0 -30 13 -30 30z" />
    <glyph glyph-name="Utilde" unicode="&#x168;" horiz-adv-x="644" 
d="M322 24c146 0 226 47 226 220v506h31v-507c0 -207 -118 -248 -257 -248s-257 41 -257 248v507h31v-506c0 -173 80 -220 226 -220zM452 891h28c-4 -58 -36 -88 -87 -88c-72 0 -83 69 -141 69c-35 0 -58 -18 -60 -63h-28c4 58 36 88 87 88c72 0 83 -69 141 -69
c35 0 58 18 60 63z" />
    <glyph glyph-name="Uring" unicode="&#x16e;" horiz-adv-x="644" 
d="M322 24c146 0 226 47 226 220v506h31v-507c0 -207 -118 -248 -257 -248s-257 41 -257 248v507h31v-506c0 -173 80 -220 226 -220zM322 921c50 0 94 -16 94 -71s-44 -71 -94 -71s-94 16 -94 71s44 71 94 71zM322 802c49 0 68 19 68 48s-19 48 -68 48s-70 -19 -70 -48
s21 -48 70 -48z" />
    <glyph glyph-name="Ucaron" unicode="&#x1d3;" horiz-adv-x="644" 
d="M322 24c146 0 226 47 226 220v506h31v-507c0 -207 -118 -248 -257 -248s-257 41 -257 248v507h31v-506c0 -173 80 -220 226 -220zM438 900h29l-128 -100h-34l-128 100h29l116 -76z" />
    <glyph glyph-name="Umacron" unicode="&#x16a;" horiz-adv-x="644" 
d="M322 24c146 0 226 47 226 220v506h31v-507c0 -207 -118 -248 -257 -248s-257 41 -257 248v507h31v-506c0 -173 80 -220 226 -220zM459 837h-274v27h274v-27z" />
    <glyph glyph-name="Ubreve" unicode="&#x16c;" horiz-adv-x="644" 
d="M322 24c146 0 226 47 226 220v506h31v-507c0 -207 -118 -248 -257 -248s-257 41 -257 248v507h31v-506c0 -173 80 -220 226 -220zM322 790c-95 0 -142 36 -145 110h21c2 -50 36 -83 124 -83s122 33 124 83h21c-3 -74 -50 -110 -145 -110z" />
    <glyph glyph-name="Uinvertedbreve" unicode="&#x216;" horiz-adv-x="644" 
d="M322 24c146 0 226 47 226 220v506h31v-507c0 -207 -118 -248 -257 -248s-257 41 -257 248v507h31v-506c0 -173 80 -220 226 -220zM322 910c95 0 142 -36 145 -110h-21c-2 50 -36 83 -124 83s-122 -33 -124 -83h-21c3 74 50 110 145 110z" />
    <glyph glyph-name="Uhungarumlaut" unicode="&#x170;" horiz-adv-x="644" 
d="M322 24c146 0 226 47 226 220v506h31v-507c0 -207 -118 -248 -257 -248s-257 41 -257 248v507h31v-506c0 -173 80 -220 226 -220zM285 800h-26l60 100h51zM385 800h-26l60 100h51z" />
    <glyph glyph-name="Udoublegrave" unicode="&#xe022;" horiz-adv-x="644" 
d="M322 24c146 0 226 47 226 220v506h31v-507c0 -207 -118 -248 -257 -248s-257 41 -257 248v507h31v-506c0 -173 80 -220 226 -220zM385 800h-26l-85 100h51zM285 800h-26l-85 100h51z" />
    <glyph glyph-name="Udotbelow" unicode="&#x1ee4;" horiz-adv-x="644" 
d="M322 24c146 0 226 47 226 220v506h31v-507c0 -207 -118 -248 -257 -248s-257 41 -257 248v507h31v-506c0 -173 80 -220 226 -220zM292 -150c0 16 13 30 30 30c16 0 30 -14 30 -30c0 -17 -14 -30 -30 -30c-17 0 -30 13 -30 30z" />
    <glyph glyph-name="Umacronbelow" unicode="&#xe023;" horiz-adv-x="644" 
d="M322 24c146 0 226 47 226 220v506h31v-507c0 -207 -118 -248 -257 -248s-257 41 -257 248v507h31v-506c0 -173 80 -220 226 -220zM185 -137h274v-27h-274v27z" />
    <glyph glyph-name="Uogonek" unicode="&#x172;" horiz-adv-x="644" 
d="M322 24c146 0 226 47 226 220v506h31v-507c0 -169 -79 -227 -183 -243c-34 -14 -124 -67 -124 -149c0 -53 21 -77 70 -77c23 0 43 6 59 11v-25c-15 -5 -36 -10 -66 -10c-49 0 -89 30 -89 96c0 69 45 117 97 150c-7 0 -14 -1 -21 -1c-139 0 -257 41 -257 248v507h31v-506
c0 -173 80 -220 226 -220z" />
    <glyph glyph-name="Wacute" unicode="&#x1e82;" horiz-adv-x="808" 
d="M585 -5l-181 692l-181 -692h-26l-172 755h33l152 -695l180 695h28l180 -695l152 695h33l-172 -755h-26zM417 800h-26l60 100h51z" />
    <glyph glyph-name="Wgrave" unicode="&#x1e80;" horiz-adv-x="808" 
d="M585 -5l-181 692l-181 -692h-26l-172 755h33l152 -695l180 695h28l180 -695l152 695h33l-172 -755h-26zM417 800h-26l-85 100h51z" />
    <glyph glyph-name="Wcircumflex" unicode="&#x174;" horiz-adv-x="808" 
d="M585 -5l-181 692l-181 -692h-26l-172 755h33l152 -695l180 695h28l180 -695l152 695h33l-172 -755h-26zM288 800h-29l128 100h34l128 -100h-29l-116 76z" />
    <glyph glyph-name="Wdieresis" unicode="&#x1e84;" horiz-adv-x="808" 
d="M585 -5l-181 692l-181 -692h-26l-172 755h33l152 -695l180 695h28l180 -695l152 695h33l-172 -755h-26zM279 850c0 16 13 30 30 30c16 0 30 -14 30 -30c0 -17 -14 -30 -30 -30c-17 0 -30 13 -30 30zM469 850c0 16 13 30 30 30c16 0 30 -14 30 -30c0 -17 -14 -30 -30 -30
c-17 0 -30 13 -30 30z" />
    <glyph glyph-name="Yacute" unicode="&#xdd;" horiz-adv-x="618" 
d="M593 750l-268 -443v-307h-32v307l-268 443h39l245 -414l245 414h39zM322 800h-26l60 100h51z" />
    <glyph glyph-name="Ygrave" unicode="&#x1ef2;" horiz-adv-x="618" 
d="M593 750l-268 -443v-307h-32v307l-268 443h39l245 -414l245 414h39zM322 800h-26l-85 100h51z" />
    <glyph glyph-name="Ycircumflex" unicode="&#x176;" horiz-adv-x="618" 
d="M593 750l-268 -443v-307h-32v307l-268 443h39l245 -414l245 414h39zM193 800h-29l128 100h34l128 -100h-29l-116 76z" />
    <glyph glyph-name="Ydieresis" unicode="&#x178;" horiz-adv-x="618" 
d="M593 750l-268 -443v-307h-32v307l-268 443h39l245 -414l245 414h39zM184 850c0 16 13 30 30 30c16 0 30 -14 30 -30c0 -17 -14 -30 -30 -30c-17 0 -30 13 -30 30zM374 850c0 16 13 30 30 30c16 0 30 -14 30 -30c0 -17 -14 -30 -30 -30c-17 0 -30 13 -30 30z" />
    <glyph glyph-name="Ytilde" unicode="&#x1ef8;" horiz-adv-x="618" 
d="M593 750l-268 -443v-307h-32v307l-268 443h39l245 -414l245 414h39zM439 891h28c-4 -58 -36 -88 -87 -88c-72 0 -83 69 -141 69c-35 0 -58 -18 -60 -63h-28c4 58 36 88 87 88c72 0 83 -69 141 -69c35 0 58 18 60 63z" />
    <glyph glyph-name="Ymacron" unicode="&#xe024;" horiz-adv-x="618" 
d="M593 750l-268 -443v-307h-32v307l-268 443h39l245 -414l245 414h39zM446 837h-274v27h274v-27z" />
    <glyph glyph-name="IJ" unicode="&#x132;" horiz-adv-x="567" 
d="M124 0h-32v750h32v-750zM246 -2v27c6 -1 30 -3 53 -3c81 0 136 24 136 108v620h32v-618c0 -87 -51 -137 -168 -137c-15 0 -37 1 -53 3z" />
    <glyph glyph-name="Zacute" unicode="&#x179;" horiz-adv-x="586" 
d="M551 0h-516v22l463 700h-442v28h480v-22l-463 -700h478v-28zM306 800h-26l60 100h51z" />
    <glyph glyph-name="Zcaron" unicode="&#x17d;" horiz-adv-x="586" 
d="M551 0h-516v22l463 700h-442v28h480v-22l-463 -700h478v-28zM409 900h29l-128 -100h-34l-128 100h29l116 -76z" />
    <glyph glyph-name="Zdotaccent" unicode="&#x17b;" horiz-adv-x="586" 
d="M551 0h-516v22l463 700h-442v28h480v-22l-463 -700h478v-28zM263 850c0 16 13 30 30 30c16 0 30 -14 30 -30c0 -17 -14 -30 -30 -30c-17 0 -30 13 -30 30z" />
    <glyph glyph-name="Eng" unicode="&#x14a;" horiz-adv-x="644" 
d="M406 -255v28c75 0 138 24 138 102v140l-443 665l2 -680h-33v750h20l453 -680l-2 680h33v-871c0 -90 -56 -134 -168 -134z" />
    <glyph glyph-name="Eth" unicode="&#xd0;" horiz-adv-x="670" 
d="M110 390v360h217c237 0 288 -140 288 -375s-51 -375 -288 -375h-217v362h-90v28h90zM321 390v-28h-179v-333h180c208 0 260 114 260 346s-52 346 -260 346h-180v-331h179z" />
    <glyph glyph-name="Thorn" unicode="&#xde;" horiz-adv-x="563" 
d="M70 0v750h32v-158h202c182 0 229 -104 229 -217s-47 -216 -229 -216h-202v-159h-32zM102 563v-376h207c166 0 192 103 192 188c0 86 -26 188 -192 188h-207z" />
    <glyph glyph-name="Ezh" unicode="&#x1b7;" horiz-adv-x="596" 
d="M184 340h42c221 0 320 -88 320 -300s-99 -300 -320 -300c-87 0 -144 13 -184 29v31c62 -23 111 -31 184 -31c187 0 288 67 288 271s-101 271 -288 271h-87v23l336 388h-435v28h480v-22z" />
    <glyph glyph-name="Ezhcaron" unicode="&#x1ee;" horiz-adv-x="596" 
d="M184 340h42c221 0 320 -88 320 -300s-99 -300 -320 -300c-87 0 -144 13 -184 29v31c62 -23 111 -31 184 -31c187 0 288 67 288 271s-101 271 -288 271h-87v23l336 388h-435v28h480v-22zM387 900h29l-128 -100h-34l-128 100h29l116 -76z" />
    <glyph glyph-name="Schwa" unicode="&#x18f;" horiz-adv-x="670" 
d="M324 726c-101 0 -170 -23 -232 -47v29c66 27 144 47 232 47c235 0 291 -165 291 -380s-56 -380 -291 -380c-230 0 -269 161 -269 380v14h527c-1 175 -38 337 -258 337zM582 361h-495c0 -181 23 -337 237 -337c220 0 257 162 258 337z" />
    <glyph glyph-name="a" unicode="a" horiz-adv-x="492" 
d="M244 478c-71 0 -125 -14 -144 -21v27c28 10 85 21 144 21c153 0 183 -62 183 -160v-345h-15l-14 39c-42 -30 -119 -44 -169 -44c-129 0 -174 73 -174 153c0 76 36 143 175 152l165 10v36c0 94 -30 132 -151 132zM395 284l-177 -12c-101 -7 -132 -58 -132 -124
c0 -59 23 -126 145 -126c63 0 120 19 164 46v216z" />
    <glyph glyph-name="b" unicode="b" horiz-adv-x="539" 
d="M272 505c166 0 207 -111 207 -255s-41 -255 -207 -255c-57 0 -131 15 -175 44l-14 -39h-13v750h30v-287c44 28 116 42 172 42zM272 22c149 0 176 115 176 228s-27 228 -176 228c-70 0 -127 -14 -172 -42v-372c45 -28 102 -42 172 -42z" />
    <glyph glyph-name="c" unicode="c" horiz-adv-x="456" 
d="M60 250c0 149 41 255 207 255c44 0 99 -7 139 -20v-27c-37 10 -75 20 -139 20c-149 0 -176 -110 -176 -228s27 -228 176 -228c64 0 102 10 139 20v-27c-40 -13 -95 -20 -139 -20c-166 0 -207 106 -207 255z" />
    <glyph glyph-name="d" unicode="d" horiz-adv-x="539" 
d="M267 505c56 0 128 -14 172 -42v287h30v-750h-13l-14 39c-44 -29 -118 -44 -175 -44c-166 0 -207 111 -207 255s41 255 207 255zM267 22c70 0 127 14 172 42v372c-45 28 -102 42 -172 42c-149 0 -176 -115 -176 -228s27 -228 176 -228z" />
    <glyph glyph-name="e" unicode="e" horiz-adv-x="511" 
d="M267 22c74 0 122 13 159 25v-27c-39 -15 -105 -25 -159 -25c-166 0 -207 106 -207 255s41 255 207 255s184 -108 184 -255v-14h-360c2 -113 33 -214 176 -214zM91 264h330c0 109 -11 214 -154 214s-174 -101 -176 -214z" />
    <glyph glyph-name="f" unicode="f" horiz-adv-x="370" 
d="M120 0v473h-95v17l95 11v113c0 90 54 141 174 141c15 0 52 -2 62 -4v-27c-12 2 -41 4 -62 4c-84 0 -144 -28 -144 -114v-114h171v-27h-171v-473h-30z" />
    <glyph glyph-name="g" unicode="g" horiz-adv-x="510" 
d="M240 151c-36 0 -64 4 -88 13c-21 -13 -37 -30 -37 -58c0 -34 30 -41 54 -44l211 -29c88 -12 122 -53 122 -126c0 -116 -127 -162 -264 -162c-139 0 -226 35 -226 142c0 82 68 132 135 152c-42 7 -61 30 -61 67c0 32 20 53 42 68c-52 29 -70 83 -70 154
c0 108 43 177 182 177c22 0 41 -2 59 -5h172v-27l-109 2c44 -30 60 -82 60 -147c0 -108 -43 -177 -182 -177zM43 -113c0 -89 69 -115 195 -115c120 0 233 36 233 135c0 60 -23 90 -96 100l-186 25c-60 -17 -146 -57 -146 -145zM240 479c-130 0 -153 -72 -153 -151
s23 -151 153 -151s153 72 153 151s-23 151 -153 151z" />
    <glyph glyph-name="h" unicode="h" horiz-adv-x="504" 
d="M70 0v750h30v-288c44 27 119 43 175 43c117 0 164 -40 164 -140v-365h-32v368c0 88 -49 110 -132 110c-70 0 -130 -13 -175 -41v-437h-30z" />
    <glyph glyph-name="i" unicode="i" horiz-adv-x="240" 
d="M175 19v-24c-53 0 -76 24 -76 73v432h30v-430c0 -38 10 -51 46 -51zM84 650c0 16 13 30 30 30c16 0 30 -14 30 -30c0 -17 -14 -30 -30 -30c-17 0 -30 13 -30 30z" />
    <glyph glyph-name="j" unicode="j" horiz-adv-x="230" 
d="M-39 -255v27c75 0 138 23 138 101v627h30v-621c0 -90 -56 -134 -168 -134zM84 650c0 16 13 30 30 30c16 0 30 -14 30 -30c0 -17 -14 -30 -30 -30c-17 0 -30 13 -30 30z" />
    <glyph glyph-name="k" unicode="k" horiz-adv-x="468" 
d="M415 500l-209 -201l247 -299h-40l-226 280l-89 -83l2 -197h-30v750h30l-2 -517l278 267h39z" />
    <glyph glyph-name="l" unicode="l" horiz-adv-x="240" 
d="M175 19v-24c-53 0 -76 24 -76 73v682h30v-680c0 -38 10 -51 46 -51z" />
    <glyph glyph-name="m" unicode="m" horiz-adv-x="769" 
d="M371 0v378c0 86 -35 100 -110 100c-66 0 -114 -13 -159 -41v-437h-32v500h15l14 -39c44 28 109 44 162 44c70 0 108 -17 127 -53c61 38 124 53 174 53c108 0 142 -40 142 -130v-375h-32v378c0 86 -35 100 -110 100c-61 0 -113 -16 -165 -49c4 -16 6 -34 6 -54v-375h-32z
" />
    <glyph glyph-name="n" unicode="n" horiz-adv-x="506" 
d="M409 0v368c0 88 -49 110 -132 110c-70 0 -130 -13 -175 -41v-437h-32v500h15l14 -39c44 28 121 44 178 44c117 0 164 -40 164 -140v-365h-32z" />
    <glyph glyph-name="o" unicode="o" horiz-adv-x="532" 
d="M60 250c0 147 31 255 206 255s206 -108 206 -255s-31 -255 -206 -255s-206 108 -206 255zM91 250c0 -126 18 -228 175 -228s175 102 175 228s-18 228 -175 228s-175 -102 -175 -228z" />
    <glyph glyph-name="p" unicode="p" horiz-adv-x="539" 
d="M272 -5c-56 0 -128 14 -172 42v-287h-30v750h13l14 -39c44 29 118 44 175 44c166 0 207 -111 207 -255s-41 -255 -207 -255zM272 478c-70 0 -127 -14 -172 -42v-372c45 -28 102 -42 172 -42c149 0 176 115 176 228s-27 228 -176 228z" />
    <glyph glyph-name="q" unicode="q" horiz-adv-x="539" 
d="M267 -5c-166 0 -207 111 -207 255s41 255 207 255c57 0 131 -15 175 -44l14 39h13v-750h-30v287c-44 -28 -116 -42 -172 -42zM267 478c-149 0 -176 -115 -176 -228s27 -228 176 -228c70 0 127 14 172 42v372c-45 28 -102 42 -172 42z" />
    <glyph glyph-name="r" unicode="r" horiz-adv-x="354" 
d="M324 502v-27c-14 2 -30 3 -47 3c-70 0 -130 -13 -175 -41v-437h-32v500h15l14 -39c44 28 121 44 178 44c17 0 33 -1 47 -3z" />
    <glyph glyph-name="s" unicode="s" horiz-adv-x="452" 
d="M201 22c130 0 166 51 166 112c0 73 -23 98 -140 112c-132 16 -162 47 -162 125c0 77 44 134 181 134c44 0 99 -7 139 -20v-27c-37 10 -75 20 -139 20c-115 0 -151 -39 -151 -107c0 -72 33 -86 139 -99c130 -16 163 -48 163 -137c0 -72 -43 -140 -196 -140
c-44 0 -99 7 -139 20v27c37 -10 75 -20 139 -20z" />
    <glyph glyph-name="t" unicode="t" horiz-adv-x="370" 
d="M300 19v-24h-12c-112 0 -168 44 -168 134v344h-95v17l95 11v149l30 4v-154h171v-27h-171v-352c0 -78 63 -102 138 -102h12z" />
    <glyph glyph-name="u" unicode="u" horiz-adv-x="506" 
d="M97 500v-368c0 -88 49 -110 132 -110c70 0 130 13 175 41v437h32v-500h-15l-14 39c-44 -28 -121 -44 -178 -44c-117 0 -164 40 -164 140v365h32z" />
    <glyph glyph-name="v" unicode="v" horiz-adv-x="462" 
d="M25 500h36l170 -452l171 452h35l-199 -505h-14z" />
    <glyph glyph-name="w" unicode="w" horiz-adv-x="666" 
d="M351 500l137 -453l119 453h34l-141 -505h-24l-143 466l-143 -466h-24l-141 505h34l119 -453l137 453h36z" />
    <glyph glyph-name="x" unicode="x" horiz-adv-x="428" 
d="M214 235l-163 -235h-36l183 258l-171 242h35l152 -220l152 220h35l-171 -242l183 -258h-36z" />
    <glyph glyph-name="y" unicode="y" horiz-adv-x="462" 
d="M25 500h36l170 -458l171 458h35l-293 -750h-34l107 255z" />
    <glyph glyph-name="z" unicode="z" horiz-adv-x="448" 
d="M413 0h-378v19l333 457h-317v24h352v-19l-334 -457h344v-24z" />
    <glyph glyph-name="aacute" unicode="&#xe1;" horiz-adv-x="492" 
d="M244 478c-71 0 -125 -14 -144 -21v27c28 10 85 21 144 21c153 0 183 -62 183 -160v-345h-15l-14 39c-42 -30 -119 -44 -169 -44c-129 0 -174 73 -174 153c0 76 36 143 175 152l165 10v36c0 94 -30 132 -151 132zM395 284l-177 -12c-101 -7 -132 -58 -132 -124
c0 -59 23 -126 145 -126c63 0 120 19 164 46v216zM254 550h-20l70 200h35z" />
    <glyph glyph-name="agrave" unicode="&#xe0;" horiz-adv-x="492" 
d="M244 478c-71 0 -125 -14 -144 -21v27c28 10 85 21 144 21c153 0 183 -62 183 -160v-345h-15l-14 39c-42 -30 -119 -44 -169 -44c-129 0 -174 73 -174 153c0 76 36 143 175 152l165 10v36c0 94 -30 132 -151 132zM395 284l-177 -12c-101 -7 -132 -58 -132 -124
c0 -59 23 -126 145 -126c63 0 120 19 164 46v216zM254 550h-20l-85 200h35z" />
    <glyph glyph-name="acircumflex" unicode="&#xe2;" horiz-adv-x="492" 
d="M244 478c-71 0 -125 -14 -144 -21v27c28 10 85 21 144 21c153 0 183 -62 183 -160v-345h-15l-14 39c-42 -30 -119 -44 -169 -44c-129 0 -174 73 -174 153c0 76 36 143 175 152l165 10v36c0 94 -30 132 -151 132zM395 284l-177 -12c-101 -7 -132 -58 -132 -124
c0 -59 23 -126 145 -126c63 0 120 19 164 46v216zM103 550h-24l150 200h30l150 -200h-24l-141 168z" />
    <glyph glyph-name="adieresis" unicode="&#xe4;" horiz-adv-x="492" 
d="M244 478c-71 0 -125 -14 -144 -21v27c28 10 85 21 144 21c153 0 183 -62 183 -160v-345h-15l-14 39c-42 -30 -119 -44 -169 -44c-129 0 -174 73 -174 153c0 76 36 143 175 152l165 10v36c0 94 -30 132 -151 132zM395 284l-177 -12c-101 -7 -132 -58 -132 -124
c0 -59 23 -126 145 -126c63 0 120 19 164 46v216zM119 650c0 16 13 30 30 30c16 0 30 -14 30 -30c0 -17 -14 -30 -30 -30c-17 0 -30 13 -30 30zM309 650c0 16 13 30 30 30c16 0 30 -14 30 -30c0 -17 -14 -30 -30 -30c-17 0 -30 13 -30 30z" />
    <glyph glyph-name="atilde" unicode="&#xe3;" horiz-adv-x="492" 
d="M244 478c-71 0 -125 -14 -144 -21v27c28 10 85 21 144 21c153 0 183 -62 183 -160v-345h-15l-14 39c-42 -30 -119 -44 -169 -44c-129 0 -174 73 -174 153c0 76 36 143 175 152l165 10v36c0 94 -30 132 -151 132zM395 284l-177 -12c-101 -7 -132 -58 -132 -124
c0 -59 23 -126 145 -126c63 0 120 19 164 46v216zM374 691h28c-4 -58 -36 -88 -87 -88c-72 0 -83 69 -141 69c-35 0 -58 -18 -60 -63h-28c4 58 36 88 87 88c72 0 83 -69 141 -69c35 0 58 18 60 63z" />
    <glyph glyph-name="aring" unicode="&#xe5;" horiz-adv-x="492" 
d="M244 478c-71 0 -125 -14 -144 -21v27c28 10 85 21 144 21c153 0 183 -62 183 -160v-345h-15l-14 39c-42 -30 -119 -44 -169 -44c-129 0 -174 73 -174 153c0 76 36 143 175 152l165 10v36c0 94 -30 132 -151 132zM395 284l-177 -12c-101 -7 -132 -58 -132 -124
c0 -59 23 -126 145 -126c63 0 120 19 164 46v216zM337 650c0 -65 -37 -92 -93 -92c-57 0 -94 27 -94 92c0 66 37 93 94 93c56 0 93 -27 93 -93zM312 650c0 52 -28 69 -68 69c-41 0 -70 -17 -70 -69s29 -69 70 -69c40 0 68 17 68 69z" />
    <glyph glyph-name="acaron" unicode="&#x1ce;" horiz-adv-x="492" 
d="M244 478c-71 0 -125 -14 -144 -21v27c28 10 85 21 144 21c153 0 183 -62 183 -160v-345h-15l-14 39c-42 -30 -119 -44 -169 -44c-129 0 -174 73 -174 153c0 76 36 143 175 152l165 10v36c0 94 -30 132 -151 132zM395 284l-177 -12c-101 -7 -132 -58 -132 -124
c0 -59 23 -126 145 -126c63 0 120 19 164 46v216zM385 750h24l-150 -200h-30l-150 200h24l141 -168z" />
    <glyph glyph-name="amacron" unicode="&#x101;" horiz-adv-x="492" 
d="M244 478c-71 0 -125 -14 -144 -21v27c28 10 85 21 144 21c153 0 183 -62 183 -160v-345h-15l-14 39c-42 -30 -119 -44 -169 -44c-129 0 -174 73 -174 153c0 76 36 143 175 152l165 10v36c0 94 -30 132 -151 132zM395 284l-177 -12c-101 -7 -132 -58 -132 -124
c0 -59 23 -126 145 -126c63 0 120 19 164 46v216zM381 637h-274v27h274v-27z" />
    <glyph glyph-name="abreve" unicode="&#x103;" horiz-adv-x="492" 
d="M244 478c-71 0 -125 -14 -144 -21v27c28 10 85 21 144 21c153 0 183 -62 183 -160v-345h-15l-14 39c-42 -30 -119 -44 -169 -44c-129 0 -174 73 -174 153c0 76 36 143 175 152l165 10v36c0 94 -30 132 -151 132zM395 284l-177 -12c-101 -7 -132 -58 -132 -124
c0 -59 23 -126 145 -126c63 0 120 19 164 46v216zM244 550c-115 0 -175 66 -175 200h21c4 -111 47 -173 154 -173s150 62 154 173h21c0 -134 -60 -200 -175 -200z" />
    <glyph glyph-name="ainvertedbreve" unicode="&#x203;" horiz-adv-x="492" 
d="M244 478c-71 0 -125 -14 -144 -21v27c28 10 85 21 144 21c153 0 183 -62 183 -160v-345h-15l-14 39c-42 -30 -119 -44 -169 -44c-129 0 -174 73 -174 153c0 76 36 143 175 152l165 10v36c0 94 -30 132 -151 132zM395 284l-177 -12c-101 -7 -132 -58 -132 -124
c0 -59 23 -126 145 -126c63 0 120 19 164 46v216zM244 750c115 0 175 -66 175 -200h-21c-4 111 -47 173 -154 173s-150 -62 -154 -173h-21c0 134 60 200 175 200z" />
    <glyph glyph-name="adoublegrave" unicode="&#xe025;" horiz-adv-x="492" 
d="M244 478c-71 0 -125 -14 -144 -21v27c28 10 85 21 144 21c153 0 183 -62 183 -160v-345h-15l-14 39c-42 -30 -119 -44 -169 -44c-129 0 -174 73 -174 153c0 76 36 143 175 152l165 10v36c0 94 -30 132 -151 132zM395 284l-177 -12c-101 -7 -132 -58 -132 -124
c0 -59 23 -126 145 -126c63 0 120 19 164 46v216zM304 550h-20l-85 200h35zM204 550h-20l-85 200h35z" />
    <glyph glyph-name="adotabove" unicode="&#xe026;" horiz-adv-x="492" 
d="M244 478c-71 0 -125 -14 -144 -21v27c28 10 85 21 144 21c153 0 183 -62 183 -160v-345h-15l-14 39c-42 -30 -119 -44 -169 -44c-129 0 -174 73 -174 153c0 76 36 143 175 152l165 10v36c0 94 -30 132 -151 132zM395 284l-177 -12c-101 -7 -132 -58 -132 -124
c0 -59 23 -126 145 -126c63 0 120 19 164 46v216zM214 650c0 16 13 30 30 30c16 0 30 -14 30 -30c0 -17 -14 -30 -30 -30c-17 0 -30 13 -30 30z" />
    <glyph glyph-name="aringacute" unicode="&#x1fb;" horiz-adv-x="492" 
d="M244 478c-71 0 -125 -14 -144 -21v27c28 10 85 21 144 21c153 0 183 -62 183 -160v-345h-15l-14 39c-42 -30 -119 -44 -169 -44c-129 0 -174 73 -174 153c0 76 36 143 175 152l165 10v36c0 94 -30 132 -151 132zM395 284l-177 -12c-101 -7 -132 -58 -132 -124
c0 -59 23 -126 145 -126c63 0 120 19 164 46v216zM337 650c0 -65 -37 -92 -93 -92c-57 0 -93 27 -93 92c0 17 3 34 9 48l62 140h29l-51 -103c16 7 28 8 44 8c56 0 93 -27 93 -93zM312 650c0 52 -28 69 -68 69c-41 0 -68 -17 -68 -69s27 -69 68 -69c40 0 68 17 68 69z" />
    <glyph glyph-name="adieresismacron" unicode="&#x1df;" horiz-adv-x="492" 
d="M244 478c-71 0 -125 -14 -144 -21v27c28 10 85 21 144 21c153 0 183 -62 183 -160v-345h-15l-14 39c-42 -30 -119 -44 -169 -44c-129 0 -174 73 -174 153c0 76 36 143 175 152l165 10v36c0 94 -30 132 -151 132zM395 284l-177 -12c-101 -7 -132 -58 -132 -124
c0 -59 23 -126 145 -126c63 0 120 19 164 46v216zM119 615c0 16 13 30 30 30c16 0 30 -14 30 -30c0 -17 -14 -30 -30 -30c-17 0 -30 13 -30 30zM309 615c0 16 13 30 30 30c16 0 30 -14 30 -30c0 -17 -14 -30 -30 -30c-17 0 -30 13 -30 30zM381 707h-274v27h274v-27z" />
    <glyph glyph-name="aogonek" unicode="&#x105;" horiz-adv-x="492" 
d="M244 478c-71 0 -125 -14 -144 -21v27c28 10 85 21 144 21c153 0 183 -62 183 -160v-345c-34 -14 -124 -67 -124 -149c0 -53 21 -77 70 -77c23 0 43 6 59 11v-25c-15 -5 -36 -10 -66 -10c-49 0 -89 30 -89 96c0 84 66 135 130 168l-9 25c-42 -30 -119 -44 -169 -44
c-129 0 -174 73 -174 153c0 76 36 143 175 152l165 10v36c0 94 -30 132 -151 132zM395 284l-177 -12c-101 -7 -132 -58 -132 -124c0 -59 23 -126 145 -126c63 0 120 19 164 46v216z" />
    <glyph glyph-name="ae" unicode="&#xe6;" horiz-adv-x="837" 
d="M593 22c74 0 122 13 159 25v-27c-39 -15 -105 -25 -159 -25c-83 0 -135 26 -166 72c-9 -8 -21 -17 -38 -28c-43 -28 -119 -44 -169 -44c-129 0 -174 63 -174 143s46 126 185 126h155v82c0 94 -30 132 -151 132c-71 0 -125 -14 -144 -21v27c28 10 85 21 144 21
c118 0 162 -37 177 -99c28 62 82 99 181 99c166 0 184 -108 184 -255v-14h-360c2 -113 33 -214 176 -214zM386 236h-167c-101 0 -142 -32 -142 -98c0 -59 23 -116 145 -116c63 0 120 19 164 46c12 7 20 15 27 23c-19 39 -26 89 -27 145zM417 264h330c0 109 -11 214 -154 214
s-174 -101 -176 -214z" />
    <glyph glyph-name="aeacute" unicode="&#x1fd;" horiz-adv-x="837" 
d="M593 22c74 0 122 13 159 25v-27c-39 -15 -105 -25 -159 -25c-83 0 -135 26 -166 72c-9 -8 -21 -17 -38 -28c-43 -28 -119 -44 -169 -44c-129 0 -174 63 -174 143s46 126 185 126h155v82c0 94 -30 132 -151 132c-71 0 -125 -14 -144 -21v27c28 10 85 21 144 21
c118 0 162 -37 177 -99c28 62 82 99 181 99c166 0 184 -108 184 -255v-14h-360c2 -113 33 -214 176 -214zM386 236h-167c-101 0 -142 -32 -142 -98c0 -59 23 -116 145 -116c63 0 120 19 164 46c12 7 20 15 27 23c-19 39 -26 89 -27 145zM417 264h330c0 109 -11 214 -154 214
s-174 -101 -176 -214zM421 550h-20l60 200h35z" />
    <glyph glyph-name="aemacron" unicode="&#x1e3;" horiz-adv-x="837" 
d="M593 22c74 0 122 13 159 25v-27c-39 -15 -105 -25 -159 -25c-83 0 -135 26 -166 72c-9 -8 -21 -17 -38 -28c-43 -28 -119 -44 -169 -44c-129 0 -174 63 -174 143s46 126 185 126h155v82c0 94 -30 132 -151 132c-71 0 -125 -14 -144 -21v27c28 10 85 21 144 21
c118 0 162 -37 177 -99c28 62 82 99 181 99c166 0 184 -108 184 -255v-14h-360c2 -113 33 -214 176 -214zM386 236h-167c-101 0 -142 -32 -142 -98c0 -59 23 -116 145 -116c63 0 120 19 164 46c12 7 20 15 27 23c-19 39 -26 89 -27 145zM417 264h330c0 109 -11 214 -154 214
s-174 -101 -176 -214zM548 637h-274v27h274v-27z" />
    <glyph glyph-name="cacute" unicode="&#x107;" horiz-adv-x="456" 
d="M60 250c0 149 41 255 207 255c44 0 99 -7 139 -20v-27c-37 10 -75 20 -139 20c-149 0 -176 -110 -176 -228s27 -228 176 -228c64 0 102 10 139 20v-27c-40 -13 -95 -20 -139 -20c-166 0 -207 106 -207 255zM277 550h-20l60 200h35z" />
    <glyph glyph-name="ccircumflex" unicode="&#x109;" horiz-adv-x="456" 
d="M60 250c0 149 41 255 207 255c44 0 99 -7 139 -20v-27c-37 10 -75 20 -139 20c-149 0 -176 -110 -176 -228s27 -228 176 -228c64 0 102 10 139 20v-27c-40 -13 -95 -20 -139 -20c-166 0 -207 106 -207 255zM126 550h-24l150 200h30l150 -200h-24l-141 168z" />
    <glyph glyph-name="ccaron" unicode="&#x10d;" horiz-adv-x="456" 
d="M60 250c0 149 41 255 207 255c44 0 99 -7 139 -20v-27c-37 10 -75 20 -139 20c-149 0 -176 -110 -176 -228s27 -228 176 -228c64 0 102 10 139 20v-27c-40 -13 -95 -20 -139 -20c-166 0 -207 106 -207 255zM408 750h24l-150 -200h-30l-150 200h24l141 -168z" />
    <glyph glyph-name="cdotaccent" unicode="&#x10b;" horiz-adv-x="456" 
d="M60 250c0 149 41 255 207 255c44 0 99 -7 139 -20v-27c-37 10 -75 20 -139 20c-149 0 -176 -110 -176 -228s27 -228 176 -228c64 0 102 10 139 20v-27c-40 -13 -95 -20 -139 -20c-166 0 -207 106 -207 255zM237 650c0 16 13 30 30 30c16 0 30 -14 30 -30
c0 -17 -14 -30 -30 -30c-17 0 -30 13 -30 30z" />
    <glyph glyph-name="ccedilla" unicode="&#xe7;" horiz-adv-x="456" 
d="M60 250c0 149 41 255 207 255c44 0 99 -7 139 -20v-27c-37 10 -75 20 -139 20c-149 0 -176 -110 -176 -228s27 -228 176 -228c64 0 102 10 139 20v-27c-40 -13 -95 -20 -139 -20l4 -67c45 -9 97 -42 97 -94c0 -51 -40 -84 -104 -84c-44 0 -69 10 -82 16v27
c17 -6 44 -16 75 -16c58 0 81 23 81 55c0 46 -37 67 -96 78l6 86c-150 7 -188 110 -188 254z" />
    <glyph glyph-name="dcaron" unicode="&#x10f;" horiz-adv-x="539" 
d="M267 505c56 0 128 -14 172 -42v287h30v-750h-13l-14 39c-44 -29 -118 -44 -175 -44c-166 0 -207 111 -207 255s41 255 207 255zM267 22c70 0 127 14 172 42v372c-45 28 -102 42 -172 42c-149 0 -176 -115 -176 -228s27 -228 176 -228zM545 750h34l-40 -200h-20z" />
    <glyph glyph-name="dcedilla" unicode="&#x1e11;" horiz-adv-x="539" 
d="M267 505c56 0 128 -14 172 -42v287h30v-750h-13l-14 39c-44 -29 -118 -44 -175 -44c-166 0 -207 111 -207 255s41 255 207 255zM267 22c70 0 127 14 172 42v372c-45 28 -102 42 -172 42c-149 0 -176 -115 -176 -228s27 -228 176 -228zM251 -90l2 24
c77 -12 124 -50 124 -100c0 -51 -40 -84 -104 -84c-44 0 -69 10 -82 16v27c17 -6 44 -16 75 -16c58 0 81 23 81 55c0 46 -37 67 -96 78z" />
    <glyph glyph-name="ddotbelow" unicode="&#x1e0d;" horiz-adv-x="539" 
d="M267 505c56 0 128 -14 172 -42v287h30v-750h-13l-14 39c-44 -29 -118 -44 -175 -44c-166 0 -207 111 -207 255s41 255 207 255zM267 22c70 0 127 14 172 42v372c-45 28 -102 42 -172 42c-149 0 -176 -115 -176 -228s27 -228 176 -228zM237 -150c0 16 13 30 30 30
c16 0 30 -14 30 -30c0 -17 -14 -30 -30 -30c-17 0 -30 13 -30 30z" />
    <glyph glyph-name="dcroat" unicode="&#x111;" horiz-adv-x="539" 
d="M267 642h172v108h30v-108h102v-23h-102v-619h-13l-14 39c-44 -29 -118 -44 -175 -44c-166 0 -207 111 -207 255s41 255 207 255c56 0 128 -14 172 -42v156h-172v23zM267 22c70 0 127 14 172 42v372c-45 28 -102 42 -172 42c-149 0 -176 -115 -176 -228s27 -228 176 -228z
" />
    <glyph glyph-name="eacute" unicode="&#xe9;" horiz-adv-x="511" 
d="M267 22c74 0 122 13 159 25v-27c-39 -15 -105 -25 -159 -25c-166 0 -207 106 -207 255s41 255 207 255s184 -108 184 -255v-14h-360c2 -113 33 -214 176 -214zM91 264h330c0 109 -11 214 -154 214s-174 -101 -176 -214zM277 550h-20l60 200h35z" />
    <glyph glyph-name="egrave" unicode="&#xe8;" horiz-adv-x="511" 
d="M267 22c74 0 122 13 159 25v-27c-39 -15 -105 -25 -159 -25c-166 0 -207 106 -207 255s41 255 207 255s184 -108 184 -255v-14h-360c2 -113 33 -214 176 -214zM91 264h330c0 109 -11 214 -154 214s-174 -101 -176 -214zM277 550h-20l-75 200h35z" />
    <glyph glyph-name="ecircumflex" unicode="&#xea;" horiz-adv-x="511" 
d="M267 22c74 0 122 13 159 25v-27c-39 -15 -105 -25 -159 -25c-166 0 -207 106 -207 255s41 255 207 255s184 -108 184 -255v-14h-360c2 -113 33 -214 176 -214zM91 264h330c0 109 -11 214 -154 214s-174 -101 -176 -214zM126 550h-24l150 200h30l150 -200h-24l-141 168z
" />
    <glyph glyph-name="edieresis" unicode="&#xeb;" horiz-adv-x="511" 
d="M267 22c74 0 122 13 159 25v-27c-39 -15 -105 -25 -159 -25c-166 0 -207 106 -207 255s41 255 207 255s184 -108 184 -255v-14h-360c2 -113 33 -214 176 -214zM91 264h330c0 109 -11 214 -154 214s-174 -101 -176 -214zM142 650c0 16 13 30 30 30c16 0 30 -14 30 -30
c0 -17 -14 -30 -30 -30c-17 0 -30 13 -30 30zM332 650c0 16 13 30 30 30c16 0 30 -14 30 -30c0 -17 -14 -30 -30 -30c-17 0 -30 13 -30 30z" />
    <glyph glyph-name="ecaron" unicode="&#x11b;" horiz-adv-x="511" 
d="M267 22c74 0 122 13 159 25v-27c-39 -15 -105 -25 -159 -25c-166 0 -207 106 -207 255s41 255 207 255s184 -108 184 -255v-14h-360c2 -113 33 -214 176 -214zM91 264h330c0 109 -11 214 -154 214s-174 -101 -176 -214zM408 750h24l-150 -200h-30l-150 200h24l141 -168z
" />
    <glyph glyph-name="emacron" unicode="&#x113;" horiz-adv-x="511" 
d="M267 22c74 0 122 13 159 25v-27c-39 -15 -105 -25 -159 -25c-166 0 -207 106 -207 255s41 255 207 255s184 -108 184 -255v-14h-360c2 -113 33 -214 176 -214zM91 264h330c0 109 -11 214 -154 214s-174 -101 -176 -214zM404 637h-274v27h274v-27z" />
    <glyph glyph-name="ebreve" unicode="&#x115;" horiz-adv-x="511" 
d="M267 22c74 0 122 13 159 25v-27c-39 -15 -105 -25 -159 -25c-166 0 -207 106 -207 255s41 255 207 255s184 -108 184 -255v-14h-360c2 -113 33 -214 176 -214zM91 264h330c0 109 -11 214 -154 214s-174 -101 -176 -214zM267 550c-115 0 -175 66 -175 200h21
c4 -111 47 -173 154 -173s150 62 154 173h21c0 -134 -60 -200 -175 -200z" />
    <glyph glyph-name="einvertedbreve" unicode="&#x207;" horiz-adv-x="511" 
d="M267 22c74 0 122 13 159 25v-27c-39 -15 -105 -25 -159 -25c-166 0 -207 106 -207 255s41 255 207 255s184 -108 184 -255v-14h-360c2 -113 33 -214 176 -214zM91 264h330c0 109 -11 214 -154 214s-174 -101 -176 -214zM267 750c115 0 175 -66 175 -200h-21
c-4 111 -47 173 -154 173s-150 -62 -154 -173h-21c0 134 60 200 175 200z" />
    <glyph glyph-name="edoublegrave" unicode="&#xe027;" horiz-adv-x="511" 
d="M267 22c74 0 122 13 159 25v-27c-39 -15 -105 -25 -159 -25c-166 0 -207 106 -207 255s41 255 207 255s184 -108 184 -255v-14h-360c2 -113 33 -214 176 -214zM91 264h330c0 109 -11 214 -154 214s-174 -101 -176 -214zM327 550h-20l-75 200h35zM227 550h-20l-75 200h35z
" />
    <glyph glyph-name="edotaccent" unicode="&#x117;" horiz-adv-x="511" 
d="M267 22c74 0 122 13 159 25v-27c-39 -15 -105 -25 -159 -25c-166 0 -207 106 -207 255s41 255 207 255s184 -108 184 -255v-14h-360c2 -113 33 -214 176 -214zM91 264h330c0 109 -11 214 -154 214s-174 -101 -176 -214zM237 650c0 16 13 30 30 30c16 0 30 -14 30 -30
c0 -17 -14 -30 -30 -30c-17 0 -30 13 -30 30z" />
    <glyph glyph-name="eacutedotbelow" unicode="&#xe028;" horiz-adv-x="511" 
d="M267 22c74 0 122 13 159 25v-27c-39 -15 -105 -25 -159 -25c-166 0 -207 106 -207 255s41 255 207 255s184 -108 184 -255v-14h-360c2 -113 33 -214 176 -214zM91 264h330c0 109 -11 214 -154 214s-174 -101 -176 -214zM237 -150c0 16 13 30 30 30c16 0 30 -14 30 -30
c0 -17 -14 -30 -30 -30c-17 0 -30 13 -30 30zM277 550h-20l60 200h35z" />
    <glyph glyph-name="egravedotbelow" unicode="&#xe029;" horiz-adv-x="511" 
d="M267 22c74 0 122 13 159 25v-27c-39 -15 -105 -25 -159 -25c-166 0 -207 106 -207 255s41 255 207 255s184 -108 184 -255v-14h-360c2 -113 33 -214 176 -214zM91 264h330c0 109 -11 214 -154 214s-174 -101 -176 -214zM237 -150c0 16 13 30 30 30c16 0 30 -14 30 -30
c0 -17 -14 -30 -30 -30c-17 0 -30 13 -30 30zM277 550h-20l-75 200h35z" />
    <glyph glyph-name="eogonek" unicode="&#x119;" horiz-adv-x="511" 
d="M267 22c74 0 122 13 159 25v-27c-23 -9 -54 -16 -87 -20c-34 -14 -124 -67 -124 -149c0 -53 21 -77 70 -77c23 0 43 6 59 11v-25c-15 -5 -36 -10 -66 -10c-49 0 -89 30 -89 96c0 69 45 117 97 150c-7 -1 -13 -1 -19 -1c-166 0 -207 106 -207 255s41 255 207 255
s184 -108 184 -255v-14h-360c2 -113 33 -214 176 -214zM91 264h330c0 109 -11 214 -154 214s-174 -101 -176 -214z" />
    <glyph glyph-name="gacute" unicode="&#x1f5;" horiz-adv-x="520" 
d="M240 151c-35 0 -64 4 -88 13c-21 -13 -37 -30 -37 -58c0 -34 30 -41 54 -44l211 -29c88 -12 122 -53 122 -126c0 -116 -127 -162 -264 -162c-139 0 -226 35 -226 142c0 82 68 132 135 152c-42 7 -61 30 -61 67c0 32 20 53 42 68c-52 29 -70 83 -70 154
c0 108 43 177 182 177c22 0 41 -2 59 -5h172v-27l-109 2c44 -30 60 -82 60 -147c0 -108 -43 -177 -182 -177zM43 -113c0 -89 69 -115 195 -115c120 0 233 36 233 135c0 60 -23 90 -96 100l-186 25c-60 -17 -146 -57 -146 -145zM240 479c-130 0 -153 -72 -153 -151
s23 -151 153 -151s153 72 153 151s-23 151 -153 151zM250 550h-20l60 200h35z" />
    <glyph glyph-name="gcircumflex" unicode="&#x11d;" horiz-adv-x="520" 
d="M240 151c-36 0 -64 4 -88 13c-21 -13 -37 -30 -37 -58c0 -34 30 -41 54 -44l211 -29c88 -12 122 -53 122 -126c0 -116 -127 -162 -264 -162c-139 0 -226 35 -226 142c0 82 68 132 135 152c-42 7 -61 30 -61 67c0 32 20 53 42 68c-52 29 -70 83 -70 154
c0 108 43 177 182 177c22 0 41 -2 59 -5h172v-27l-109 2c44 -30 60 -82 60 -147c0 -108 -43 -177 -182 -177zM43 -113c0 -89 69 -115 195 -115c120 0 233 36 233 135c0 60 -23 90 -96 100l-186 25c-60 -17 -146 -57 -146 -145zM240 479c-130 0 -153 -72 -153 -151
s23 -151 153 -151s153 72 153 151s-23 151 -153 151zM99 550h-24l145 200h40l145 -200h-24l-141 168z" />
    <glyph glyph-name="gtilde" unicode="&#xe02a;" horiz-adv-x="520" 
d="M240 151c-36 0 -64 4 -88 13c-21 -13 -37 -30 -37 -58c0 -34 30 -41 54 -44l211 -29c88 -12 122 -53 122 -126c0 -116 -127 -162 -264 -162c-139 0 -226 35 -226 142c0 82 68 132 135 152c-42 7 -61 30 -61 67c0 32 20 53 42 68c-52 29 -70 83 -70 154
c0 108 43 177 182 177c22 0 41 -2 59 -5h172v-27l-109 2c44 -30 60 -82 60 -147c0 -108 -43 -177 -182 -177zM43 -113c0 -89 69 -115 195 -115c120 0 233 36 233 135c0 60 -23 90 -96 100l-186 25c-60 -17 -146 -57 -146 -145zM240 479c-130 0 -153 -72 -153 -151
s23 -151 153 -151s153 72 153 151s-23 151 -153 151zM370 691h28c-4 -58 -36 -88 -87 -88c-72 0 -83 69 -141 69c-35 0 -58 -18 -60 -63h-28c4 58 36 88 87 88c72 0 83 -69 141 -69c35 0 58 18 60 63z" />
    <glyph glyph-name="gcaron" unicode="&#x1e7;" horiz-adv-x="520" 
d="M240 151c-36 0 -64 4 -88 13c-21 -13 -37 -30 -37 -58c0 -34 30 -41 54 -44l211 -29c88 -12 122 -53 122 -126c0 -116 -127 -162 -264 -162c-139 0 -226 35 -226 142c0 82 68 132 135 152c-42 7 -61 30 -61 67c0 32 20 53 42 68c-52 29 -70 83 -70 154
c0 108 43 177 182 177c22 0 41 -2 59 -5h172v-27l-109 2c44 -30 60 -82 60 -147c0 -108 -43 -177 -182 -177zM43 -113c0 -89 69 -115 195 -115c120 0 233 36 233 135c0 60 -23 90 -96 100l-186 25c-60 -17 -146 -57 -146 -145zM240 479c-130 0 -153 -72 -153 -151
s23 -151 153 -151s153 72 153 151s-23 151 -153 151zM381 750h24l-150 -200h-30l-150 200h24l141 -168z" />
    <glyph glyph-name="gbreve" unicode="&#x11f;" horiz-adv-x="520" 
d="M240 151c-35 0 -64 4 -88 13c-21 -13 -37 -30 -37 -58c0 -34 30 -41 54 -44l211 -29c88 -12 122 -53 122 -126c0 -116 -127 -162 -264 -162c-139 0 -226 35 -226 142c0 82 68 132 135 152c-42 7 -61 30 -61 67c0 32 20 53 42 68c-52 29 -70 83 -70 154
c0 108 43 177 182 177c22 0 41 -2 59 -5h172v-27l-109 2c44 -30 60 -82 60 -147c0 -108 -43 -177 -182 -177zM43 -113c0 -89 69 -115 195 -115c120 0 233 36 233 135c0 60 -23 90 -96 100l-186 25c-60 -17 -146 -57 -146 -145zM240 479c-130 0 -153 -72 -153 -151
s23 -151 153 -151s153 72 153 151s-23 151 -153 151zM240 550c-115 0 -175 66 -175 200h21c4 -111 47 -173 154 -173s150 62 154 173h21c0 -134 -60 -200 -175 -200z" />
    <glyph glyph-name="gdotaccent" unicode="&#x121;" horiz-adv-x="520" 
d="M240 151c-36 0 -64 4 -88 13c-21 -13 -37 -30 -37 -58c0 -34 30 -41 54 -44l211 -29c88 -12 122 -53 122 -126c0 -116 -127 -162 -264 -162c-139 0 -226 35 -226 142c0 82 68 132 135 152c-42 7 -61 30 -61 67c0 32 20 53 42 68c-52 29 -70 83 -70 154
c0 108 43 177 182 177c22 0 41 -2 59 -5h172v-27l-109 2c44 -30 60 -82 60 -147c0 -108 -43 -177 -182 -177zM43 -113c0 -89 69 -115 195 -115c120 0 233 36 233 135c0 60 -23 90 -96 100l-186 25c-60 -17 -146 -57 -146 -145zM240 479c-130 0 -153 -72 -153 -151
s23 -151 153 -151s153 72 153 151s-23 151 -153 151zM210 650c0 16 13 30 30 30c16 0 30 -14 30 -30c0 -17 -14 -30 -30 -30c-17 0 -30 13 -30 30z" />
    <glyph glyph-name="gcommaaccent" unicode="&#x123;" horiz-adv-x="520" 
d="M240 151c-35 0 -64 4 -88 13c-21 -13 -37 -30 -37 -58c0 -34 30 -41 54 -44l211 -29c88 -12 122 -53 122 -126c0 -116 -127 -162 -264 -162c-139 0 -226 35 -226 142c0 82 68 132 135 152c-42 7 -61 30 -61 67c0 32 20 53 42 68c-52 29 -70 83 -70 154
c0 108 43 177 182 177c22 0 41 -2 59 -5h172v-27l-109 2c44 -30 60 -82 60 -147c0 -108 -43 -177 -182 -177zM43 -113c0 -89 69 -115 195 -115c120 0 233 36 233 135c0 60 -23 90 -96 100l-186 25c-60 -17 -146 -57 -146 -145zM240 479c-130 0 -153 -72 -153 -151
s23 -151 153 -151s153 72 153 151s-23 151 -153 151zM254 550h-37l43 200h20z" />
    <glyph glyph-name="gcommaturnedabove" unicode="&#xe02b;" horiz-adv-x="520" 
d="M240 151c-35 0 -64 4 -88 13c-21 -13 -37 -30 -37 -58c0 -34 30 -41 54 -44l211 -29c88 -12 122 -53 122 -126c0 -116 -127 -162 -264 -162c-139 0 -226 35 -226 142c0 82 68 132 135 152c-42 7 -61 30 -61 67c0 32 20 53 42 68c-52 29 -70 83 -70 154
c0 108 43 177 182 177c22 0 41 -2 59 -5h172v-27l-109 2c44 -30 60 -82 60 -147c0 -108 -43 -177 -182 -177zM43 -113c0 -89 69 -115 195 -115c120 0 233 36 233 135c0 60 -23 90 -96 100l-186 25c-60 -17 -146 -57 -146 -145zM240 479c-130 0 -153 -72 -153 -151
s23 -151 153 -151s153 72 153 151s-23 151 -153 151zM254 550h-37l43 200h20z" />
    <glyph glyph-name="gstroke" unicode="&#x1e5;" horiz-adv-x="520" 
d="M240 151c-35 0 -64 4 -88 13c-21 -13 -37 -30 -37 -58c0 -34 30 -41 54 -44l211 -29c85 -12 120 -50 122 -119h48v-25h-49c-13 -103 -134 -144 -263 -144c-139 0 -226 35 -226 142v2h-48v25h50c13 66 73 107 133 125c-42 7 -61 30 -61 67c0 32 20 53 42 68
c-52 29 -70 83 -70 154c0 108 43 177 182 177c22 0 41 -2 59 -5h172v-27l-109 2c44 -30 60 -82 60 -147c0 -108 -43 -177 -182 -177zM240 479c-130 0 -153 -72 -153 -151s23 -151 153 -151s153 72 153 151s-23 151 -153 151zM43 -113c0 -89 69 -115 195 -115
c112 0 218 32 231 117h-426v-2zM189 32c-54 -15 -128 -48 -143 -118h425c-2 56 -26 84 -96 93z" />
    <glyph glyph-name="hcircumflex" unicode="&#x125;" horiz-adv-x="504" 
d="M70 0v750h30v-288c44 27 119 43 175 43c117 0 164 -40 164 -140v-365h-32v368c0 88 -49 110 -132 110c-70 0 -130 -13 -175 -41v-437h-30zM-31 800h-29l128 100h34l128 -100h-29l-116 76z" />
    <glyph glyph-name="hcaron" unicode="&#xe02c;" horiz-adv-x="504" 
d="M70 0v750h30v-288c44 27 119 43 175 43c117 0 164 -40 164 -140v-365h-32v368c0 88 -49 110 -132 110c-70 0 -130 -13 -175 -41v-437h-30zM201 900h29l-128 -100h-34l-128 100h29l116 -76z" />
    <glyph glyph-name="hdotbelow" unicode="&#x1e25;" horiz-adv-x="504" 
d="M70 0v750h30v-288c44 27 119 43 175 43c117 0 164 -40 164 -140v-365h-32v368c0 88 -49 110 -132 110c-70 0 -130 -13 -175 -41v-437h-30zM224 -150c0 16 13 30 30 30c16 0 30 -14 30 -30c0 -17 -14 -30 -30 -30c-17 0 -30 13 -30 30z" />
    <glyph glyph-name="hmacronbelow" unicode="&#xe02d;" horiz-adv-x="504" 
d="M70 0v750h30v-288c44 27 119 43 175 43c117 0 164 -40 164 -140v-365h-32v368c0 88 -49 110 -132 110c-70 0 -130 -13 -175 -41v-437h-30zM117 -136h274v-27h-274v27z" />
    <glyph glyph-name="hbar" unicode="&#x127;" horiz-adv-x="504" 
d="M-32 642h102v108h30v-108h175v-23h-175v-157c44 27 119 43 175 43c117 0 164 -40 164 -140v-365h-32v368c0 88 -49 110 -132 110c-70 0 -130 -13 -175 -41v-437h-30v619h-102v23z" />
    <glyph glyph-name="dotlessi" unicode="&#x131;" horiz-adv-x="240" 
d="M175 19v-24c-53 0 -76 24 -76 73v432h30v-430c0 -38 10 -51 46 -51z" />
    <glyph glyph-name="iacute" unicode="&#xed;" horiz-adv-x="240" 
d="M175 19v-24c-53 0 -76 24 -76 73v432h30v-430c0 -38 10 -51 46 -51zM124 550h-20l60 200h35z" />
    <glyph glyph-name="igrave" unicode="&#xec;" horiz-adv-x="240" 
d="M175 19v-24c-53 0 -76 24 -76 73v432h30v-430c0 -38 10 -51 46 -51zM124 550h-20l-75 200h35z" />
    <glyph glyph-name="icircumflex" unicode="&#xee;" horiz-adv-x="240" 
d="M175 19v-24c-53 0 -76 24 -76 73v432h30v-430c0 -38 10 -51 46 -51zM-27 550h-24l150 200h30l150 -200h-24l-141 168z" />
    <glyph glyph-name="idieresis" unicode="&#xef;" horiz-adv-x="240" 
d="M175 19v-24c-53 0 -76 24 -76 73v432h30v-430c0 -38 10 -51 46 -51zM9 650c0 16 13 30 30 30c16 0 30 -14 30 -30c0 -17 -14 -30 -30 -30c-17 0 -30 13 -30 30zM159 650c0 16 13 30 30 30c16 0 30 -14 30 -30c0 -17 -14 -30 -30 -30c-17 0 -30 13 -30 30z" />
    <glyph glyph-name="itilde" unicode="&#x129;" horiz-adv-x="240" 
d="M175 19v-24c-53 0 -76 24 -76 73v432h30v-430c0 -38 10 -51 46 -51zM244 691h28c-4 -58 -36 -88 -87 -88c-72 0 -83 69 -141 69c-35 0 -58 -18 -60 -63h-28c4 58 36 88 87 88c72 0 83 -69 141 -69c35 0 58 18 60 63z" />
    <glyph glyph-name="icaron" unicode="&#x1d0;" horiz-adv-x="240" 
d="M175 19v-24c-53 0 -76 24 -76 73v432h30v-430c0 -38 10 -51 46 -51zM255 750h24l-150 -200h-30l-150 200h24l141 -168z" />
    <glyph glyph-name="imacron" unicode="&#x12b;" horiz-adv-x="240" 
d="M175 19v-24c-53 0 -76 24 -76 73v432h30v-430c0 -38 10 -51 46 -51zM251 637h-274v27h274v-27z" />
    <glyph glyph-name="ibreve" unicode="&#xe02e;" horiz-adv-x="240" 
d="M175 19v-24c-53 0 -76 24 -76 73v432h30v-430c0 -38 10 -51 46 -51zM114 550c-115 0 -175 66 -175 200h21c4 -111 47 -173 154 -173s150 62 154 173h21c0 -134 -60 -200 -175 -200z" />
    <glyph glyph-name="iinvertedbreve" unicode="&#x20b;" horiz-adv-x="240" 
d="M175 19v-24c-53 0 -76 24 -76 73v432h30v-430c0 -38 10 -51 46 -51zM114 750c115 0 175 -66 175 -200h-21c-4 111 -47 173 -154 173s-150 -62 -154 -173h-21c0 134 60 200 175 200z" />
    <glyph glyph-name="idoublegrave" unicode="&#xe02f;" horiz-adv-x="240" 
d="M175 19v-24c-53 0 -76 24 -76 73v432h30v-430c0 -38 10 -51 46 -51zM164 550h-20l-75 200h35zM84 550h-20l-75 200h35z" />
    <glyph glyph-name="idotaccent" unicode="&#xe030;" horiz-adv-x="240" 
d="M175 19v-24c-53 0 -76 24 -76 73v432h30v-430c0 -38 10 -51 46 -51zM84 650c0 16 13 30 30 30c16 0 30 -14 30 -30c0 -17 -14 -30 -30 -30c-17 0 -30 13 -30 30z" />
    <glyph glyph-name="idotbelow" unicode="&#x1ecb;" horiz-adv-x="240" 
d="M175 19v-24c-53 0 -76 24 -76 73v432h30v-430c0 -38 10 -51 46 -51zM90 -150c0 16 13 30 30 30c16 0 30 -14 30 -30c0 -17 -14 -30 -30 -30c-17 0 -30 13 -30 30zM84 650c0 16 13 30 30 30c16 0 30 -14 30 -30c0 -17 -14 -30 -30 -30c-17 0 -30 13 -30 30z" />
    <glyph glyph-name="iogonek" unicode="&#x12f;" horiz-adv-x="240" 
d="M175 19v-24c-39 -19 -113 -69 -113 -144c0 -53 21 -77 70 -77c23 0 43 6 59 11v-25c-15 -5 -36 -10 -66 -10c-49 0 -89 30 -89 96c0 72 49 121 104 154c-29 8 -41 31 -41 68v432h30v-430c0 -38 10 -51 46 -51zM84 650c0 16 13 30 30 30c16 0 30 -14 30 -30
c0 -17 -14 -30 -30 -30c-17 0 -30 13 -30 30z" />
    <glyph glyph-name="dotlessj" unicode="&#x237;" horiz-adv-x="240" 
d="M-39 -255v27c75 0 138 23 138 101v627h30v-621c0 -90 -56 -134 -168 -134z" />
    <glyph glyph-name="jcircumflex" unicode="&#x135;" horiz-adv-x="240" 
d="M-27 550h-24l150 200h30l150 -200h-24l-141 168zM-39 -255v27c75 0 138 23 138 101v627h30v-621c0 -90 -56 -134 -168 -134z" />
    <glyph glyph-name="jcaron" unicode="&#x1f0;" horiz-adv-x="240" 
d="M255 750h24l-150 -200h-30l-150 200h24l141 -168zM-39 -255v27c75 0 138 23 138 101v627h30v-621c0 -90 -56 -134 -168 -134z" />
    <glyph glyph-name="kcaron" unicode="&#x1e9;" horiz-adv-x="468" 
d="M201 900h29l-128 -100h-34l-128 100h29l116 -76zM415 500l-209 -201l247 -299h-40l-226 280l-89 -83l2 -197h-30v750h30l-2 -517l278 267h39z" />
    <glyph glyph-name="kcommaaccent" unicode="&#x137;" horiz-adv-x="468" 
d="M227 -50h37l-43 -200h-20zM415 500l-209 -201l247 -299h-40l-226 280l-89 -83l2 -197h-30v750h30l-2 -517l278 267h39z" />
    <glyph glyph-name="kcedilla" unicode="&#xe031;" horiz-adv-x="468" 
d="M215 -90l2 24c77 -12 124 -50 124 -100c0 -51 -40 -84 -104 -84c-44 0 -69 10 -82 16v27c17 -6 44 -16 75 -16c58 0 81 23 81 55c0 46 -37 67 -96 78zM415 500l-209 -201l247 -299h-40l-226 280l-89 -83l2 -197h-30v750h30l-2 -517l278 267h39z" />
    <glyph glyph-name="khook" unicode="&#x199;" horiz-adv-x="468" 
d="M238 760v-27c-75 0 -138 -23 -138 -101l-2 -399l278 267h39l-209 -201l247 -299h-40l-226 280l-89 -83l2 -197h-30v626c0 90 56 134 168 134z" />
    <glyph glyph-name="kgreenlandic" unicode="&#x138;" horiz-adv-x="468" 
d="M415 500l-209 -201l247 -299h-40l-226 280l-89 -83l2 -197h-30v500h30l-2 -267l278 267h39z" />
    <glyph glyph-name="lacute" unicode="&#x13a;" horiz-adv-x="240" 
d="M175 19v-24c-53 0 -76 24 -76 73v682h30v-680c0 -38 10 -51 46 -51zM127 800h-26l60 100h51z" />
    <glyph glyph-name="lcaron" unicode="&#x13e;" horiz-adv-x="240" 
d="M175 19v-24c-53 0 -76 24 -76 73v682h30v-680c0 -38 10 -51 46 -51zM230 750h34l-40 -200h-20z" />
    <glyph glyph-name="lcommaaccent" unicode="&#x13c;" horiz-adv-x="240" 
d="M175 19v-24c-53 0 -76 24 -76 73v682h30v-680c0 -38 10 -51 46 -51zM105 -50h37l-43 -200h-20z" />
    <glyph glyph-name="lcedilla" unicode="&#xe032;" horiz-adv-x="240" 
d="M175 19v-24c-53 0 -76 24 -76 73v682h30v-680c0 -38 10 -51 46 -51zM98 -90l2 24c77 -12 124 -50 124 -100c0 -51 -40 -84 -104 -84c-44 0 -69 10 -82 16v27c17 -6 44 -16 75 -16c58 0 81 23 81 55c0 46 -37 67 -96 78z" />
    <glyph glyph-name="ldotbelow" unicode="&#x1e37;" horiz-adv-x="240" 
d="M175 19v-24c-53 0 -76 24 -76 73v682h30v-680c0 -38 10 -51 46 -51zM84 -150c0 16 13 30 30 30c16 0 30 -14 30 -30c0 -17 -14 -30 -30 -30c-17 0 -30 13 -30 30z" />
    <glyph glyph-name="ldotbelowmacron" unicode="&#x1e39;" horiz-adv-x="240" 
d="M175 19v-24c-53 0 -76 24 -76 73v682h30v-680c0 -38 10 -51 46 -51zM84 -150c0 16 13 30 30 30c16 0 30 -14 30 -30c0 -17 -14 -30 -30 -30c-17 0 -30 13 -30 30zM252 837h-274v27h274v-27z" />
    <glyph glyph-name="ldot" unicode="&#x140;" horiz-adv-x="350" 
d="M175 19v-24c-53 0 -76 24 -76 73v682h30v-680c0 -38 10 -51 46 -51zM265 300c0 16 13 30 30 30c16 0 30 -14 30 -30c0 -17 -14 -30 -30 -30c-17 0 -30 13 -30 30z" />
    <glyph glyph-name="lslash" unicode="&#x142;" horiz-adv-x="240" 
d="M99 68v323l-90 -57v28l90 57v331h30v-311l100 64v-28l-100 -64v-341c0 -38 10 -51 46 -51v-24c-53 0 -76 24 -76 73z" />
    <glyph glyph-name="mmacron" unicode="&#xe033;" horiz-adv-x="769" 
d="M371 0v378c0 86 -35 100 -110 100c-66 0 -114 -13 -159 -41v-437h-32v500h15l14 -39c44 28 109 44 162 44c70 0 108 -17 127 -53c61 38 124 53 174 53c108 0 142 -40 142 -130v-375h-32v378c0 86 -35 100 -110 100c-61 0 -113 -16 -165 -49c4 -16 6 -34 6 -54v-375h-32z
M524 637h-274v27h274v-27z" />
    <glyph glyph-name="mcedilla" unicode="&#xe034;" horiz-adv-x="769" 
d="M371 0v378c0 86 -35 100 -110 100c-66 0 -114 -13 -159 -41v-437h-32v500h15l14 -39c44 28 109 44 162 44c70 0 108 -17 127 -53c61 38 124 53 174 53c108 0 142 -40 142 -130v-375h-32v378c0 86 -35 100 -110 100c-61 0 -113 -16 -165 -49c4 -16 6 -34 6 -54v-375h-32z
M371 -90l2 24c77 -12 124 -50 124 -100c0 -51 -40 -84 -104 -84c-44 0 -69 10 -82 16v27c17 -6 44 -16 75 -16c58 0 81 23 81 55c0 46 -37 67 -96 78z" />
    <glyph glyph-name="mdotbelow" unicode="&#x1e43;" horiz-adv-x="769" 
d="M371 0v378c0 86 -35 100 -110 100c-66 0 -114 -13 -159 -41v-437h-32v500h15l14 -39c44 28 109 44 162 44c70 0 108 -17 127 -53c61 38 124 53 174 53c108 0 142 -40 142 -130v-375h-32v378c0 86 -35 100 -110 100c-61 0 -113 -16 -165 -49c4 -16 6 -34 6 -54v-375h-32z
M357 -150c0 16 13 30 30 30c16 0 30 -14 30 -30c0 -17 -14 -30 -30 -30c-17 0 -30 13 -30 30z" />
    <glyph glyph-name="nacute" unicode="&#x144;" horiz-adv-x="506" 
d="M409 0v368c0 88 -49 110 -132 110c-70 0 -130 -13 -175 -41v-437h-32v500h15l14 -39c44 28 121 44 178 44c117 0 164 -40 164 -140v-365h-32zM265 550h-20l60 200h35z" />
    <glyph glyph-name="ngrave" unicode="&#xe035;" horiz-adv-x="506" 
d="M409 0v368c0 88 -49 110 -132 110c-70 0 -130 -13 -175 -41v-437h-32v500h15l14 -39c44 28 121 44 178 44c117 0 164 -40 164 -140v-365h-32zM265 550h-20l-75 200h35z" />
    <glyph glyph-name="ndieresis" unicode="&#xe036;" horiz-adv-x="506" 
d="M409 0v368c0 88 -49 110 -132 110c-70 0 -130 -13 -175 -41v-437h-32v500h15l14 -39c44 28 121 44 178 44c117 0 164 -40 164 -140v-365h-32zM130 650c0 16 13 30 30 30c16 0 30 -14 30 -30c0 -17 -14 -30 -30 -30c-17 0 -30 13 -30 30zM320 650c0 16 13 30 30 30
c16 0 30 -14 30 -30c0 -17 -14 -30 -30 -30c-17 0 -30 13 -30 30z" />
    <glyph glyph-name="ntilde" unicode="&#xf1;" horiz-adv-x="506" 
d="M409 0v368c0 88 -49 110 -132 110c-70 0 -130 -13 -175 -41v-437h-32v500h15l14 -39c44 28 121 44 178 44c117 0 164 -40 164 -140v-365h-32zM385 691h28c-4 -58 -36 -88 -87 -88c-72 0 -83 69 -141 69c-35 0 -58 -18 -60 -63h-28c4 58 36 88 87 88c72 0 83 -69 141 -69
c35 0 58 18 60 63z" />
    <glyph glyph-name="ncaron" unicode="&#x148;" horiz-adv-x="506" 
d="M409 0v368c0 88 -49 110 -132 110c-70 0 -130 -13 -175 -41v-437h-32v500h15l14 -39c44 28 121 44 178 44c117 0 164 -40 164 -140v-365h-32zM396 750h24l-150 -200h-30l-150 200h24l141 -168z" />
    <glyph glyph-name="nmacron" unicode="&#xe037;" horiz-adv-x="506" 
d="M409 0v368c0 88 -49 110 -132 110c-70 0 -130 -13 -175 -41v-437h-32v500h15l14 -39c44 28 121 44 178 44c117 0 164 -40 164 -140v-365h-32zM392 637h-274v27h274v-27z" />
    <glyph glyph-name="ndotaccent" unicode="&#x1e45;" horiz-adv-x="506" 
d="M409 0v368c0 88 -49 110 -132 110c-70 0 -130 -13 -175 -41v-437h-32v500h15l14 -39c44 28 121 44 178 44c117 0 164 -40 164 -140v-365h-32zM225 650c0 16 13 30 30 30c16 0 30 -14 30 -30c0 -17 -14 -30 -30 -30c-17 0 -30 13 -30 30z" />
    <glyph glyph-name="ncommaaccent" unicode="&#x146;" horiz-adv-x="506" 
d="M409 0v368c0 88 -49 110 -132 110c-70 0 -130 -13 -175 -41v-437h-32v500h15l14 -39c44 28 121 44 178 44c117 0 164 -40 164 -140v-365h-32zM241 -50h37l-43 -200h-20z" />
    <glyph glyph-name="ncedilla" unicode="&#xe038;" horiz-adv-x="506" 
d="M409 0v368c0 88 -49 110 -132 110c-70 0 -130 -13 -175 -41v-437h-32v500h15l14 -39c44 28 121 44 178 44c117 0 164 -40 164 -140v-365h-32zM239 -90l2 24c77 -12 124 -50 124 -100c0 -51 -40 -84 -104 -84c-44 0 -69 10 -82 16v27c17 -6 44 -16 75 -16
c58 0 81 23 81 55c0 46 -37 67 -96 78z" />
    <glyph glyph-name="ndotbelow" unicode="&#x1e47;" horiz-adv-x="506" 
d="M409 0v368c0 88 -49 110 -132 110c-70 0 -130 -13 -175 -41v-437h-32v500h15l14 -39c44 28 121 44 178 44c117 0 164 -40 164 -140v-365h-32zM225 -150c0 16 13 30 30 30c16 0 30 -14 30 -30c0 -17 -14 -30 -30 -30c-17 0 -30 13 -30 30z" />
    <glyph glyph-name="ndescender" unicode="&#xe039;" horiz-adv-x="506" 
d="M473 -125h-32v125h-32v368c0 88 -49 110 -132 110c-70 0 -130 -13 -175 -41v-437h-32v500h15l14 -39c44 28 121 44 178 44c117 0 164 -40 164 -140v-336h32v-154z" />
    <glyph glyph-name="oacute" unicode="&#xf3;" horiz-adv-x="532" 
d="M60 250c0 147 31 255 206 255s206 -108 206 -255s-31 -255 -206 -255s-206 108 -206 255zM91 250c0 -126 18 -228 175 -228s175 102 175 228s-18 228 -175 228s-175 -102 -175 -228zM276 550h-20l60 200h35z" />
    <glyph glyph-name="ograve" unicode="&#xf2;" horiz-adv-x="532" 
d="M60 250c0 147 31 255 206 255s206 -108 206 -255s-31 -255 -206 -255s-206 108 -206 255zM91 250c0 -126 18 -228 175 -228s175 102 175 228s-18 228 -175 228s-175 -102 -175 -228zM276 550h-20l-75 200h35z" />
    <glyph glyph-name="ocircumflex" unicode="&#xf4;" horiz-adv-x="532" 
d="M60 250c0 147 31 255 206 255s206 -108 206 -255s-31 -255 -206 -255s-206 108 -206 255zM91 250c0 -126 18 -228 175 -228s175 102 175 228s-18 228 -175 228s-175 -102 -175 -228zM125 550h-24l150 200h30l150 -200h-24l-141 168z" />
    <glyph glyph-name="odieresis" unicode="&#xf6;" horiz-adv-x="532" 
d="M60 250c0 147 31 255 206 255s206 -108 206 -255s-31 -255 -206 -255s-206 108 -206 255zM91 250c0 -126 18 -228 175 -228s175 102 175 228s-18 228 -175 228s-175 -102 -175 -228zM141 650c0 16 13 30 30 30c16 0 30 -14 30 -30c0 -17 -14 -30 -30 -30
c-17 0 -30 13 -30 30zM331 650c0 16 13 30 30 30c16 0 30 -14 30 -30c0 -17 -14 -30 -30 -30c-17 0 -30 13 -30 30z" />
    <glyph glyph-name="otilde" unicode="&#xf5;" horiz-adv-x="532" 
d="M60 250c0 147 31 255 206 255s206 -108 206 -255s-31 -255 -206 -255s-206 108 -206 255zM91 250c0 -126 18 -228 175 -228s175 102 175 228s-18 228 -175 228s-175 -102 -175 -228zM396 691h28c-4 -58 -36 -88 -87 -88c-72 0 -83 69 -141 69c-35 0 -58 -18 -60 -63h-28
c4 58 36 88 87 88c72 0 83 -69 141 -69c35 0 58 18 60 63z" />
    <glyph glyph-name="ocaron" unicode="&#x1d2;" horiz-adv-x="532" 
d="M60 250c0 147 31 255 206 255s206 -108 206 -255s-31 -255 -206 -255s-206 108 -206 255zM91 250c0 -126 18 -228 175 -228s175 102 175 228s-18 228 -175 228s-175 -102 -175 -228zM407 750h24l-150 -200h-30l-150 200h24l141 -168z" />
    <glyph glyph-name="omacron" unicode="&#x14d;" horiz-adv-x="532" 
d="M60 250c0 147 31 255 206 255s206 -108 206 -255s-31 -255 -206 -255s-206 108 -206 255zM91 250c0 -126 18 -228 175 -228s175 102 175 228s-18 228 -175 228s-175 -102 -175 -228zM403 637h-274v27h274v-27z" />
    <glyph glyph-name="obreve" unicode="&#x14f;" horiz-adv-x="532" 
d="M60 250c0 147 31 255 206 255s206 -108 206 -255s-31 -255 -206 -255s-206 108 -206 255zM91 250c0 -126 18 -228 175 -228s175 102 175 228s-18 228 -175 228s-175 -102 -175 -228zM266 550c-115 0 -175 66 -175 200h21c4 -111 47 -173 154 -173s150 62 154 173h21
c0 -134 -60 -200 -175 -200z" />
    <glyph glyph-name="oinvertedbreve" unicode="&#x20f;" horiz-adv-x="532" 
d="M60 250c0 147 31 255 206 255s206 -108 206 -255s-31 -255 -206 -255s-206 108 -206 255zM91 250c0 -126 18 -228 175 -228s175 102 175 228s-18 228 -175 228s-175 -102 -175 -228zM266 750c115 0 175 -66 175 -200h-21c-4 111 -47 173 -154 173s-150 -62 -154 -173h-21
c0 134 60 200 175 200z" />
    <glyph glyph-name="ohungarumlaut" unicode="&#x151;" horiz-adv-x="532" 
d="M60 250c0 147 31 255 206 255s206 -108 206 -255s-31 -255 -206 -255s-206 108 -206 255zM91 250c0 -126 18 -228 175 -228s175 102 175 228s-18 228 -175 228s-175 -102 -175 -228zM226 550h-20l60 200h35zM326 550h-20l60 200h35z" />
    <glyph glyph-name="odoublegrave" unicode="&#xe03a;" horiz-adv-x="532" 
d="M60 250c0 147 31 255 206 255s206 -108 206 -255s-31 -255 -206 -255s-206 108 -206 255zM91 250c0 -126 18 -228 175 -228s175 102 175 228s-18 228 -175 228s-175 -102 -175 -228zM326 550h-20l-75 200h35zM226 550h-20l-75 200h35z" />
    <glyph glyph-name="ocommaturnedabove" unicode="&#xe03b;" horiz-adv-x="532" 
d="M472 250c0 -147 -31 -255 -206 -255s-206 108 -206 255s31 255 206 255s206 -108 206 -255zM441 250c0 126 -18 228 -175 228s-175 -102 -175 -228s18 -228 175 -228s175 102 175 228zM285 550h-37l43 200h20z" />
    <glyph glyph-name="otildemacron" unicode="&#xe03c;" horiz-adv-x="532" 
d="M396 656h28c-4 -58 -36 -88 -87 -88c-72 0 -83 69 -141 69c-35 0 -58 -18 -60 -63h-28c4 58 36 88 87 88c72 0 83 -69 141 -69c35 0 58 18 60 63zM60 250c0 147 31 255 206 255s206 -108 206 -255s-31 -255 -206 -255s-206 108 -206 255zM91 250c0 -126 18 -228 175 -228
s175 102 175 228s-18 228 -175 228s-175 -102 -175 -228zM403 707h-274v27h274v-27z" />
    <glyph glyph-name="odotabove" unicode="&#xe03d;" horiz-adv-x="532" 
d="M60 250c0 147 31 255 206 255s206 -108 206 -255s-31 -255 -206 -255s-206 108 -206 255zM91 250c0 -126 18 -228 175 -228s175 102 175 228s-18 228 -175 228s-175 -102 -175 -228zM236 650c0 16 13 30 30 30c16 0 30 -14 30 -30c0 -17 -14 -30 -30 -30
c-17 0 -30 13 -30 30z" />
    <glyph glyph-name="odotabovemacron" unicode="&#xe03e;" horiz-adv-x="532" 
d="M60 250c0 147 31 255 206 255s206 -108 206 -255s-31 -255 -206 -255s-206 108 -206 255zM91 250c0 -126 18 -228 175 -228s175 102 175 228s-18 228 -175 228s-175 -102 -175 -228zM236 615c0 16 13 30 30 30c16 0 30 -14 30 -30c0 -17 -14 -30 -30 -30
c-17 0 -30 13 -30 30zM403 707h-274v27h274v-27z" />
    <glyph glyph-name="ocedilla" unicode="&#xe03f;" horiz-adv-x="532" 
d="M60 250c0 147 31 255 206 255s206 -108 206 -255s-31 -255 -206 -255s-206 108 -206 255zM91 250c0 -126 18 -228 175 -228s175 102 175 228s-18 228 -175 228s-175 -102 -175 -228zM250 -90l2 24c77 -12 124 -50 124 -100c0 -51 -40 -84 -104 -84c-44 0 -69 10 -82 16
v27c17 -6 44 -16 75 -16c58 0 81 23 81 55c0 46 -37 67 -96 78z" />
    <glyph glyph-name="odotbelow" unicode="&#x1ecd;" horiz-adv-x="532" 
d="M60 250c0 147 31 255 206 255s206 -108 206 -255s-31 -255 -206 -255s-206 108 -206 255zM91 250c0 -126 18 -228 175 -228s175 102 175 228s-18 228 -175 228s-175 -102 -175 -228zM236 -150c0 16 13 30 30 30c16 0 30 -14 30 -30c0 -17 -14 -30 -30 -30
c-17 0 -30 13 -30 30z" />
    <glyph glyph-name="oogonek" unicode="&#x1eb;" horiz-adv-x="532" 
d="M60 250c0 147 31 255 206 255s206 -108 206 -255c0 -129 -24 -227 -146 -250c-34 -14 -124 -67 -124 -149c0 -53 21 -77 70 -77c23 0 43 6 59 11v-25c-15 -5 -36 -10 -66 -10c-49 0 -89 30 -89 96c0 69 45 116 96 149h-6c-175 0 -206 108 -206 255zM91 250
c0 -126 18 -228 175 -228s175 102 175 228s-18 228 -175 228s-175 -102 -175 -228z" />
    <glyph glyph-name="oogonekmacron" unicode="&#x1ed;" horiz-adv-x="532" 
d="M60 250c0 147 31 255 206 255s206 -108 206 -255c0 -129 -24 -227 -146 -250c-34 -14 -124 -67 -124 -149c0 -53 21 -77 70 -77c23 0 43 6 59 11v-25c-15 -5 -36 -10 -66 -10c-49 0 -89 30 -89 96c0 69 45 116 96 149h-6c-175 0 -206 108 -206 255zM91 250
c0 -126 18 -228 175 -228s175 102 175 228s-18 228 -175 228s-175 -102 -175 -228zM403 637h-274v27h274v-27z" />
    <glyph glyph-name="ounderlineaccent" unicode="&#xe040;" horiz-adv-x="532" 
d="M60 250c0 147 31 255 206 255s206 -108 206 -255s-31 -255 -206 -255s-206 108 -206 255zM91 250c0 -126 18 -228 175 -228s175 102 175 228s-18 228 -175 228s-175 -102 -175 -228zM254 -250v200h24v-200h-24z" />
    <glyph glyph-name="oslash" unicode="&#xf8;" horiz-adv-x="532" 
d="M60 250c0 147 31 255 206 255c58 0 101 -12 131 -34l20 29h34l-32 -47c43 -46 53 -118 53 -203c0 -147 -31 -255 -206 -255c-60 0 -103 12 -133 34l-20 -29h-34l32 48c-41 46 -51 118 -51 202zM441 250c0 71 -6 134 -40 176l-252 -372c26 -21 63 -32 117 -32
c157 0 175 102 175 228zM91 250c0 -71 6 -133 38 -175l252 372c-26 20 -63 31 -115 31c-157 0 -175 -102 -175 -228z" />
    <glyph glyph-name="oslashacute" unicode="&#x1ff;" horiz-adv-x="532" 
d="M60 250c0 147 31 255 206 255c58 0 101 -12 131 -34l20 29h34l-32 -47c43 -46 53 -118 53 -203c0 -147 -31 -255 -206 -255c-60 0 -103 12 -133 34l-20 -29h-34l32 48c-41 46 -51 118 -51 202zM441 250c0 71 -6 134 -40 176l-252 -372c26 -21 63 -32 117 -32
c157 0 175 102 175 228zM91 250c0 -71 6 -133 38 -175l252 372c-26 20 -63 31 -115 31c-157 0 -175 -102 -175 -228zM276 550h-20l60 200h35z" />
    <glyph glyph-name="barredo" unicode="&#xe041;" horiz-adv-x="532" 
d="M60 250c0 147 31 255 206 255s206 -108 206 -255s-31 -255 -206 -255s-206 108 -206 255zM266 478c-151 0 -174 -95 -175 -214h350c-2 119 -24 214 -175 214zM266 22c151 0 173 94 175 214h-350c1 -120 24 -214 175 -214z" />
    <glyph glyph-name="oe" unicode="&#x153;" horiz-adv-x="892" 
d="M648 22c74 0 122 13 159 25v-27c-39 -15 -105 -25 -159 -25c-111 0 -166 47 -191 123c-22 -75 -75 -123 -191 -123c-175 0 -206 108 -206 255s31 255 206 255c116 0 169 -48 191 -124c25 76 80 124 191 124c166 0 184 -108 184 -255v-14h-360c2 -113 33 -214 176 -214z
M91 250c0 -126 18 -228 175 -228s175 102 175 228s-18 228 -175 228s-175 -102 -175 -228zM472 264h330c0 109 -11 214 -154 214s-174 -101 -176 -214z" />
    <glyph glyph-name="pmacron" unicode="&#xe042;" horiz-adv-x="539" 
d="M272 -5c-56 0 -128 14 -172 42v-287h-30v750h13l14 -39c44 29 118 44 175 44c166 0 207 -111 207 -255s-41 -255 -207 -255zM272 478c-70 0 -127 -14 -172 -42v-372c45 -28 102 -42 172 -42c149 0 176 115 176 228s-27 228 -176 228zM409 637h-274v27h274v-27z" />
    <glyph glyph-name="racute" unicode="&#x155;" horiz-adv-x="354" 
d="M324 502v-27c-14 2 -30 3 -47 3c-70 0 -130 -13 -175 -41v-437h-32v500h15l14 -39c44 28 121 44 178 44c17 0 33 -1 47 -3zM214 550h-20l60 200h35z" />
    <glyph glyph-name="rcaron" unicode="&#x159;" horiz-adv-x="354" 
d="M324 502v-27c-14 2 -30 3 -47 3c-70 0 -130 -13 -175 -41v-437h-32v500h15l14 -39c44 28 121 44 178 44c17 0 33 -1 47 -3zM345 750h24l-150 -200h-30l-150 200h24l141 -168z" />
    <glyph glyph-name="rinvertedbreve" unicode="&#x213;" horiz-adv-x="354" 
d="M324 502v-27c-14 2 -30 3 -47 3c-70 0 -130 -13 -175 -41v-437h-32v500h15l14 -39c44 28 121 44 178 44c17 0 33 -1 47 -3zM204 750c115 0 175 -66 175 -200h-21c-4 111 -47 173 -154 173s-150 -62 -154 -173h-21c0 134 60 200 175 200z" />
    <glyph glyph-name="rdoublegrave" unicode="&#xe043;" horiz-adv-x="354" 
d="M324 502v-27c-14 2 -30 3 -47 3c-70 0 -130 -13 -175 -41v-437h-32v500h15l14 -39c44 28 121 44 178 44c17 0 33 -1 47 -3zM264 550h-20l-75 200h35zM164 550h-20l-75 200h35z" />
    <glyph glyph-name="rcommaaccent" unicode="&#x157;" horiz-adv-x="354" 
d="M324 502v-27c-14 2 -30 3 -47 3c-70 0 -130 -13 -175 -41v-437h-32v500h15l14 -39c44 28 121 44 178 44c17 0 33 -1 47 -3zM67 -50h37l-43 -200h-20z" />
    <glyph glyph-name="rcedilla" unicode="&#xe044;" horiz-adv-x="354" 
d="M324 502v-27c-14 2 -30 3 -47 3c-70 0 -130 -13 -175 -41v-437h-32v500h15l14 -39c44 28 121 44 178 44c17 0 33 -1 47 -3zM70 -90l2 24c77 -12 124 -50 124 -100c0 -51 -40 -84 -104 -84c-44 0 -69 10 -82 16v27c17 -6 44 -16 75 -16c58 0 81 23 81 55
c0 46 -37 67 -96 78z" />
    <glyph glyph-name="rdotbelow" unicode="&#x1e5b;" horiz-adv-x="354" 
d="M324 502v-27c-14 2 -30 3 -47 3c-70 0 -130 -13 -175 -41v-437h-32v500h15l14 -39c44 28 121 44 178 44c17 0 33 -1 47 -3zM56 -150c0 16 13 30 30 30c16 0 30 -14 30 -30c0 -17 -14 -30 -30 -30c-17 0 -30 13 -30 30z" />
    <glyph glyph-name="rdotbelowmacron" unicode="&#x1e5d;" horiz-adv-x="354" 
d="M324 502v-27c-14 2 -30 3 -47 3c-70 0 -130 -13 -175 -41v-437h-32v500h15l14 -39c44 28 121 44 178 44c17 0 33 -1 47 -3zM56 -150c0 16 13 30 30 30c16 0 30 -14 30 -30c0 -17 -14 -30 -30 -30c-17 0 -30 13 -30 30zM341 637h-274v27h274v-27z" />
    <glyph glyph-name="sacute" unicode="&#x15b;" horiz-adv-x="452" 
d="M235 550h-20l60 200h35zM201 22c130 0 166 51 166 112c0 73 -23 98 -140 112c-132 16 -162 47 -162 125c0 77 44 134 181 134c44 0 99 -7 139 -20v-27c-37 10 -75 20 -139 20c-115 0 -151 -39 -151 -107c0 -72 33 -86 139 -99c130 -16 163 -48 163 -137
c0 -72 -43 -140 -196 -140c-44 0 -99 7 -139 20v27c37 -10 75 -20 139 -20z" />
    <glyph glyph-name="scircumflex" unicode="&#x15d;" horiz-adv-x="452" 
d="M84 550h-24l150 200h30l150 -200h-24l-141 168zM201 22c130 0 166 51 166 112c0 73 -23 98 -140 112c-132 16 -162 47 -162 125c0 77 44 134 181 134c44 0 99 -7 139 -20v-27c-37 10 -75 20 -139 20c-115 0 -151 -39 -151 -107c0 -72 33 -86 139 -99
c130 -16 163 -48 163 -137c0 -72 -43 -140 -196 -140c-44 0 -99 7 -139 20v27c37 -10 75 -20 139 -20z" />
    <glyph glyph-name="scaron" unicode="&#x161;" horiz-adv-x="452" 
d="M60 750h24l141 -168l141 168h24l-150 -200h-30zM201 22c130 0 166 51 166 112c0 73 -23 98 -140 112c-132 16 -162 47 -162 125c0 77 44 134 181 134c44 0 99 -7 139 -20v-27c-37 10 -75 20 -139 20c-115 0 -151 -39 -151 -107c0 -72 33 -86 139 -99
c130 -16 163 -48 163 -137c0 -72 -43 -140 -196 -140c-44 0 -99 7 -139 20v27c37 -10 75 -20 139 -20z" />
    <glyph glyph-name="scommaaccent" unicode="&#x219;" horiz-adv-x="452" 
d="M211 -50h37l-43 -200h-20zM201 22c130 0 166 51 166 112c0 73 -23 98 -140 112c-132 16 -162 47 -162 125c0 77 44 134 181 134c44 0 99 -7 139 -20v-27c-37 10 -75 20 -139 20c-115 0 -151 -39 -151 -107c0 -72 33 -86 139 -99c130 -16 163 -48 163 -137
c0 -72 -43 -140 -196 -140c-44 0 -99 7 -139 20v27c37 -10 75 -20 139 -20z" />
    <glyph glyph-name="scedilla" unicode="&#x15f;" horiz-adv-x="452" 
d="M201 22c130 0 166 51 166 112c0 73 -23 98 -140 112c-132 16 -162 47 -162 125c0 77 44 134 181 134c44 0 99 -7 139 -20v-27c-37 10 -75 20 -139 20c-115 0 -151 -39 -151 -107c0 -72 33 -86 139 -99c130 -16 163 -48 163 -137c0 -67 -37 -130 -163 -139l4 -68
c45 -9 97 -42 97 -94c0 -51 -40 -84 -104 -84c-44 0 -69 10 -82 16v27c17 -6 44 -16 75 -16c58 0 81 23 81 55c0 46 -37 67 -96 78l6 85h-14c-44 0 -99 7 -139 20v27c37 -10 75 -20 139 -20z" />
    <glyph glyph-name="sdotbelow" unicode="&#x1e63;" horiz-adv-x="452" 
d="M195 -150c0 16 13 30 30 30c16 0 30 -14 30 -30c0 -17 -14 -30 -30 -30c-17 0 -30 13 -30 30zM201 22c130 0 166 51 166 112c0 73 -23 98 -140 112c-132 16 -162 47 -162 125c0 77 44 134 181 134c44 0 99 -7 139 -20v-27c-37 10 -75 20 -139 20
c-115 0 -151 -39 -151 -107c0 -72 33 -86 139 -99c130 -16 163 -48 163 -137c0 -72 -43 -140 -196 -140c-44 0 -99 7 -139 20v27c37 -10 75 -20 139 -20z" />
    <glyph glyph-name="germandbls" unicode="&#xdf;" horiz-adv-x="545" 
d="M324 21c112 0 138 76 138 123c0 48 -22 86 -98 109c-103 31 -144 51 -144 128c0 130 165 105 165 223c0 86 -51 124 -135 124s-136 -43 -136 -129v-599h-28v599c0 90 44 156 164 156s164 -61 164 -151c0 -135 -165 -111 -165 -223c0 -57 29 -70 95 -91
c102 -33 148 -61 148 -145c0 -77 -45 -150 -168 -150c-24 0 -79 4 -107 20v25c44 -15 77 -19 107 -19z" />
    <glyph glyph-name="tcaron" unicode="&#x165;" horiz-adv-x="370" 
d="M300 19v-24h-12c-112 0 -168 44 -168 134v344h-95v17l95 11v149l30 4v-154h171v-27h-171v-352c0 -78 63 -102 138 -102h12zM226 750h34l-40 -200h-20z" />
    <glyph glyph-name="tcommaaccent" unicode="&#x163;" horiz-adv-x="370" 
d="M300 19v-24h-12c-112 0 -168 44 -168 134v344h-95v17l95 11v149l30 4v-154h171v-27h-171v-352c0 -78 63 -102 138 -102h12zM186 -50h37l-43 -200h-20z" />
    <glyph glyph-name="tcommaaccent" unicode="&#x21b;" horiz-adv-x="370" 
d="M300 19v-24h-12c-112 0 -168 44 -168 134v344h-95v17l95 11v149l30 4v-154h171v-27h-171v-352c0 -78 63 -102 138 -102h12zM186 -50h37l-43 -200h-20z" />
    <glyph glyph-name="tcedilla" unicode="&#xe045;" horiz-adv-x="370" 
d="M300 19v-24h-12c-112 0 -168 44 -168 134v344h-95v17l95 11v149l30 4v-154h171v-27h-171v-352c0 -78 63 -102 138 -102h12zM189 -90l2 24c77 -12 124 -50 124 -100c0 -51 -40 -84 -104 -84c-44 0 -69 10 -82 16v27c17 -6 44 -16 75 -16c58 0 81 23 81 55
c0 46 -37 67 -96 78z" />
    <glyph glyph-name="tdotbelow" unicode="&#x1e6d;" horiz-adv-x="370" 
d="M300 19v-24h-12c-112 0 -168 44 -168 134v344h-95v17l95 11v149l30 4v-154h171v-27h-171v-352c0 -78 63 -102 138 -102h12zM175 -150c0 16 13 30 30 30c16 0 30 -14 30 -30c0 -17 -14 -30 -30 -30c-17 0 -30 13 -30 30z" />
    <glyph glyph-name="tbar" unicode="&#x167;" horiz-adv-x="370" 
d="M25 292h95v181h-95v17l95 11v149l30 4v-154h171v-27h-171v-181h141v-25h-141v-146c0 -78 63 -102 138 -102h12v-24h-12c-112 0 -168 44 -168 134v138h-95v25z" />
    <glyph glyph-name="uacute" unicode="&#xfa;" horiz-adv-x="506" 
d="M97 500v-368c0 -88 49 -110 132 -110c70 0 130 13 175 41v437h32v-500h-15l-14 39c-44 -28 -121 -44 -178 -44c-117 0 -164 40 -164 140v365h32zM260 550h-20l60 200h35z" />
    <glyph glyph-name="ugrave" unicode="&#xf9;" horiz-adv-x="506" 
d="M97 500v-368c0 -88 49 -110 132 -110c70 0 130 13 175 41v437h32v-500h-15l-14 39c-44 -28 -121 -44 -178 -44c-117 0 -164 40 -164 140v365h32zM260 550h-20l-75 200h35z" />
    <glyph glyph-name="ucircumflex" unicode="&#xfb;" horiz-adv-x="506" 
d="M97 500v-368c0 -88 49 -110 132 -110c70 0 130 13 175 41v437h32v-500h-15l-14 39c-44 -28 -121 -44 -178 -44c-117 0 -164 40 -164 140v365h32zM109 550h-24l150 200h30l150 -200h-24l-141 168z" />
    <glyph glyph-name="udieresis" unicode="&#xfc;" horiz-adv-x="506" 
d="M97 500v-368c0 -88 49 -110 132 -110c70 0 130 13 175 41v437h32v-500h-15l-14 39c-44 -28 -121 -44 -178 -44c-117 0 -164 40 -164 140v365h32zM125 650c0 16 13 30 30 30c16 0 30 -14 30 -30c0 -17 -14 -30 -30 -30c-17 0 -30 13 -30 30zM315 650c0 16 13 30 30 30
c16 0 30 -14 30 -30c0 -17 -14 -30 -30 -30c-17 0 -30 13 -30 30z" />
    <glyph glyph-name="utilde" unicode="&#x169;" horiz-adv-x="506" 
d="M97 500v-368c0 -88 49 -110 132 -110c70 0 130 13 175 41v437h32v-500h-15l-14 39c-44 -28 -121 -44 -178 -44c-117 0 -164 40 -164 140v365h32zM380 691h28c-4 -58 -36 -88 -87 -88c-72 0 -83 69 -141 69c-35 0 -58 -18 -60 -63h-28c4 58 36 88 87 88
c72 0 83 -69 141 -69c35 0 58 18 60 63z" />
    <glyph glyph-name="uring" unicode="&#x16f;" horiz-adv-x="506" 
d="M97 500v-368c0 -88 49 -110 132 -110c70 0 130 13 175 41v437h32v-500h-15l-14 39c-44 -28 -121 -44 -178 -44c-117 0 -164 40 -164 140v365h32zM343 650c0 -65 -37 -92 -93 -92c-57 0 -94 27 -94 92c0 66 37 93 94 93c56 0 93 -27 93 -93zM318 650c0 52 -28 69 -68 69
c-41 0 -70 -17 -70 -69s29 -69 70 -69c40 0 68 17 68 69z" />
    <glyph glyph-name="ucaron" unicode="&#x1d4;" horiz-adv-x="506" 
d="M97 500v-368c0 -88 49 -110 132 -110c70 0 130 13 175 41v437h32v-500h-15l-14 39c-44 -28 -121 -44 -178 -44c-117 0 -164 40 -164 140v365h32zM391 750h24l-150 -200h-30l-150 200h24l141 -168z" />
    <glyph glyph-name="umacron" unicode="&#x16b;" horiz-adv-x="506" 
d="M97 500v-368c0 -88 49 -110 132 -110c70 0 130 13 175 41v437h32v-500h-15l-14 39c-44 -28 -121 -44 -178 -44c-117 0 -164 40 -164 140v365h32zM387 637h-274v27h274v-27z" />
    <glyph glyph-name="ubreve" unicode="&#x16d;" horiz-adv-x="506" 
d="M97 500v-368c0 -88 49 -110 132 -110c70 0 130 13 175 41v437h32v-500h-15l-14 39c-44 -28 -121 -44 -178 -44c-117 0 -164 40 -164 140v365h32zM250 550c-115 0 -175 66 -175 200h21c4 -111 47 -173 154 -173s150 62 154 173h21c0 -134 -60 -200 -175 -200z" />
    <glyph glyph-name="uinvertedbreve" unicode="&#x217;" horiz-adv-x="506" 
d="M97 500v-368c0 -88 49 -110 132 -110c70 0 130 13 175 41v437h32v-500h-15l-14 39c-44 -28 -121 -44 -178 -44c-117 0 -164 40 -164 140v365h32zM250 750c115 0 175 -66 175 -200h-21c-4 111 -47 173 -154 173s-150 -62 -154 -173h-21c0 134 60 200 175 200z" />
    <glyph glyph-name="uhungarumlaut" unicode="&#x171;" horiz-adv-x="506" 
d="M97 500v-368c0 -88 49 -110 132 -110c70 0 130 13 175 41v437h32v-500h-15l-14 39c-44 -28 -121 -44 -178 -44c-117 0 -164 40 -164 140v365h32zM210 550h-20l60 200h35zM310 550h-20l60 200h35z" />
    <glyph glyph-name="udoublegrave" unicode="&#xe046;" horiz-adv-x="506" 
d="M97 500v-368c0 -88 49 -110 132 -110c70 0 130 13 175 41v437h32v-500h-15l-14 39c-44 -28 -121 -44 -178 -44c-117 0 -164 40 -164 140v365h32zM310 550h-20l-75 200h35zM210 550h-20l-75 200h35z" />
    <glyph glyph-name="uogonek" unicode="&#x173;" horiz-adv-x="506" 
d="M97 500v-368c0 -88 49 -110 132 -110c70 0 130 13 175 41v437h32v-500c-34 -14 -124 -67 -124 -149c0 -53 21 -77 70 -77c23 0 43 6 59 11v-25c-15 -5 -36 -10 -66 -10c-49 0 -89 30 -89 96c0 84 66 135 130 168l-9 25c-44 -28 -121 -44 -178 -44
c-117 0 -164 40 -164 140v365h32z" />
    <glyph glyph-name="udotbelow" unicode="&#x1ee5;" horiz-adv-x="506" 
d="M97 500v-368c0 -88 49 -110 132 -110c70 0 130 13 175 41v437h32v-500h-15l-14 39c-44 -28 -121 -44 -178 -44c-117 0 -164 40 -164 140v365h32zM220 -150c0 16 13 30 30 30c16 0 30 -14 30 -30c0 -17 -14 -30 -30 -30c-17 0 -30 13 -30 30z" />
    <glyph glyph-name="umacronbelow" unicode="&#xe047;" horiz-adv-x="506" 
d="M97 500v-368c0 -88 49 -110 132 -110c70 0 130 13 175 41v437h32v-500h-15l-14 39c-44 -28 -121 -44 -178 -44c-117 0 -164 40 -164 140v365h32zM387 -163h-274v27h274v-27z" />
    <glyph glyph-name="wacute" unicode="&#x1e83;" horiz-adv-x="666" 
d="M351 500l137 -453l119 453h34l-141 -505h-24l-143 466l-143 -466h-24l-141 505h34l119 -453l137 453h36zM346 550h-20l60 200h35z" />
    <glyph glyph-name="wgrave" unicode="&#x1e81;" horiz-adv-x="666" 
d="M351 500l137 -453l119 453h34l-141 -505h-24l-143 466l-143 -466h-24l-141 505h34l119 -453l137 453h36zM340 550h-20l-75 200h35z" />
    <glyph glyph-name="wcircumflex" unicode="&#x175;" horiz-adv-x="666" 
d="M351 500l137 -453l119 453h34l-141 -505h-24l-143 466l-143 -466h-24l-141 505h34l119 -453l137 453h36zM192 550h-24l150 200h30l150 -200h-24l-141 168z" />
    <glyph glyph-name="wdieresis" unicode="&#x1e85;" horiz-adv-x="666" 
d="M351 500l137 -453l119 453h34l-141 -505h-24l-143 466l-143 -466h-24l-141 505h34l119 -453l137 453h36zM208 650c0 16 13 30 30 30c16 0 30 -14 30 -30c0 -17 -14 -30 -30 -30c-17 0 -30 13 -30 30zM398 650c0 16 13 30 30 30c16 0 30 -14 30 -30c0 -17 -14 -30 -30 -30
c-17 0 -30 13 -30 30z" />
    <glyph glyph-name="yacute" unicode="&#xfd;" horiz-adv-x="462" 
d="M25 500h36l170 -458l171 458h35l-293 -750h-34l107 255zM241 550h-20l60 200h35z" />
    <glyph glyph-name="ygrave" unicode="&#x1ef3;" horiz-adv-x="462" 
d="M25 500h36l170 -458l171 458h35l-293 -750h-34l107 255zM241 550h-20l-75 200h35z" />
    <glyph glyph-name="ycircumflex" unicode="&#x177;" horiz-adv-x="462" 
d="M25 500h36l170 -458l171 458h35l-293 -750h-34l107 255zM90 550h-24l150 200h30l150 -200h-24l-141 168z" />
    <glyph glyph-name="ydieresis" unicode="&#xff;" horiz-adv-x="462" 
d="M25 500h36l170 -458l171 458h35l-293 -750h-34l107 255zM106 650c0 16 13 30 30 30c16 0 30 -14 30 -30c0 -17 -14 -30 -30 -30c-17 0 -30 13 -30 30zM296 650c0 16 13 30 30 30c16 0 30 -14 30 -30c0 -17 -14 -30 -30 -30c-17 0 -30 13 -30 30z" />
    <glyph glyph-name="ytilde" unicode="&#x1ef9;" horiz-adv-x="462" 
d="M25 500h36l170 -458l171 458h35l-293 -750h-34l107 255zM361 691h28c-4 -58 -36 -88 -87 -88c-72 0 -83 69 -141 69c-35 0 -58 -18 -60 -63h-28c4 58 36 88 87 88c72 0 83 -69 141 -69c35 0 58 18 60 63z" />
    <glyph glyph-name="ymacron" unicode="&#xe048;" horiz-adv-x="462" 
d="M25 500h36l170 -458l171 458h35l-293 -750h-34l107 255zM368 637h-274v27h274v-27z" />
    <glyph glyph-name="ij" unicode="&#x133;" horiz-adv-x="420" 
d="M175 19v-24c-53 0 -76 24 -76 73v432h30v-430c0 -38 10 -51 46 -51zM84 650c0 16 13 30 30 30c16 0 30 -14 30 -30c0 -17 -14 -30 -30 -30c-17 0 -30 13 -30 30zM151 -255v27c75 0 138 23 138 101v627h30v-621c0 -90 -56 -134 -168 -134zM274 650c0 16 13 30 30 30
c16 0 30 -14 30 -30c0 -17 -14 -30 -30 -30c-17 0 -30 13 -30 30z" />
    <glyph glyph-name="zacute" unicode="&#x17a;" horiz-adv-x="448" 
d="M413 0h-378v19l333 457h-317v24h352v-19l-334 -457h344v-24zM234 550h-20l60 200h35z" />
    <glyph glyph-name="zcaron" unicode="&#x17e;" horiz-adv-x="448" 
d="M413 0h-378v19l333 457h-317v24h352v-19l-334 -457h344v-24zM365 750h24l-150 -200h-30l-150 200h24l141 -168z" />
    <glyph glyph-name="zdotaccent" unicode="&#x17c;" horiz-adv-x="448" 
d="M413 0h-378v19l333 457h-317v24h352v-19l-334 -457h344v-24zM194 650c0 16 13 30 30 30c16 0 30 -14 30 -30c0 -17 -14 -30 -30 -30c-17 0 -30 13 -30 30z" />
    <glyph glyph-name="eng" unicode="&#x14b;" horiz-adv-x="506" 
d="M272 -255v27c75 0 137 24 137 102v494c0 88 -49 110 -132 110c-70 0 -130 -13 -175 -41v-437h-32v500h15l14 -39c44 28 121 44 178 44c117 0 164 -40 164 -140v-486c0 -90 -57 -134 -169 -134z" />
    <glyph glyph-name="eth" unicode="&#xf0;" horiz-adv-x="492" 
d="M396 750v-28l-105 -54c76 -75 156 -199 161 -399v-19c0 -147 -31 -255 -206 -255s-206 108 -206 255s31 255 206 255c71 0 118 -23 150 -58c-25 85 -75 154 -131 208l-159 -81v28l139 71c-38 33 -79 59 -116 77h54c23 -13 55 -34 89 -64zM71 250c0 -126 18 -228 175 -228
s175 102 175 228s-18 228 -175 228s-175 -102 -175 -228z" />
    <glyph glyph-name="thorn" unicode="&#xfe;" horiz-adv-x="539" 
d="M70 750h30v-287c44 28 116 42 172 42c166 0 207 -111 207 -255s-41 -255 -207 -255c-56 0 -128 14 -172 42v-287h-30v1000zM272 478c-70 0 -127 -14 -172 -42v-372c45 -28 102 -42 172 -42c149 0 176 115 176 228s-27 228 -176 228z" />
    <glyph glyph-name="ezh" unicode="&#x292;" horiz-adv-x="476" 
d="M144 173h49c202 0 248 -93 248 -208s-58 -220 -250 -220c-66 0 -121 11 -156 26v27c37 -13 88 -26 156 -26c175 0 219 90 219 193c0 130 -65 184 -217 184h-86v19l270 308h-337v24h375v-19z" />
    <glyph glyph-name="ezhcaron" unicode="&#x1ef;" horiz-adv-x="476" 
d="M144 173h49c202 0 248 -93 248 -208s-58 -220 -250 -220c-66 0 -121 11 -156 26v27c37 -13 88 -26 156 -26c175 0 219 90 219 193c0 130 -65 184 -217 184h-86v19l270 308h-337v24h375v-19zM366 750h24l-150 -200h-30l-150 200h24l141 -168z" />
    <glyph glyph-name="schwa" unicode="&#x259;" horiz-adv-x="511" 
d="M244 478c-74 0 -122 -13 -159 -25v27c39 15 105 25 159 25c166 0 207 -106 207 -255s-41 -255 -207 -255s-184 108 -184 255v14h360c-2 113 -33 214 -176 214zM420 236h-330c0 -109 11 -214 154 -214s174 101 176 214z" />
    <glyph glyph-name="ordfeminine" unicode="&#xaa;" horiz-adv-x="370" 
d="M287 610v30c0 66 -22 88 -105 88c-36 0 -80 -7 -112 -15v26c35 11 84 16 112 16c107 0 137 -41 137 -118v-256h-15l-12 34c-38 -28 -87 -40 -126 -40c-92 0 -128 44 -128 114c0 81 50 107 132 112zM287 585l-122 -10c-66 -5 -96 -32 -96 -86c0 -48 20 -87 99 -87
c47 0 90 16 119 36v147z" />
    <glyph glyph-name="ordmasculine" unicode="&#xba;" horiz-adv-x="438" 
d="M219 375c-116 0 -164 53 -164 190s48 190 164 190s164 -53 164 -190s-48 -190 -164 -190zM219 728c-94 0 -133 -41 -133 -163s39 -163 133 -163s133 41 133 163s-39 163 -133 163z" />
    <glyph glyph-name="cordinal" unicode="&#xe049;" horiz-adv-x="366" 
d="M219 402c38 0 66 5 92 14v-28c-20 -7 -63 -13 -92 -13c-116 0 -164 54 -164 190s48 190 164 190c29 0 72 -6 92 -13v-28c-26 9 -54 14 -92 14c-98 0 -133 -40 -133 -163s35 -163 133 -163z" />
    <glyph glyph-name="a.school" unicode="&#xe04a;" horiz-adv-x="539" 
d="M267 22c70 0 127 14 172 42v372c-45 28 -102 42 -172 42c-149 0 -176 -115 -176 -228s27 -228 176 -228zM469 500v-500h-13l-14 39c-44 -29 -118 -44 -175 -44c-166 0 -207 111 -207 255s41 255 207 255c57 0 131 -15 175 -44l14 39h13z" />
    <glyph glyph-name="aacute.school" unicode="&#xe04b;" horiz-adv-x="539" 
d="M267 22c70 0 127 14 172 42v372c-45 28 -102 42 -172 42c-149 0 -176 -115 -176 -228s27 -228 176 -228zM469 500v-500h-13l-14 39c-44 -29 -118 -44 -175 -44c-166 0 -207 111 -207 255s41 255 207 255c57 0 131 -15 175 -44l14 39h13zM277 550h-20l60 200h35z" />
    <glyph glyph-name="agrave.school" unicode="&#xe04c;" horiz-adv-x="539" 
d="M267 22c70 0 127 14 172 42v372c-45 28 -102 42 -172 42c-149 0 -176 -115 -176 -228s27 -228 176 -228zM469 500v-500h-13l-14 39c-44 -29 -118 -44 -175 -44c-166 0 -207 111 -207 255s41 255 207 255c57 0 131 -15 175 -44l14 39h13zM277 550h-20l-75 200h35z" />
    <glyph glyph-name="acircumflex.school" unicode="&#xe04d;" horiz-adv-x="539" 
d="M267 22c70 0 127 14 172 42v372c-45 28 -102 42 -172 42c-149 0 -176 -115 -176 -228s27 -228 176 -228zM469 500v-500h-13l-14 39c-44 -29 -118 -44 -175 -44c-166 0 -207 111 -207 255s41 255 207 255c57 0 131 -15 175 -44l14 39h13zM126 550h-24l150 200h30l150 -200
h-24l-141 168z" />
    <glyph glyph-name="adieresis.school" unicode="&#xe04e;" horiz-adv-x="539" 
d="M267 22c70 0 127 14 172 42v372c-45 28 -102 42 -172 42c-149 0 -176 -115 -176 -228s27 -228 176 -228zM469 500v-500h-13l-14 39c-44 -29 -118 -44 -175 -44c-166 0 -207 111 -207 255s41 255 207 255c57 0 131 -15 175 -44l14 39h13zM142 650c0 16 13 30 30 30
c16 0 30 -14 30 -30c0 -17 -14 -30 -30 -30c-17 0 -30 13 -30 30zM332 650c0 16 13 30 30 30c16 0 30 -14 30 -30c0 -17 -14 -30 -30 -30c-17 0 -30 13 -30 30z" />
    <glyph glyph-name="atilde.school" unicode="&#xe04f;" horiz-adv-x="539" 
d="M267 22c70 0 127 14 172 42v372c-45 28 -102 42 -172 42c-149 0 -176 -115 -176 -228s27 -228 176 -228zM469 500v-500h-13l-14 39c-44 -29 -118 -44 -175 -44c-166 0 -207 111 -207 255s41 255 207 255c57 0 131 -15 175 -44l14 39h13zM397 691h28
c-4 -58 -36 -88 -87 -88c-72 0 -83 69 -141 69c-35 0 -58 -18 -60 -63h-28c4 58 36 88 87 88c72 0 83 -69 141 -69c35 0 58 18 60 63z" />
    <glyph glyph-name="aring.school" unicode="&#xe050;" horiz-adv-x="539" 
d="M267 22c70 0 127 14 172 42v372c-45 28 -102 42 -172 42c-149 0 -176 -115 -176 -228s27 -228 176 -228zM469 500v-500h-13l-14 39c-44 -29 -118 -44 -175 -44c-166 0 -207 111 -207 255s41 255 207 255c57 0 131 -15 175 -44l14 39h13zM360 650c0 -65 -37 -92 -93 -92
c-57 0 -94 27 -94 92c0 66 37 93 94 93c56 0 93 -27 93 -93zM335 650c0 52 -28 69 -68 69c-41 0 -70 -17 -70 -69s29 -69 70 -69c40 0 68 17 68 69z" />
    <glyph glyph-name="acaron.school" unicode="&#xe051;" horiz-adv-x="539" 
d="M267 22c70 0 127 14 172 42v372c-45 28 -102 42 -172 42c-149 0 -176 -115 -176 -228s27 -228 176 -228zM469 500v-500h-13l-14 39c-44 -29 -118 -44 -175 -44c-166 0 -207 111 -207 255s41 255 207 255c57 0 131 -15 175 -44l14 39h13zM408 750h24l-150 -200h-30
l-150 200h24l141 -168z" />
    <glyph glyph-name="amacron.school" unicode="&#xe052;" horiz-adv-x="539" 
d="M267 22c70 0 127 14 172 42v372c-45 28 -102 42 -172 42c-149 0 -176 -115 -176 -228s27 -228 176 -228zM469 500v-500h-13l-14 39c-44 -29 -118 -44 -175 -44c-166 0 -207 111 -207 255s41 255 207 255c57 0 131 -15 175 -44l14 39h13zM404 637h-274v27h274v-27z" />
    <glyph glyph-name="abreve.school" unicode="&#xe053;" horiz-adv-x="539" 
d="M267 22c70 0 127 14 172 42v372c-45 28 -102 42 -172 42c-149 0 -176 -115 -176 -228s27 -228 176 -228zM469 500v-500h-13l-14 39c-44 -29 -118 -44 -175 -44c-166 0 -207 111 -207 255s41 255 207 255c57 0 131 -15 175 -44l14 39h13zM267 550c-115 0 -175 66 -175 200
h21c4 -111 47 -173 154 -173s150 62 154 173h21c0 -134 -60 -200 -175 -200z" />
    <glyph glyph-name="ainvertedbreve.school" unicode="&#xe054;" horiz-adv-x="539" 
d="M267 22c70 0 127 14 172 42v372c-45 28 -102 42 -172 42c-149 0 -176 -115 -176 -228s27 -228 176 -228zM469 500v-500h-13l-14 39c-44 -29 -118 -44 -175 -44c-166 0 -207 111 -207 255s41 255 207 255c57 0 131 -15 175 -44l14 39h13zM267 750c115 0 175 -66 175 -200
h-21c-4 111 -47 173 -154 173s-150 -62 -154 -173h-21c0 134 60 200 175 200z" />
    <glyph glyph-name="adoublegrave.school" unicode="&#xe055;" horiz-adv-x="539" 
d="M267 22c70 0 127 14 172 42v372c-45 28 -102 42 -172 42c-149 0 -176 -115 -176 -228s27 -228 176 -228zM469 500v-500h-13l-14 39c-44 -29 -118 -44 -175 -44c-166 0 -207 111 -207 255s41 255 207 255c57 0 131 -15 175 -44l14 39h13zM327 550h-20l-75 200h35zM227 550
h-20l-75 200h35z" />
    <glyph glyph-name="adotabove.school" unicode="&#xe056;" horiz-adv-x="539" 
d="M267 22c70 0 127 14 172 42v372c-45 28 -102 42 -172 42c-149 0 -176 -115 -176 -228s27 -228 176 -228zM469 500v-500h-13l-14 39c-44 -29 -118 -44 -175 -44c-166 0 -207 111 -207 255s41 255 207 255c57 0 131 -15 175 -44l14 39h13zM237 650c0 16 13 30 30 30
c16 0 30 -14 30 -30c0 -17 -14 -30 -30 -30c-17 0 -30 13 -30 30z" />
    <glyph glyph-name="aringacute.school" unicode="&#xe057;" horiz-adv-x="539" 
d="M469 500v-500h-13l-14 39c-44 -29 -118 -44 -175 -44c-166 0 -207 111 -207 255s41 255 207 255c57 0 131 -15 175 -44l14 39h13zM267 22c70 0 127 14 172 42v372c-45 28 -102 42 -172 42c-149 0 -176 -115 -176 -228s27 -228 176 -228zM360 650c0 -65 -37 -92 -93 -92
c-57 0 -93 27 -93 92c0 17 3 34 9 48l62 140h29l-51 -103c16 7 28 8 44 8c56 0 93 -27 93 -93zM335 650c0 52 -28 69 -68 69c-41 0 -68 -17 -68 -69s27 -69 68 -69c40 0 68 17 68 69z" />
    <glyph glyph-name="adieresismacron.school" unicode="&#xe058;" horiz-adv-x="539" 
d="M267 22c70 0 127 14 172 42v372c-45 28 -102 42 -172 42c-149 0 -176 -115 -176 -228s27 -228 176 -228zM469 500v-500h-13l-14 39c-44 -29 -118 -44 -175 -44c-166 0 -207 111 -207 255s41 255 207 255c57 0 131 -15 175 -44l14 39h13zM142 615c0 16 13 30 30 30
c16 0 30 -14 30 -30c0 -17 -14 -30 -30 -30c-17 0 -30 13 -30 30zM332 615c0 16 13 30 30 30c16 0 30 -14 30 -30c0 -17 -14 -30 -30 -30c-17 0 -30 13 -30 30zM404 707h-274v27h274v-27z" />
    <glyph glyph-name="aogonek.school" unicode="&#xe059;" horiz-adv-x="539" 
d="M469 500v-500c-34 -14 -124 -67 -124 -149c0 -53 21 -77 70 -77c23 0 43 6 59 11v-25c-15 -5 -36 -10 -66 -10c-49 0 -89 30 -89 96c0 84 67 136 131 169l-8 24c-44 -29 -118 -44 -175 -44c-166 0 -207 111 -207 255s41 255 207 255c57 0 131 -15 175 -44l14 39h13z
M267 22c70 0 127 14 172 42v372c-45 28 -102 42 -172 42c-149 0 -176 -115 -176 -228s27 -228 176 -228z" />
    <glyph glyph-name="g.school" unicode="&#xe05a;" horiz-adv-x="539" 
d="M469 500v-573c0 -142 -71 -182 -206 -182c-98 0 -147 21 -166 29v30c34 -14 85 -32 166 -32c135 0 176 52 176 154v111c-45 -28 -116 -42 -172 -42c-166 0 -207 111 -207 255s41 255 207 255c57 0 131 -15 175 -44l14 39h13zM267 22c70 0 127 14 172 42v372
c-45 28 -102 42 -172 42c-149 0 -176 -115 -176 -228s27 -228 176 -228z" />
    <glyph glyph-name="gacute.school" unicode="&#xe05b;" horiz-adv-x="539" 
d="M469 500v-573c0 -142 -71 -182 -206 -182c-98 0 -147 21 -166 29v30c34 -14 85 -32 166 -32c135 0 176 52 176 154v111c-45 -28 -116 -42 -172 -42c-166 0 -207 111 -207 255s41 255 207 255c57 0 131 -15 175 -44l14 39h13zM267 22c70 0 127 14 172 42v372
c-45 28 -102 42 -172 42c-149 0 -176 -115 -176 -228s27 -228 176 -228zM277 550h-20l60 200h35z" />
    <glyph glyph-name="gcircumflex.school" unicode="&#xe05c;" horiz-adv-x="539" 
d="M469 500v-573c0 -142 -71 -182 -206 -182c-98 0 -147 21 -166 29v30c34 -14 85 -32 166 -32c135 0 176 52 176 154v111c-45 -28 -116 -42 -172 -42c-166 0 -207 111 -207 255s41 255 207 255c57 0 131 -15 175 -44l14 39h13zM267 22c70 0 127 14 172 42v372
c-45 28 -102 42 -172 42c-149 0 -176 -115 -176 -228s27 -228 176 -228zM126 550h-24l150 200h30l150 -200h-24l-141 168z" />
    <glyph glyph-name="gtilde.school" unicode="&#xe05d;" horiz-adv-x="539" 
d="M469 500v-573c0 -142 -71 -182 -206 -182c-98 0 -147 21 -166 29v30c34 -14 85 -32 166 -32c135 0 176 52 176 154v111c-45 -28 -116 -42 -172 -42c-166 0 -207 111 -207 255s41 255 207 255c57 0 131 -15 175 -44l14 39h13zM267 22c70 0 127 14 172 42v372
c-45 28 -102 42 -172 42c-149 0 -176 -115 -176 -228s27 -228 176 -228zM397 691h28c-4 -58 -36 -88 -87 -88c-72 0 -83 69 -141 69c-35 0 -58 -18 -60 -63h-28c4 58 36 88 87 88c72 0 83 -69 141 -69c35 0 58 18 60 63z" />
    <glyph glyph-name="gcaron.school" unicode="&#xe05e;" horiz-adv-x="539" 
d="M469 500v-573c0 -142 -71 -182 -206 -182c-98 0 -147 21 -166 29v30c34 -14 85 -32 166 -32c135 0 176 52 176 154v111c-45 -28 -116 -42 -172 -42c-166 0 -207 111 -207 255s41 255 207 255c57 0 131 -15 175 -44l14 39h13zM267 22c70 0 127 14 172 42v372
c-45 28 -102 42 -172 42c-149 0 -176 -115 -176 -228s27 -228 176 -228zM408 750h24l-150 -200h-30l-150 200h24l141 -168z" />
    <glyph glyph-name="gbreve.school" unicode="&#xe05f;" horiz-adv-x="539" 
d="M469 500v-573c0 -142 -71 -182 -206 -182c-98 0 -147 21 -166 29v30c34 -14 85 -32 166 -32c135 0 176 52 176 154v111c-45 -28 -116 -42 -172 -42c-166 0 -207 111 -207 255s41 255 207 255c57 0 131 -15 175 -44l14 39h13zM267 22c70 0 127 14 172 42v372
c-45 28 -102 42 -172 42c-149 0 -176 -115 -176 -228s27 -228 176 -228zM267 550c-115 0 -175 66 -175 200h21c4 -111 47 -173 154 -173s150 62 154 173h21c0 -134 -60 -200 -175 -200z" />
    <glyph glyph-name="gdotaccent.school" unicode="&#xe060;" horiz-adv-x="539" 
d="M469 500v-573c0 -142 -71 -182 -206 -182c-98 0 -147 21 -166 29v30c34 -14 85 -32 166 -32c135 0 176 52 176 154v111c-45 -28 -116 -42 -172 -42c-166 0 -207 111 -207 255s41 255 207 255c57 0 131 -15 175 -44l14 39h13zM267 22c70 0 127 14 172 42v372
c-45 28 -102 42 -172 42c-149 0 -176 -115 -176 -228s27 -228 176 -228zM237 650c0 16 13 30 30 30c16 0 30 -14 30 -30c0 -17 -14 -30 -30 -30c-17 0 -30 13 -30 30z" />
    <glyph glyph-name="gcommaaccent.school" unicode="&#xe061;" horiz-adv-x="539" 
d="M469 500v-573c0 -142 -71 -182 -206 -182c-98 0 -147 21 -166 29v30c34 -14 85 -32 166 -32c135 0 176 52 176 154v111c-45 -28 -116 -42 -172 -42c-166 0 -207 111 -207 255s41 255 207 255c57 0 131 -15 175 -44l14 39h13zM267 22c70 0 127 14 172 42v372
c-45 28 -102 42 -172 42c-149 0 -176 -115 -176 -228s27 -228 176 -228zM281 550h-37l43 200h20z" />
    <glyph glyph-name="gcommaturnedabove.school" unicode="&#xe062;" horiz-adv-x="539" 
d="M469 500v-573c0 -142 -71 -182 -206 -182c-98 0 -147 21 -166 29v30c34 -14 85 -32 166 -32c135 0 176 52 176 154v111c-45 -28 -116 -42 -172 -42c-166 0 -207 111 -207 255s41 255 207 255c57 0 131 -15 175 -44l14 39h13zM267 22c70 0 127 14 172 42v372
c-45 28 -102 42 -172 42c-149 0 -176 -115 -176 -228s27 -228 176 -228zM281 550h-37l43 200h20z" />
    <glyph glyph-name="gstroke.school" unicode="&#xe063;" horiz-adv-x="539" 
d="M557 -102h-89c-10 -118 -80 -153 -205 -153c-98 0 -147 21 -166 29v30c34 -14 85 -32 166 -32c122 0 167 43 175 126h-175v23h176v116c-45 -28 -116 -42 -172 -42c-166 0 -207 111 -207 255s41 255 207 255c57 0 131 -15 175 -44l14 39h13v-579h88v-23zM267 22
c70 0 127 14 172 42v372c-45 28 -102 42 -172 42c-149 0 -176 -115 -176 -228s27 -228 176 -228z" />
    <glyph glyph-name="y.school" unicode="&#xe064;" horiz-adv-x="506" 
d="M97 500v-368c0 -88 49 -110 132 -110c70 0 131 13 176 41v437h31v-573c0 -142 -71 -182 -206 -182c-98 0 -147 21 -166 29v30c34 -14 85 -32 166 -32c135 0 175 52 175 154v111c-45 -27 -120 -42 -176 -42c-117 0 -164 40 -164 140v365h32z" />
    <glyph glyph-name="yacute.school" unicode="&#xe065;" horiz-adv-x="506" 
d="M97 500v-368c0 -88 49 -110 132 -110c70 0 131 13 176 41v437h31v-573c0 -142 -71 -182 -206 -182c-98 0 -147 21 -166 29v30c34 -14 85 -32 166 -32c135 0 175 52 175 154v111c-45 -27 -120 -42 -176 -42c-117 0 -164 40 -164 140v365h32zM260 550h-20l60 200h35z" />
    <glyph glyph-name="ygrave.school" unicode="&#xe066;" horiz-adv-x="506" 
d="M97 500v-368c0 -88 49 -110 132 -110c70 0 131 13 176 41v437h31v-573c0 -142 -71 -182 -206 -182c-98 0 -147 21 -166 29v30c34 -14 85 -32 166 -32c135 0 175 52 175 154v111c-45 -27 -120 -42 -176 -42c-117 0 -164 40 -164 140v365h32zM260 550h-20l-75 200h35z" />
    <glyph glyph-name="ycircumflex.school" unicode="&#xe067;" horiz-adv-x="506" 
d="M97 500v-368c0 -88 49 -110 132 -110c70 0 131 13 176 41v437h31v-573c0 -142 -71 -182 -206 -182c-98 0 -147 21 -166 29v30c34 -14 85 -32 166 -32c135 0 175 52 175 154v111c-45 -27 -120 -42 -176 -42c-117 0 -164 40 -164 140v365h32zM109 550h-24l150 200h30
l150 -200h-24l-141 168z" />
    <glyph glyph-name="ydieresis.school" unicode="&#xe068;" horiz-adv-x="506" 
d="M97 500v-368c0 -88 49 -110 132 -110c70 0 131 13 176 41v437h31v-573c0 -142 -71 -182 -206 -182c-98 0 -147 21 -166 29v30c34 -14 85 -32 166 -32c135 0 175 52 175 154v111c-45 -27 -120 -42 -176 -42c-117 0 -164 40 -164 140v365h32zM125 650c0 16 13 30 30 30
c16 0 30 -14 30 -30c0 -17 -14 -30 -30 -30c-17 0 -30 13 -30 30zM315 650c0 16 13 30 30 30c16 0 30 -14 30 -30c0 -17 -14 -30 -30 -30c-17 0 -30 13 -30 30z" />
    <glyph glyph-name="ytilde.school" unicode="&#xe069;" horiz-adv-x="506" 
d="M97 500v-368c0 -88 49 -110 132 -110c70 0 131 13 176 41v437h31v-573c0 -142 -71 -182 -206 -182c-98 0 -147 21 -166 29v30c34 -14 85 -32 166 -32c135 0 175 52 175 154v111c-45 -27 -120 -42 -176 -42c-117 0 -164 40 -164 140v365h32zM380 691h28
c-4 -58 -36 -88 -87 -88c-72 0 -83 69 -141 69c-35 0 -58 -18 -60 -63h-28c4 58 36 88 87 88c72 0 83 -69 141 -69c35 0 58 18 60 63z" />
    <glyph glyph-name="ymacron.school" unicode="&#xe06a;" horiz-adv-x="506" 
d="M97 500v-368c0 -88 49 -110 132 -110c70 0 131 13 176 41v437h31v-573c0 -142 -71 -182 -206 -182c-98 0 -147 21 -166 29v30c34 -14 85 -32 166 -32c135 0 175 52 175 154v111c-45 -27 -120 -42 -176 -42c-117 0 -164 40 -164 140v365h32zM387 637h-274v27h274v-27z" />
    <glyph glyph-name="ordfeminine.school" unicode="&#xe06b;" horiz-adv-x="406" 
d="M55 565c0 136 48 190 154 190c26 0 82 -10 119 -40l12 34h15v-368h-15l-12 34c-37 -30 -93 -40 -119 -40c-106 0 -154 54 -154 190zM323 692c-24 21 -67 36 -114 36c-88 0 -123 -40 -123 -163s35 -163 123 -163c47 0 90 15 114 36v254z" />
    <glyph glyph-name="a.small" unicode="&#xe06c;" horiz-adv-x="493" 
d="M468 0h-36l-51 126h-270l-51 -126h-35l208 505h26zM246 461l-125 -309h249z" />
    <glyph glyph-name="b.small" unicode="&#xe06d;" horiz-adv-x="509" 
d="M70 0v500h205c110 0 138 -41 138 -121c0 -68 -30 -94 -60 -104c60 -15 86 -79 86 -131c0 -82 -39 -144 -158 -144h-211zM405 144c0 68 -26 116 -121 116h-182v-233h182c95 0 121 48 121 117zM102 287h187c77 0 95 34 95 92c0 57 -19 94 -102 94h-180v-186z" />
    <glyph glyph-name="c.small" unicode="&#xe06e;" horiz-adv-x="485" 
d="M55 250c0 144 67 255 235 255c44 0 100 -7 140 -20v-30c-39 10 -81 19 -142 19c-149 0 -198 -108 -198 -224s49 -224 198 -224c61 0 103 9 142 19v-30c-42 -15 -94 -20 -140 -20c-168 0 -235 111 -235 255z" />
    <glyph glyph-name="d.small" unicode="&#xe06f;" horiz-adv-x="527" 
d="M241 0h-171v500h171c171 0 231 -95 231 -250s-60 -250 -231 -250zM102 27h146c142 0 190 87 190 223s-48 223 -190 223h-146v-446z" />
    <glyph glyph-name="e.small" unicode="&#xe070;" horiz-adv-x="478" 
d="M385 270v-26h-283v-217h321v-27h-353v500h353v-27h-321v-203h283z" />
    <glyph glyph-name="f.small" unicode="&#xe071;" horiz-adv-x="458" 
d="M375 270v-26h-273v-244h-32v500h343v-27h-311v-203h273z" />
    <glyph glyph-name="g.small" unicode="&#xe072;" horiz-adv-x="532" 
d="M288 26c50 0 104 9 142 19v168h-117v27h149v-217c-43 -17 -116 -28 -174 -28c-167 0 -233 111 -233 255s66 255 233 255c64 0 127 -12 164 -27v-30c-30 11 -93 26 -164 26c-149 0 -197 -108 -197 -224s48 -224 197 -224z" />
    <glyph glyph-name="h.small" unicode="&#xe073;" horiz-adv-x="554" 
d="M484 0h-33v244h-348v-244h-33v500h33v-230h348v230h33v-500z" />
    <glyph glyph-name="i.small" unicode="&#xe074;" horiz-adv-x="216" 
d="M124 0h-32v500h32v-500z" />
    <glyph glyph-name="j.small" unicode="&#xe075;" horiz-adv-x="340" 
d="M30 -2v32c11 -3 33 -4 55 -4c82 0 136 18 136 103v371h32v-368c0 -90 -47 -137 -168 -137c-15 0 -39 1 -55 3z" />
    <glyph glyph-name="k.small" unicode="&#xe076;" horiz-adv-x="492" 
d="M419 500l-210 -201l248 -299h-42l-227 277l-86 -80l2 -197h-34v500h34l-2 -262l275 262h42z" />
    <glyph glyph-name="l.small" unicode="&#xe077;" horiz-adv-x="458" 
d="M102 500v-473h321v-27h-353v500h32z" />
    <glyph glyph-name="m.small" unicode="&#xe078;" horiz-adv-x="626" 
d="M327 34h-28l-202 410l3 -444h-30v500h30l213 -430l213 430h30v-500h-30l3 443z" />
    <glyph glyph-name="n.small" unicode="&#xe079;" horiz-adv-x="524" 
d="M454 0h-19l-334 434l2 -434h-33v500h19l334 -433l-2 433h33v-500z" />
    <glyph glyph-name="o.small" unicode="&#xe07a;" horiz-adv-x="564" 
d="M55 250c0 156 47 255 227 255c181 0 227 -99 227 -255s-46 -255 -227 -255c-180 0 -227 99 -227 255zM476 250c0 132 -36 224 -194 224c-161 0 -194 -92 -194 -224s33 -224 194 -224c158 0 194 92 194 224z" />
    <glyph glyph-name="p.small" unicode="&#xe07b;" horiz-adv-x="463" 
d="M103 190v-190h-33v500h198c108 0 160 -55 160 -155c0 -99 -52 -155 -160 -155h-165zM103 217h178c77 0 116 50 116 128c0 79 -39 128 -116 128h-178v-256z" />
    <glyph glyph-name="q.small" unicode="&#xe07c;" horiz-adv-x="564" 
d="M55 250c0 156 47 255 227 255c181 0 227 -99 227 -255c0 -141 -36 -236 -183 -253v-1l332 -81v-33l-463 123c-109 29 -140 118 -140 245zM476 250c0 132 -36 224 -194 224c-161 0 -194 -92 -194 -224s33 -224 194 -224c158 0 194 92 194 224z" />
    <glyph glyph-name="r.small" unicode="&#xe07d;" horiz-adv-x="482" 
d="M102 212v-212h-32v500h217c119 0 151 -59 151 -144c0 -73 -24 -128 -109 -141l123 -215h-39l-119 212h-192zM102 239h188c83 0 115 38 115 117c0 80 -32 117 -115 117h-188v-234z" />
    <glyph glyph-name="s.small" unicode="&#xe07e;" horiz-adv-x="470" 
d="M212 26c133 0 178 37 178 116c0 74 -38 90 -149 101c-136 13 -186 39 -186 120c0 91 53 142 202 142c64 0 127 -12 164 -27v-31c-30 11 -94 27 -164 27c-127 0 -169 -31 -169 -111c0 -66 43 -80 154 -89c136 -11 183 -44 183 -131c0 -91 -51 -148 -213 -148
c-64 0 -127 12 -164 27v31c30 -11 94 -27 164 -27z" />
    <glyph glyph-name="t.small" unicode="&#xe07f;" horiz-adv-x="477" 
d="M437 473h-182v-473h-33v473h-182v27h397v-27z" />
    <glyph glyph-name="u.small" unicode="&#xe080;" horiz-adv-x="554" 
d="M277 -5c-166 0 -212 68 -212 171v334h35v-350c0 -91 69 -124 177 -124s177 33 177 124v350h35v-334c0 -103 -46 -171 -212 -171z" />
    <glyph glyph-name="v.small" unicode="&#xe081;" horiz-adv-x="493" 
d="M432 500h36l-209 -505h-26l-208 505h35l186 -461z" />
    <glyph glyph-name="w.small" unicode="&#xe082;" horiz-adv-x="684" 
d="M326 500h32l148 -452l118 452h35l-141 -505h-23l-153 466l-153 -466h-23l-141 505h35l118 -452z" />
    <glyph glyph-name="x.small" unicode="&#xe083;" horiz-adv-x="462" 
d="M59 0h-39l194 258l-184 242h39l162 -220l162 220h39l-184 -242l194 -258h-39l-172 235z" />
    <glyph glyph-name="y.small" unicode="&#xe084;" horiz-adv-x="504" 
d="M268 0h-32v184l-211 316h36l191 -291l191 291h36l-211 -316v-184z" />
    <glyph glyph-name="z.small" unicode="&#xe085;" horiz-adv-x="484" 
d="M449 0h-414v22l362 450h-345v28h386v-22l-362 -450h373v-28z" />
    <glyph glyph-name="aacute.small" unicode="&#xe086;" horiz-adv-x="493" 
d="M468 0h-36l-51 126h-270l-51 -126h-35l208 505h26zM246 461l-125 -309h249zM257 550h-20l60 200h35z" />
    <glyph glyph-name="agrave.small" unicode="&#xe087;" horiz-adv-x="493" 
d="M468 0h-36l-51 126h-270l-51 -126h-35l208 505h26zM246 461l-125 -309h249zM256 550h-20l-75 200h35z" />
    <glyph glyph-name="acircumflex.small" unicode="&#xe088;" horiz-adv-x="493" 
d="M468 0h-36l-51 126h-270l-51 -126h-35l208 505h26zM246 461l-125 -309h249zM105 550h-24l150 200h30l150 -200h-24l-141 168z" />
    <glyph glyph-name="adieresis.small" unicode="&#xe089;" horiz-adv-x="493" 
d="M468 0h-36l-51 126h-270l-51 -126h-35l208 505h26zM246 461l-125 -309h249zM121 650c0 16 13 30 30 30c16 0 30 -14 30 -30c0 -17 -14 -30 -30 -30c-17 0 -30 13 -30 30zM311 650c0 16 13 30 30 30c16 0 30 -14 30 -30c0 -17 -14 -30 -30 -30c-17 0 -30 13 -30 30z" />
    <glyph glyph-name="atilde.small" unicode="&#xe08a;" horiz-adv-x="493" 
d="M468 0h-36l-51 126h-270l-51 -126h-35l208 505h26zM246 461l-125 -309h249zM376 691h28c-4 -58 -36 -88 -87 -88c-72 0 -83 69 -141 69c-35 0 -58 -18 -60 -63h-28c4 58 36 88 87 88c72 0 83 -69 141 -69c35 0 58 18 60 63z" />
    <glyph glyph-name="aring.small" unicode="&#xe08b;" horiz-adv-x="493" 
d="M468 0h-36l-51 126h-270l-51 -126h-35l208 505h26zM246 461l-125 -309h249zM339 650c0 -65 -37 -92 -93 -92c-57 0 -94 27 -94 92c0 66 37 93 94 93c56 0 93 -27 93 -93zM314 650c0 52 -28 69 -68 69c-41 0 -70 -17 -70 -69s29 -69 70 -69c40 0 68 17 68 69z" />
    <glyph glyph-name="acaron.small" unicode="&#xe08c;" horiz-adv-x="493" 
d="M468 0h-36l-51 126h-270l-51 -126h-35l208 505h26zM246 461l-125 -309h249zM387 750h24l-150 -200h-30l-150 200h24l141 -168z" />
    <glyph glyph-name="amacron.small" unicode="&#xe08d;" horiz-adv-x="493" 
d="M468 0h-36l-51 126h-270l-51 -126h-35l208 505h26zM246 461l-125 -309h249zM383 637h-274v27h274v-27z" />
    <glyph glyph-name="abreve.small" unicode="&#xe08e;" horiz-adv-x="493" 
d="M468 0h-36l-51 126h-270l-51 -126h-35l208 505h26zM246 461l-125 -309h249zM246 550c-115 0 -175 66 -175 200h21c4 -111 47 -173 154 -173s150 62 154 173h21c0 -134 -60 -200 -175 -200z" />
    <glyph glyph-name="ainvertedbreve.small" unicode="&#xe08f;" horiz-adv-x="493" 
d="M468 0h-36l-51 126h-270l-51 -126h-35l208 505h26zM246 461l-125 -309h249zM246 750c115 0 175 -66 175 -200h-21c-4 111 -47 173 -154 173s-150 -62 -154 -173h-21c0 134 60 200 175 200z" />
    <glyph glyph-name="adoublegrave.small" unicode="&#xe090;" horiz-adv-x="493" 
d="M468 0h-36l-51 126h-270l-51 -126h-35l208 505h26zM246 461l-125 -309h249zM306 550h-20l-75 200h35zM206 550h-20l-75 200h35z" />
    <glyph glyph-name="adotabove.small" unicode="&#xe091;" horiz-adv-x="493" 
d="M468 0h-36l-51 126h-270l-51 -126h-35l208 505h26zM246 461l-125 -309h249zM216 650c0 16 13 30 30 30c16 0 30 -14 30 -30c0 -17 -14 -30 -30 -30c-17 0 -30 13 -30 30z" />
    <glyph glyph-name="aringacute.small" unicode="&#xe092;" horiz-adv-x="493" 
d="M468 0h-36l-51 126h-270l-51 -126h-35l208 505h26zM246 461l-125 -309h249zM339 650c0 -65 -37 -92 -93 -92c-57 0 -93 27 -93 92c0 17 3 34 9 48l62 140h29l-51 -103c16 7 28 8 44 8c56 0 93 -27 93 -93zM314 650c0 52 -28 69 -68 69c-41 0 -68 -17 -68 -69
s27 -69 68 -69c40 0 68 17 68 69z" />
    <glyph glyph-name="adieresismacron.small" unicode="&#xe093;" horiz-adv-x="493" 
d="M468 0h-36l-51 126h-270l-51 -126h-35l208 505h26zM246 461l-125 -309h249zM121 615c0 16 13 30 30 30c16 0 30 -14 30 -30c0 -17 -14 -30 -30 -30c-17 0 -30 13 -30 30zM311 615c0 16 13 30 30 30c16 0 30 -14 30 -30c0 -17 -14 -30 -30 -30c-17 0 -30 13 -30 30z
M383 707h-274v27h274v-27z" />
    <glyph glyph-name="aogonek.small" unicode="&#xe094;" horiz-adv-x="493" 
d="M468 0c-34 -14 -124 -67 -124 -149c0 -53 21 -77 70 -77c23 0 43 6 59 11v-25c-15 -5 -36 -10 -66 -10c-49 0 -89 30 -89 96c0 78 57 128 112 158l-49 122h-270l-51 -126h-35l208 505h26zM246 461l-125 -309h249z" />
    <glyph glyph-name="anocross.small" unicode="&#xe095;" horiz-adv-x="493" 
d="M432 0l-186 461l-186 -461h-35l208 505h26l209 -505h-36z" />
    <glyph glyph-name="ae.small" unicode="&#xe096;" horiz-adv-x="761" 
d="M676 270v-26h-282l44 -217h276v-27h-302l-25 126h-256l-71 -126h-36l286 500h404v-27h-367l42 -203h287zM321 463l-176 -311h237z" />
    <glyph glyph-name="aeacute.small" unicode="&#xe097;" horiz-adv-x="761" 
d="M676 270v-26h-282l44 -217h276v-27h-302l-25 126h-256l-71 -126h-36l286 500h404v-27h-367l42 -203h287zM321 463l-176 -311h237zM335 550h-20l60 200h35z" />
    <glyph glyph-name="aemacron.small" unicode="&#xe098;" horiz-adv-x="761" 
d="M676 270v-26h-282l44 -217h276v-27h-302l-25 126h-256l-71 -126h-36l286 500h404v-27h-367l42 -203h287zM321 463l-176 -311h237zM462 637h-274v27h274v-27z" />
    <glyph glyph-name="cacute.small" unicode="&#xe099;" horiz-adv-x="485" 
d="M55 250c0 144 67 255 235 255c44 0 100 -7 140 -20v-30c-39 10 -81 19 -142 19c-149 0 -198 -108 -198 -224s49 -224 198 -224c61 0 103 9 142 19v-30c-42 -15 -94 -20 -140 -20c-168 0 -235 111 -235 255zM295 550h-20l60 200h35z" />
    <glyph glyph-name="ccircumflex.small" unicode="&#xe09a;" horiz-adv-x="485" 
d="M55 250c0 144 67 255 235 255c44 0 100 -7 140 -20v-30c-39 10 -81 19 -142 19c-149 0 -198 -108 -198 -224s49 -224 198 -224c61 0 103 9 142 19v-30c-42 -15 -94 -20 -140 -20c-168 0 -235 111 -235 255zM144 550h-24l150 200h30l150 -200h-24l-141 168z" />
    <glyph glyph-name="ccaron.small" unicode="&#xe09b;" horiz-adv-x="485" 
d="M55 250c0 144 67 255 235 255c44 0 100 -7 140 -20v-30c-39 10 -81 19 -142 19c-149 0 -198 -108 -198 -224s49 -224 198 -224c61 0 103 9 142 19v-30c-42 -15 -94 -20 -140 -20c-168 0 -235 111 -235 255zM426 750h24l-150 -200h-30l-150 200h24l141 -168z" />
    <glyph glyph-name="cdotaccent.small" unicode="&#xe09c;" horiz-adv-x="485" 
d="M55 250c0 144 67 255 235 255c44 0 100 -7 140 -20v-30c-39 10 -81 19 -142 19c-149 0 -198 -108 -198 -224s49 -224 198 -224c61 0 103 9 142 19v-30c-42 -15 -94 -20 -140 -20c-168 0 -235 111 -235 255zM255 650c0 16 13 30 30 30c16 0 30 -14 30 -30
c0 -17 -14 -30 -30 -30c-17 0 -30 13 -30 30z" />
    <glyph glyph-name="ccedilla.small" unicode="&#xe09d;" horiz-adv-x="485" 
d="M55 250c0 144 67 255 235 255c44 0 100 -7 140 -20v-30c-39 10 -81 19 -142 19c-149 0 -198 -108 -198 -224s49 -224 198 -224c61 0 103 9 142 19v-30c-41 -15 -91 -19 -136 -20l4 -67c45 -9 97 -42 97 -94c0 -51 -40 -84 -104 -84c-44 0 -69 10 -82 16v27
c17 -6 44 -16 75 -16c58 0 81 23 81 55c0 46 -37 67 -96 78l6 85c-157 6 -220 115 -220 255z" />
    <glyph glyph-name="dcaron.small" unicode="&#xe09e;" horiz-adv-x="527" 
d="M241 0h-171v500h171c171 0 231 -95 231 -250s-60 -250 -231 -250zM102 27h146c142 0 190 87 190 223s-48 223 -190 223h-146v-446zM382 750h24l-150 -200h-30l-150 200h24l141 -168z" />
    <glyph glyph-name="dcedilla.small" unicode="&#xe09f;" horiz-adv-x="527" 
d="M241 0h-171v500h171c171 0 231 -95 231 -250s-60 -250 -231 -250zM102 27h146c142 0 190 87 190 223s-48 223 -190 223h-146v-446zM225 -90l2 24c77 -12 124 -50 124 -100c0 -51 -40 -84 -104 -84c-44 0 -69 10 -82 16v27c17 -6 44 -16 75 -16c58 0 81 23 81 55
c0 46 -37 67 -96 78z" />
    <glyph glyph-name="ddotbelow.small" unicode="&#xe0a0;" horiz-adv-x="527" 
d="M241 0h-171v500h171c171 0 231 -95 231 -250s-60 -250 -231 -250zM102 27h146c142 0 190 87 190 223s-48 223 -190 223h-146v-446zM211 -150c0 16 13 30 30 30c16 0 30 -14 30 -30c0 -17 -14 -30 -30 -30c-17 0 -30 13 -30 30z" />
    <glyph glyph-name="dcroat.small" unicode="&#xe0a1;" horiz-adv-x="562" 
d="M15 236v28h90v236h171c171 0 231 -95 231 -250s-60 -250 -231 -250h-171v236h-90zM137 27h146c142 0 190 87 190 223s-48 223 -190 223h-146v-209h131v-28h-131v-209z" />
    <glyph glyph-name="eacute.small" unicode="&#xe0a2;" horiz-adv-x="478" 
d="M385 270v-26h-283v-217h321v-27h-353v500h353v-27h-321v-203h283zM258 550h-20l60 200h35z" />
    <glyph glyph-name="egrave.small" unicode="&#xe0a3;" horiz-adv-x="478" 
d="M385 270v-26h-283v-217h321v-27h-353v500h353v-27h-321v-203h283zM258 550h-20l-75 200h35z" />
    <glyph glyph-name="ecircumflex.small" unicode="&#xe0a4;" horiz-adv-x="478" 
d="M385 270v-26h-283v-217h321v-27h-353v500h353v-27h-321v-203h283zM107 550h-24l150 200h30l150 -200h-24l-141 168z" />
    <glyph glyph-name="edieresis.small" unicode="&#xe0a5;" horiz-adv-x="478" 
d="M385 270v-26h-283v-217h321v-27h-353v500h353v-27h-321v-203h283zM123 650c0 16 13 30 30 30c16 0 30 -14 30 -30c0 -17 -14 -30 -30 -30c-17 0 -30 13 -30 30zM313 650c0 16 13 30 30 30c16 0 30 -14 30 -30c0 -17 -14 -30 -30 -30c-17 0 -30 13 -30 30z" />
    <glyph glyph-name="ecaron.small" unicode="&#xe0a6;" horiz-adv-x="478" 
d="M385 270v-26h-283v-217h321v-27h-353v500h353v-27h-321v-203h283zM389 750h24l-150 -200h-30l-150 200h24l141 -168z" />
    <glyph glyph-name="emacron.small" unicode="&#xe0a7;" horiz-adv-x="478" 
d="M385 270v-26h-283v-217h321v-27h-353v500h353v-27h-321v-203h283zM385 637h-274v27h274v-27z" />
    <glyph glyph-name="ebreve.small" unicode="&#xe0a8;" horiz-adv-x="478" 
d="M385 270v-26h-283v-217h321v-27h-353v500h353v-27h-321v-203h283zM248 550c-115 0 -175 66 -175 200h21c4 -111 47 -173 154 -173s150 62 154 173h21c0 -134 -60 -200 -175 -200z" />
    <glyph glyph-name="einvertedbreve.small" unicode="&#xe0a9;" horiz-adv-x="478" 
d="M385 270v-26h-283v-217h321v-27h-353v500h353v-27h-321v-203h283zM248 750c115 0 175 -66 175 -200h-21c-4 111 -47 173 -154 173s-150 -62 -154 -173h-21c0 134 60 200 175 200z" />
    <glyph glyph-name="edoublegrave.small" unicode="&#xe0aa;" horiz-adv-x="478" 
d="M385 270v-26h-283v-217h321v-27h-353v500h353v-27h-321v-203h283zM308 550h-20l-75 200h35zM208 550h-20l-75 200h35z" />
    <glyph glyph-name="edotaccent.small" unicode="&#xe0ab;" horiz-adv-x="478" 
d="M385 270v-26h-283v-217h321v-27h-353v500h353v-27h-321v-203h283zM218 650c0 16 13 30 30 30c16 0 30 -14 30 -30c0 -17 -14 -30 -30 -30c-17 0 -30 13 -30 30z" />
    <glyph glyph-name="eacutedotbelow.small" unicode="&#xe0ac;" horiz-adv-x="478" 
d="M385 270v-26h-283v-217h321v-27h-353v500h353v-27h-321v-203h283zM218 -150c0 16 13 30 30 30c16 0 30 -14 30 -30c0 -17 -14 -30 -30 -30c-17 0 -30 13 -30 30zM258 550h-20l60 200h35z" />
    <glyph glyph-name="egravedotbelow.small" unicode="&#xe0ad;" horiz-adv-x="478" 
d="M385 270v-26h-283v-217h321v-27h-353v500h353v-27h-321v-203h283zM218 -150c0 16 13 30 30 30c16 0 30 -14 30 -30c0 -17 -14 -30 -30 -30c-17 0 -30 13 -30 30zM258 550h-20l-75 200h35z" />
    <glyph glyph-name="eogonek.small" unicode="&#xe0ae;" horiz-adv-x="478" 
d="M385 270v-26h-283v-217h321v-27c-34 -14 -124 -67 -124 -149c0 -53 21 -77 70 -77c23 0 43 6 59 11v-25c-15 -5 -36 -10 -66 -10c-49 0 -89 30 -89 96c0 72 50 121 104 154h-307v500h353v-27h-321v-203h283z" />
    <glyph glyph-name="gacute.small" unicode="&#xe0af;" horiz-adv-x="532" 
d="M288 26c50 0 104 9 142 19v168h-117v27h149v-217c-43 -17 -116 -28 -174 -28c-167 0 -233 111 -233 255s66 255 233 255c64 0 127 -12 164 -27v-30c-30 11 -93 26 -164 26c-149 0 -197 -108 -197 -224s48 -224 197 -224zM296 550h-20l60 200h35z" />
    <glyph glyph-name="gcircumflex.small" unicode="&#xe0b0;" horiz-adv-x="532" 
d="M288 26c50 0 104 9 142 19v168h-117v27h149v-217c-43 -17 -116 -28 -174 -28c-167 0 -233 111 -233 255s66 255 233 255c64 0 127 -12 164 -27v-30c-30 11 -93 26 -164 26c-149 0 -197 -108 -197 -224s48 -224 197 -224zM145 550h-24l150 200h30l150 -200h-24l-141 168z
" />
    <glyph glyph-name="gtilde.small" unicode="&#xe0b1;" horiz-adv-x="532" 
d="M288 26c50 0 104 9 142 19v168h-117v27h149v-217c-43 -17 -116 -28 -174 -28c-167 0 -233 111 -233 255s66 255 233 255c64 0 127 -12 164 -27v-30c-30 11 -93 26 -164 26c-149 0 -197 -108 -197 -224s48 -224 197 -224zM416 691h28c-4 -58 -36 -88 -87 -88
c-72 0 -83 69 -141 69c-35 0 -58 -18 -60 -63h-28c4 58 36 88 87 88c72 0 83 -69 141 -69c35 0 58 18 60 63z" />
    <glyph glyph-name="gcaron.small" unicode="&#xe0b2;" horiz-adv-x="532" 
d="M288 26c50 0 104 9 142 19v168h-117v27h149v-217c-43 -17 -116 -28 -174 -28c-167 0 -233 111 -233 255s66 255 233 255c64 0 127 -12 164 -27v-30c-30 11 -93 26 -164 26c-149 0 -197 -108 -197 -224s48 -224 197 -224zM427 750h24l-150 -200h-30l-150 200h24l141 -168z
" />
    <glyph glyph-name="gbreve.small" unicode="&#xe0b3;" horiz-adv-x="532" 
d="M288 26c50 0 104 9 142 19v168h-117v27h149v-217c-43 -17 -116 -28 -174 -28c-167 0 -233 111 -233 255s66 255 233 255c64 0 127 -12 164 -27v-30c-30 11 -93 26 -164 26c-149 0 -197 -108 -197 -224s48 -224 197 -224zM286 550c-115 0 -175 66 -175 200h21
c4 -111 47 -173 154 -173s150 62 154 173h21c0 -134 -60 -200 -175 -200z" />
    <glyph glyph-name="gdotaccent.small" unicode="&#xe0b4;" horiz-adv-x="532" 
d="M288 26c50 0 104 9 142 19v168h-117v27h149v-217c-43 -17 -116 -28 -174 -28c-167 0 -233 111 -233 255s66 255 233 255c64 0 127 -12 164 -27v-30c-30 11 -93 26 -164 26c-149 0 -197 -108 -197 -224s48 -224 197 -224zM256 650c0 16 13 30 30 30c16 0 30 -14 30 -30
c0 -17 -14 -30 -30 -30c-17 0 -30 13 -30 30z" />
    <glyph glyph-name="gcommaaccent.small" unicode="&#xe0b5;" horiz-adv-x="532" 
d="M288 26c50 0 104 9 142 19v168h-117v27h149v-217c-43 -17 -116 -28 -174 -28c-167 0 -233 111 -233 255s66 255 233 255c64 0 127 -12 164 -27v-30c-30 11 -93 26 -164 26c-149 0 -197 -108 -197 -224s48 -224 197 -224zM267 -50h37l-43 -200h-20z" />
    <glyph glyph-name="gcommaturnedabove.small" unicode="&#xe0b6;" horiz-adv-x="532" 
d="M288 26c50 0 104 9 142 19v168h-117v27h149v-217c-43 -17 -116 -28 -174 -28c-167 0 -233 111 -233 255s66 255 233 255c64 0 127 -12 164 -27v-30c-30 11 -93 26 -164 26c-149 0 -197 -108 -197 -224s48 -224 197 -224zM302 550h-37l43 200h20z" />
    <glyph glyph-name="gstroke.small" unicode="&#xe0b7;" horiz-adv-x="532" 
d="M430 143v70h-117v27h149v-97h56v-25h-56v-95c-43 -17 -116 -28 -174 -28c-167 0 -233 111 -233 255s66 255 233 255c64 0 127 -12 164 -27v-30c-30 11 -93 26 -164 26c-149 0 -197 -108 -197 -224s48 -224 197 -224c50 0 104 9 142 19v73h-98v25h98z" />
    <glyph glyph-name="hcircumflex.small" unicode="&#xe0b8;" horiz-adv-x="554" 
d="M484 0h-33v244h-348v-244h-33v500h33v-230h348v230h33v-500zM136 550h-24l150 200h30l150 -200h-24l-141 168z" />
    <glyph glyph-name="hcaron.small" unicode="&#xe0b9;" horiz-adv-x="554" 
d="M484 0h-33v244h-348v-244h-33v500h33v-230h348v230h33v-500zM418 750h24l-150 -200h-30l-150 200h24l141 -168z" />
    <glyph glyph-name="hdotbelow.small" unicode="&#xe0ba;" horiz-adv-x="554" 
d="M484 0h-33v244h-348v-244h-33v500h33v-230h348v230h33v-500zM247 -150c0 16 13 30 30 30c16 0 30 -14 30 -30c0 -17 -14 -30 -30 -30c-17 0 -30 13 -30 30z" />
    <glyph glyph-name="hmacronbelow.small" unicode="&#xe0bb;" horiz-adv-x="554" 
d="M484 0h-33v244h-348v-244h-33v500h33v-230h348v230h33v-500zM414 -163h-274v27h274v-27z" />
    <glyph glyph-name="hbar.small" unicode="&#xe0bc;" horiz-adv-x="554" 
d="M484 0h-33v244h-348v-244h-33v500h33v-97h348v97h33v-500zM103 270h348v107h-348v-107z" />
    <glyph glyph-name="iacute.small" unicode="&#xe0bd;" horiz-adv-x="216" 
d="M124 0h-32v500h32v-500zM118 550h-20l60 200h35z" />
    <glyph glyph-name="igrave.small" unicode="&#xe0be;" horiz-adv-x="216" 
d="M124 0h-32v500h32v-500zM118 550h-20l-75 200h35z" />
    <glyph glyph-name="icircumflex.small" unicode="&#xe0bf;" horiz-adv-x="216" 
d="M124 0h-32v500h32v-500zM-33 550h-24l150 200h30l150 -200h-24l-141 168z" />
    <glyph glyph-name="idieresis.small" unicode="&#xe0c0;" horiz-adv-x="216" 
d="M124 0h-32v500h32v-500zM3 650c0 16 13 30 30 30c16 0 30 -14 30 -30c0 -17 -14 -30 -30 -30c-17 0 -30 13 -30 30zM153 650c0 16 13 30 30 30c16 0 30 -14 30 -30c0 -17 -14 -30 -30 -30c-17 0 -30 13 -30 30z" />
    <glyph glyph-name="itilde.small" unicode="&#xe0c1;" horiz-adv-x="216" 
d="M124 0h-32v500h32v-500zM238 691h28c-4 -58 -36 -88 -87 -88c-72 0 -83 69 -141 69c-35 0 -58 -18 -60 -63h-28c4 58 36 88 87 88c72 0 83 -69 141 -69c35 0 58 18 60 63z" />
    <glyph glyph-name="icaron.small" unicode="&#xe0c2;" horiz-adv-x="216" 
d="M124 0h-32v500h32v-500zM249 750h24l-150 -200h-30l-150 200h24l141 -168z" />
    <glyph glyph-name="imacron.small" unicode="&#xe0c3;" horiz-adv-x="216" 
d="M124 0h-32v500h32v-500zM245 637h-274v27h274v-27z" />
    <glyph glyph-name="ibreve.small" unicode="&#xe0c4;" horiz-adv-x="216" 
d="M124 0h-32v500h32v-500zM108 550c-115 0 -175 66 -175 200h21c4 -111 47 -173 154 -173s150 62 154 173h21c0 -134 -60 -200 -175 -200z" />
    <glyph glyph-name="iinvertedbreve.small" unicode="&#xe0c5;" horiz-adv-x="216" 
d="M124 0h-32v500h32v-500zM108 750c115 0 175 -66 175 -200h-21c-4 111 -47 173 -154 173s-150 -62 -154 -173h-21c0 134 60 200 175 200z" />
    <glyph glyph-name="idoublegrave.small" unicode="&#xe0c6;" horiz-adv-x="216" 
d="M124 0h-32v500h32v-500zM158 550h-20l-75 200h35zM78 550h-20l-75 200h35z" />
    <glyph glyph-name="idotaccent.small" unicode="&#xe0c7;" horiz-adv-x="216" 
d="M124 0h-32v500h32v-500zM78 650c0 16 13 30 30 30c16 0 30 -14 30 -30c0 -17 -14 -30 -30 -30c-17 0 -30 13 -30 30z" />
    <glyph glyph-name="idotbelow.small" unicode="&#xe0c8;" horiz-adv-x="216" 
d="M124 0h-32v500h32v-500zM78 -150c0 16 13 30 30 30c16 0 30 -14 30 -30c0 -17 -14 -30 -30 -30c-17 0 -30 13 -30 30z" />
    <glyph glyph-name="iogonek.small" unicode="&#xe0c9;" horiz-adv-x="216" 
d="M124 0c-34 -14 -88 -67 -88 -149c0 -53 24 -77 73 -77c23 0 43 6 59 11v-25c-15 -5 -36 -10 -66 -10c-49 0 -92 30 -92 96s32 123 82 162v492h32v-500z" />
    <glyph glyph-name="jcircumflex.small" unicode="&#xe0ca;" horiz-adv-x="340" 
d="M30 -2v32c11 -3 33 -4 55 -4c82 0 136 18 136 103v371h32v-368c0 -90 -47 -137 -168 -137c-15 0 -39 1 -55 3zM96 550h-24l150 200h30l150 -200h-24l-141 168z" />
    <glyph glyph-name="jcaron.small" unicode="&#xe0cb;" horiz-adv-x="340" 
d="M30 -2v32c11 -3 33 -4 55 -4c82 0 136 18 136 103v371h32v-368c0 -90 -47 -137 -168 -137c-15 0 -39 1 -55 3zM378 750h24l-150 -200h-30l-150 200h24l141 -168z" />
    <glyph glyph-name="kcaron.small" unicode="&#xe0cc;" horiz-adv-x="492" 
d="M371 750h24l-150 -200h-30l-150 200h24l141 -168zM419 500l-210 -201l248 -299h-42l-227 277l-86 -80l2 -197h-34v500h34l-2 -262l275 262h42z" />
    <glyph glyph-name="kcommaaccent.small" unicode="&#xe0cd;" horiz-adv-x="492" 
d="M219 -50h37l-43 -200h-20zM419 500l-210 -201l248 -299h-42l-227 277l-86 -80l2 -197h-34v500h34l-2 -262l275 262h42z" />
    <glyph glyph-name="kcedilla.small" unicode="&#xe0ce;" horiz-adv-x="492" 
d="M214 -90l2 24c77 -12 124 -50 124 -100c0 -51 -40 -84 -104 -84c-44 0 -69 10 -82 16v27c17 -6 44 -16 75 -16c58 0 81 23 81 55c0 46 -37 67 -96 78zM419 500l-210 -201l248 -299h-42l-227 277l-86 -80l2 -197h-34v500h34l-2 -262l275 262h42z" />
    <glyph glyph-name="khook.small" unicode="&#xe0cf;" horiz-adv-x="492" 
d="M104 0h-34v500h34l-2 -264c50 15 83 42 115 106c44 89 88 158 207 158v-29c-92 -1 -137 -46 -185 -151c-6 -12 -12 -23 -20 -34l238 -286h-42l-215 262c-29 -30 -66 -50 -98 -60z" />
    <glyph glyph-name="lacute.small" unicode="&#xe0d0;" horiz-adv-x="458" 
d="M102 500v-473h321v-27h-353v500h32zM95 550h-20l60 200h35z" />
    <glyph glyph-name="lcaron.small" unicode="&#xe0d1;" horiz-adv-x="458" 
d="M102 500v-473h321v-27h-353v500h32zM227 625h34l-40 -200h-20z" />
    <glyph glyph-name="lcommaaccent.small" unicode="&#xe0d2;" horiz-adv-x="458" 
d="M102 500v-473h321v-27h-353v500h32zM231 -50h37l-43 -200h-20z" />
    <glyph glyph-name="lcedilla.small" unicode="&#xe0d3;" horiz-adv-x="458" 
d="M102 500v-473h321v-27h-353v500h32zM229 -90l2 24c77 -12 124 -50 124 -100c0 -51 -40 -84 -104 -84c-44 0 -69 10 -82 16v27c17 -6 44 -16 75 -16c58 0 81 23 81 55c0 46 -37 67 -96 78z" />
    <glyph glyph-name="ldotbelow.small" unicode="&#xe0d4;" horiz-adv-x="458" 
d="M102 500v-473h321v-27h-353v500h32zM215 -150c0 16 13 30 30 30c16 0 30 -14 30 -30c0 -17 -14 -30 -30 -30c-17 0 -30 13 -30 30z" />
    <glyph glyph-name="ldotbelowmacron.small" unicode="&#xe0d5;" horiz-adv-x="458" 
d="M102 500v-473h321v-27h-353v500h32zM215 -150c0 16 13 30 30 30c16 0 30 -14 30 -30c0 -17 -14 -30 -30 -30c-17 0 -30 13 -30 30zM222 637h-274v27h274v-27z" />
    <glyph glyph-name="ldot.small" unicode="&#xe0d6;" horiz-adv-x="458" 
d="M102 500v-473h321v-27h-353v500h32zM300 275c0 16 13 30 30 30c16 0 30 -14 30 -30c0 -17 -14 -30 -30 -30c-17 0 -30 13 -30 30z" />
    <glyph glyph-name="lslash.small" unicode="&#xe0d7;" horiz-adv-x="478" 
d="M352 341v-30l-225 -118v-166h321v-27h-353v176l-90 -47v30l90 47v294h32v-277z" />
    <glyph glyph-name="mmacron.small" unicode="&#xe0d8;" horiz-adv-x="626" 
d="M327 34h-28l-202 410l3 -444h-30v500h30l213 -430l213 430h30v-500h-30l3 443zM450 637h-274v27h274v-27z" />
    <glyph glyph-name="mcedilla.small" unicode="&#xe0d9;" horiz-adv-x="626" 
d="M327 34h-28l-202 410l3 -444h-30v500h30l213 -430l213 430h30v-500h-30l3 443zM280 -90l2 24c77 -12 124 -50 124 -100c0 -51 -40 -84 -104 -84c-44 0 -69 10 -82 16v27c17 -6 44 -16 75 -16c58 0 81 23 81 55c0 46 -37 67 -96 78z" />
    <glyph glyph-name="mdotbelow.small" unicode="&#xe0da;" horiz-adv-x="626" 
d="M327 34h-28l-202 410l3 -444h-30v500h30l213 -430l213 430h30v-500h-30l3 443zM283 -150c0 16 13 30 30 30c16 0 30 -14 30 -30c0 -17 -14 -30 -30 -30c-17 0 -30 13 -30 30z" />
    <glyph glyph-name="nacute.small" unicode="&#xe0db;" horiz-adv-x="524" 
d="M454 0h-19l-334 434l2 -434h-33v500h19l334 -433l-2 433h33v-500zM272 550h-20l60 200h35z" />
    <glyph glyph-name="ngrave.small" unicode="&#xe0dc;" horiz-adv-x="524" 
d="M454 0h-19l-334 434l2 -434h-33v500h19l334 -433l-2 433h33v-500zM272 550h-20l-75 200h35z" />
    <glyph glyph-name="ndieresis.small" unicode="&#xe0dd;" horiz-adv-x="524" 
d="M454 0h-19l-334 434l2 -434h-33v500h19l334 -433l-2 433h33v-500zM137 650c0 16 13 30 30 30c16 0 30 -14 30 -30c0 -17 -14 -30 -30 -30c-17 0 -30 13 -30 30zM327 650c0 16 13 30 30 30c16 0 30 -14 30 -30c0 -17 -14 -30 -30 -30c-17 0 -30 13 -30 30z" />
    <glyph glyph-name="ntilde.small" unicode="&#xe0de;" horiz-adv-x="524" 
d="M454 0h-19l-334 434l2 -434h-33v500h19l334 -433l-2 433h33v-500zM392 691h28c-4 -58 -36 -88 -87 -88c-72 0 -83 69 -141 69c-35 0 -58 -18 -60 -63h-28c4 58 36 88 87 88c72 0 83 -69 141 -69c35 0 58 18 60 63z" />
    <glyph glyph-name="ncaron.small" unicode="&#xe0df;" horiz-adv-x="524" 
d="M454 0h-19l-334 434l2 -434h-33v500h19l334 -433l-2 433h33v-500zM403 750h24l-150 -200h-30l-150 200h24l141 -168z" />
    <glyph glyph-name="nmacron.small" unicode="&#xe0e0;" horiz-adv-x="524" 
d="M454 0h-19l-334 434l2 -434h-33v500h19l334 -433l-2 433h33v-500zM399 637h-274v27h274v-27z" />
    <glyph glyph-name="ndotaccent.small" unicode="&#xe0e1;" horiz-adv-x="524" 
d="M454 0h-19l-334 434l2 -434h-33v500h19l334 -433l-2 433h33v-500zM232 650c0 16 13 30 30 30c16 0 30 -14 30 -30c0 -17 -14 -30 -30 -30c-17 0 -30 13 -30 30z" />
    <glyph glyph-name="ncommaaccent.small" unicode="&#xe0e2;" horiz-adv-x="524" 
d="M454 0h-19l-334 434l2 -434h-33v500h19l334 -433l-2 433h33v-500zM248 -50h37l-43 -200h-20z" />
    <glyph glyph-name="ncedilla.small" unicode="&#xe0e3;" horiz-adv-x="524" 
d="M454 0h-19l-334 434l2 -434h-33v500h19l334 -433l-2 433h33v-500zM246 -90l2 24c77 -12 124 -50 124 -100c0 -51 -40 -84 -104 -84c-44 0 -69 10 -82 16v27c17 -6 44 -16 75 -16c58 0 81 23 81 55c0 46 -37 67 -96 78z" />
    <glyph glyph-name="ndotbelow.small" unicode="&#xe0e4;" horiz-adv-x="524" 
d="M454 0h-19l-334 434l2 -434h-33v500h19l334 -433l-2 433h33v-500zM232 -150c0 16 13 30 30 30c16 0 30 -14 30 -30c0 -17 -14 -30 -30 -30c-17 0 -30 13 -30 30z" />
    <glyph glyph-name="ndescender.small" unicode="&#xe0e5;" horiz-adv-x="524" 
d="M486 -125h-32v125h-19l-334 434l2 -434h-33v500h19l334 -433l-2 433h33v-471h32v-154z" />
    <glyph glyph-name="oacute.small" unicode="&#xe0e6;" horiz-adv-x="564" 
d="M55 250c0 156 47 255 227 255c181 0 227 -99 227 -255s-46 -255 -227 -255c-180 0 -227 99 -227 255zM476 250c0 132 -36 224 -194 224c-161 0 -194 -92 -194 -224s33 -224 194 -224c158 0 194 92 194 224zM292 550h-20l60 200h35z" />
    <glyph glyph-name="ograve.small" unicode="&#xe0e7;" horiz-adv-x="564" 
d="M55 250c0 156 47 255 227 255c181 0 227 -99 227 -255s-46 -255 -227 -255c-180 0 -227 99 -227 255zM476 250c0 132 -36 224 -194 224c-161 0 -194 -92 -194 -224s33 -224 194 -224c158 0 194 92 194 224zM292 550h-20l-75 200h35z" />
    <glyph glyph-name="ocircumflex.small" unicode="&#xe0e8;" horiz-adv-x="564" 
d="M55 250c0 156 47 255 227 255c181 0 227 -99 227 -255s-46 -255 -227 -255c-180 0 -227 99 -227 255zM476 250c0 132 -36 224 -194 224c-161 0 -194 -92 -194 -224s33 -224 194 -224c158 0 194 92 194 224zM141 550h-24l150 200h30l150 -200h-24l-141 168z" />
    <glyph glyph-name="odieresis.small" unicode="&#xe0e9;" horiz-adv-x="564" 
d="M55 250c0 156 47 255 227 255c181 0 227 -99 227 -255s-46 -255 -227 -255c-180 0 -227 99 -227 255zM476 250c0 132 -36 224 -194 224c-161 0 -194 -92 -194 -224s33 -224 194 -224c158 0 194 92 194 224zM157 650c0 16 13 30 30 30c16 0 30 -14 30 -30
c0 -17 -14 -30 -30 -30c-17 0 -30 13 -30 30zM347 650c0 16 13 30 30 30c16 0 30 -14 30 -30c0 -17 -14 -30 -30 -30c-17 0 -30 13 -30 30z" />
    <glyph glyph-name="otilde.small" unicode="&#xe0ea;" horiz-adv-x="564" 
d="M55 250c0 156 47 255 227 255c181 0 227 -99 227 -255s-46 -255 -227 -255c-180 0 -227 99 -227 255zM476 250c0 132 -36 224 -194 224c-161 0 -194 -92 -194 -224s33 -224 194 -224c158 0 194 92 194 224zM412 691h28c-4 -58 -36 -88 -87 -88c-72 0 -83 69 -141 69
c-35 0 -58 -18 -60 -63h-28c4 58 36 88 87 88c72 0 83 -69 141 -69c35 0 58 18 60 63z" />
    <glyph glyph-name="ocaron.small" unicode="&#xe0eb;" horiz-adv-x="564" 
d="M55 250c0 156 47 255 227 255c181 0 227 -99 227 -255s-46 -255 -227 -255c-180 0 -227 99 -227 255zM476 250c0 132 -36 224 -194 224c-161 0 -194 -92 -194 -224s33 -224 194 -224c158 0 194 92 194 224zM423 750h24l-150 -200h-30l-150 200h24l141 -168z" />
    <glyph glyph-name="omacron.small" unicode="&#xe0ec;" horiz-adv-x="564" 
d="M55 250c0 156 47 255 227 255c181 0 227 -99 227 -255s-46 -255 -227 -255c-180 0 -227 99 -227 255zM476 250c0 132 -36 224 -194 224c-161 0 -194 -92 -194 -224s33 -224 194 -224c158 0 194 92 194 224zM419 637h-274v27h274v-27z" />
    <glyph glyph-name="obreve.small" unicode="&#xe0ed;" horiz-adv-x="564" 
d="M55 250c0 156 47 255 227 255c181 0 227 -99 227 -255s-46 -255 -227 -255c-180 0 -227 99 -227 255zM476 250c0 132 -36 224 -194 224c-161 0 -194 -92 -194 -224s33 -224 194 -224c158 0 194 92 194 224zM282 550c-115 0 -175 66 -175 200h21c4 -111 47 -173 154 -173
s150 62 154 173h21c0 -134 -60 -200 -175 -200z" />
    <glyph glyph-name="oinvertedbreve.small" unicode="&#xe0ee;" horiz-adv-x="564" 
d="M55 250c0 156 47 255 227 255c181 0 227 -99 227 -255s-46 -255 -227 -255c-180 0 -227 99 -227 255zM476 250c0 132 -36 224 -194 224c-161 0 -194 -92 -194 -224s33 -224 194 -224c158 0 194 92 194 224zM282 750c115 0 175 -66 175 -200h-21c-4 111 -47 173 -154 173
s-150 -62 -154 -173h-21c0 134 60 200 175 200z" />
    <glyph glyph-name="ohungarumlaut.small" unicode="&#xe0ef;" horiz-adv-x="564" 
d="M55 250c0 156 47 255 227 255c181 0 227 -99 227 -255s-46 -255 -227 -255c-180 0 -227 99 -227 255zM476 250c0 132 -36 224 -194 224c-161 0 -194 -92 -194 -224s33 -224 194 -224c158 0 194 92 194 224zM242 550h-20l60 200h35zM342 550h-20l60 200h35z" />
    <glyph glyph-name="odoublegrave.small" unicode="&#xe0f0;" horiz-adv-x="564" 
d="M55 250c0 156 47 255 227 255c181 0 227 -99 227 -255s-46 -255 -227 -255c-180 0 -227 99 -227 255zM476 250c0 132 -36 224 -194 224c-161 0 -194 -92 -194 -224s33 -224 194 -224c158 0 194 92 194 224zM342 550h-20l-75 200h35zM242 550h-20l-75 200h35z" />
    <glyph glyph-name="ocommaturnedabove.small" unicode="&#xe0f1;" horiz-adv-x="564" 
d="M55 250c0 156 47 255 227 255c181 0 227 -99 227 -255s-46 -255 -227 -255c-180 0 -227 99 -227 255zM476 250c0 132 -36 224 -194 224c-161 0 -194 -92 -194 -224s33 -224 194 -224c158 0 194 92 194 224zM301 550h-37l43 200h20z" />
    <glyph glyph-name="otildemacron.small" unicode="&#xe0f2;" horiz-adv-x="564" 
d="M55 250c0 156 47 255 227 255c181 0 227 -99 227 -255s-46 -255 -227 -255c-180 0 -227 99 -227 255zM476 250c0 132 -36 224 -194 224c-161 0 -194 -92 -194 -224s33 -224 194 -224c158 0 194 92 194 224zM412 656h28c-4 -58 -36 -88 -87 -88c-72 0 -83 69 -141 69
c-35 0 -58 -18 -60 -63h-28c4 58 36 88 87 88c72 0 83 -69 141 -69c35 0 58 18 60 63zM419 707h-274v27h274v-27z" />
    <glyph glyph-name="odotabove.small" unicode="&#xe0f3;" horiz-adv-x="564" 
d="M55 250c0 156 47 255 227 255c181 0 227 -99 227 -255s-46 -255 -227 -255c-180 0 -227 99 -227 255zM476 250c0 132 -36 224 -194 224c-161 0 -194 -92 -194 -224s33 -224 194 -224c158 0 194 92 194 224zM252 650c0 16 13 30 30 30c16 0 30 -14 30 -30
c0 -17 -14 -30 -30 -30c-17 0 -30 13 -30 30z" />
    <glyph glyph-name="odotabovemacron.small" unicode="&#xe0f4;" horiz-adv-x="564" 
d="M55 250c0 156 47 255 227 255c181 0 227 -99 227 -255s-46 -255 -227 -255c-180 0 -227 99 -227 255zM476 250c0 132 -36 224 -194 224c-161 0 -194 -92 -194 -224s33 -224 194 -224c158 0 194 92 194 224zM252 615c0 16 13 30 30 30c16 0 30 -14 30 -30
c0 -17 -14 -30 -30 -30c-17 0 -30 13 -30 30zM419 707h-274v27h274v-27z" />
    <glyph glyph-name="ocedilla.small" unicode="&#xe0f5;" horiz-adv-x="564" 
d="M55 250c0 156 47 255 227 255c181 0 227 -99 227 -255s-46 -255 -227 -255c-180 0 -227 99 -227 255zM476 250c0 132 -36 224 -194 224c-161 0 -194 -92 -194 -224s33 -224 194 -224c158 0 194 92 194 224zM266 -90l2 24c77 -12 124 -50 124 -100c0 -51 -40 -84 -104 -84
c-44 0 -69 10 -82 16v27c17 -6 44 -16 75 -16c58 0 81 23 81 55c0 46 -37 67 -96 78z" />
    <glyph glyph-name="odotbelow.small" unicode="&#xe0f6;" horiz-adv-x="564" 
d="M55 250c0 156 47 255 227 255c181 0 227 -99 227 -255s-46 -255 -227 -255c-180 0 -227 99 -227 255zM476 250c0 132 -36 224 -194 224c-161 0 -194 -92 -194 -224s33 -224 194 -224c158 0 194 92 194 224zM252 -150c0 16 13 30 30 30c16 0 30 -14 30 -30
c0 -17 -14 -30 -30 -30c-17 0 -30 13 -30 30z" />
    <glyph glyph-name="oogonek.small" unicode="&#xe0f7;" horiz-adv-x="564" 
d="M55 250c0 156 47 255 227 255c181 0 227 -99 227 -255c0 -136 -35 -228 -163 -250c-34 -14 -124 -67 -124 -149c0 -53 21 -77 70 -77c23 0 43 6 59 11v-25c-15 -5 -36 -10 -66 -10c-49 0 -89 30 -89 96c0 69 45 116 96 149h-10c-180 0 -227 99 -227 255zM476 250
c0 132 -36 224 -194 224c-161 0 -194 -92 -194 -224s33 -224 194 -224c158 0 194 92 194 224z" />
    <glyph glyph-name="oogonekmacron.small" unicode="&#xe0f8;" horiz-adv-x="564" 
d="M55 250c0 156 47 255 227 255c181 0 227 -99 227 -255c0 -136 -35 -228 -163 -250c-34 -14 -124 -67 -124 -149c0 -53 21 -77 70 -77c23 0 43 6 59 11v-25c-15 -5 -36 -10 -66 -10c-49 0 -89 30 -89 96c0 69 45 116 96 149h-10c-180 0 -227 99 -227 255zM476 250
c0 132 -36 224 -194 224c-161 0 -194 -92 -194 -224s33 -224 194 -224c158 0 194 92 194 224zM419 637h-274v27h274v-27z" />
    <glyph glyph-name="ounderlineaccent.small" unicode="&#xe0f9;" horiz-adv-x="564" 
d="M55 250c0 156 47 255 227 255c181 0 227 -99 227 -255s-46 -255 -227 -255c-180 0 -227 99 -227 255zM476 250c0 132 -36 224 -194 224c-161 0 -194 -92 -194 -224s33 -224 194 -224c158 0 194 92 194 224zM270 -250v200h24v-200h-24z" />
    <glyph glyph-name="oslash.small" unicode="&#xe0fa;" horiz-adv-x="564" 
d="M55 250c0 156 47 255 227 255c59 0 104 -11 137 -30l18 25h38l-31 -44c49 -44 65 -115 65 -206c0 -156 -46 -255 -227 -255c-60 0 -105 11 -139 31l-18 -26h-38l31 45c-48 44 -63 115 -63 205zM476 250c0 75 -12 138 -52 177l-262 -374c29 -17 67 -27 120 -27
c158 0 194 92 194 224zM88 250c0 -75 11 -138 50 -177l262 374c-29 17 -67 27 -118 27c-161 0 -194 -92 -194 -224z" />
    <glyph glyph-name="oslashacute.small" unicode="&#xe0fb;" horiz-adv-x="564" 
d="M55 250c0 156 47 255 227 255c59 0 104 -11 137 -30l18 25h38l-31 -44c49 -44 65 -115 65 -206c0 -156 -46 -255 -227 -255c-60 0 -105 11 -139 31l-18 -26h-38l31 45c-48 44 -63 115 -63 205zM476 250c0 75 -12 138 -52 177l-262 -374c29 -17 67 -27 120 -27
c158 0 194 92 194 224zM88 250c0 -75 11 -138 50 -177l262 374c-29 17 -67 27 -118 27c-161 0 -194 -92 -194 -224zM292 550h-20l60 200h35z" />
    <glyph glyph-name="barredo.small" unicode="&#xe0fc;" horiz-adv-x="564" 
d="M55 250c0 156 47 255 227 255c181 0 227 -99 227 -255s-46 -255 -227 -255c-180 0 -227 99 -227 255zM282 26c155 0 193 89 194 218h-388c1 -129 35 -218 194 -218zM282 474c-153 0 -190 -83 -194 -204h387c-3 121 -43 204 -193 204z" />
    <glyph glyph-name="oe.small" unicode="&#xe0fd;" horiz-adv-x="753" 
d="M669 270v-26h-253v-217h291v-27h-422c-171 0 -231 95 -231 250s60 250 231 250h422v-27h-291v-203h253zM278 27h106v446h-106c-142 0 -190 -87 -190 -223s48 -223 190 -223z" />
    <glyph glyph-name="pmacron.small" unicode="&#xe0fe;" horiz-adv-x="463" 
d="M103 190v-190h-33v500h198c108 0 160 -55 160 -155c0 -99 -52 -155 -160 -155h-165zM103 217h178c77 0 116 50 116 128c0 79 -39 128 -116 128h-178v-256zM369 637h-274v27h274v-27z" />
    <glyph glyph-name="racute.small" unicode="&#xe0ff;" horiz-adv-x="482" 
d="M102 212v-212h-32v500h217c119 0 151 -59 151 -144c0 -73 -24 -128 -109 -141l123 -215h-39l-119 212h-192zM102 239h188c83 0 115 38 115 117c0 80 -32 117 -115 117h-188v-234zM249 550h-20l60 200h35z" />
    <glyph glyph-name="rcaron.small" unicode="&#xe100;" horiz-adv-x="482" 
d="M102 212v-212h-32v500h217c119 0 151 -59 151 -144c0 -73 -24 -128 -109 -141l123 -215h-39l-119 212h-192zM102 239h188c83 0 115 38 115 117c0 80 -32 117 -115 117h-188v-234zM380 750h24l-150 -200h-30l-150 200h24l141 -168z" />
    <glyph glyph-name="rinvertedbreve.small" unicode="&#xe101;" horiz-adv-x="482" 
d="M102 212v-212h-32v500h217c119 0 151 -59 151 -144c0 -73 -24 -128 -109 -141l123 -215h-39l-119 212h-192zM102 239h188c83 0 115 38 115 117c0 80 -32 117 -115 117h-188v-234zM239 750c115 0 175 -66 175 -200h-21c-4 111 -47 173 -154 173s-150 -62 -154 -173h-21
c0 134 60 200 175 200z" />
    <glyph glyph-name="rdoublegrave.small" unicode="&#xe102;" horiz-adv-x="482" 
d="M102 212v-212h-32v500h217c119 0 151 -59 151 -144c0 -73 -24 -128 -109 -141l123 -215h-39l-119 212h-192zM102 239h188c83 0 115 38 115 117c0 80 -32 117 -115 117h-188v-234zM299 550h-20l-75 200h35zM199 550h-20l-75 200h35z" />
    <glyph glyph-name="rcommaaccent.small" unicode="&#xe103;" horiz-adv-x="482" 
d="M102 212v-212h-32v500h217c119 0 151 -59 151 -144c0 -73 -24 -128 -109 -141l123 -215h-39l-119 212h-192zM102 239h188c83 0 115 38 115 117c0 80 -32 117 -115 117h-188v-234zM225 -50h37l-43 -200h-20z" />
    <glyph glyph-name="rcedilla.small" unicode="&#xe104;" horiz-adv-x="482" 
d="M102 212v-212h-32v500h217c119 0 151 -59 151 -144c0 -73 -24 -128 -109 -141l123 -215h-39l-119 212h-192zM102 239h188c83 0 115 38 115 117c0 80 -32 117 -115 117h-188v-234zM223 -90l2 24c77 -12 124 -50 124 -100c0 -51 -40 -84 -104 -84c-44 0 -69 10 -82 16v27
c17 -6 44 -16 75 -16c58 0 81 23 81 55c0 46 -37 67 -96 78z" />
    <glyph glyph-name="rdotbelow.small" unicode="&#xe105;" horiz-adv-x="482" 
d="M102 212v-212h-32v500h217c119 0 151 -59 151 -144c0 -73 -24 -128 -109 -141l123 -215h-39l-119 212h-192zM102 239h188c83 0 115 38 115 117c0 80 -32 117 -115 117h-188v-234zM209 -150c0 16 13 30 30 30c16 0 30 -14 30 -30c0 -17 -14 -30 -30 -30
c-17 0 -30 13 -30 30z" />
    <glyph glyph-name="rdotbelowmacron.small" unicode="&#xe106;" horiz-adv-x="482" 
d="M102 212v-212h-32v500h217c119 0 151 -59 151 -144c0 -73 -24 -128 -109 -141l123 -215h-39l-119 212h-192zM102 239h188c83 0 115 38 115 117c0 80 -32 117 -115 117h-188v-234zM209 -150c0 16 13 30 30 30c16 0 30 -14 30 -30c0 -17 -14 -30 -30 -30
c-17 0 -30 13 -30 30zM376 637h-274v27h274v-27z" />
    <glyph glyph-name="sacute.small" unicode="&#xe107;" horiz-adv-x="470" 
d="M246 550h-20l60 200h35zM212 26c133 0 178 37 178 116c0 74 -38 90 -149 101c-136 13 -186 39 -186 120c0 91 53 142 202 142c64 0 127 -12 164 -27v-31c-30 11 -94 27 -164 27c-127 0 -169 -31 -169 -111c0 -66 43 -80 154 -89c136 -11 183 -44 183 -131
c0 -91 -51 -148 -213 -148c-64 0 -127 12 -164 27v31c30 -11 94 -27 164 -27z" />
    <glyph glyph-name="scircumflex.small" unicode="&#xe108;" horiz-adv-x="470" 
d="M95 550h-24l150 200h30l150 -200h-24l-141 168zM212 26c133 0 178 37 178 116c0 74 -38 90 -149 101c-136 13 -186 39 -186 120c0 91 53 142 202 142c64 0 127 -12 164 -27v-31c-30 11 -94 27 -164 27c-127 0 -169 -31 -169 -111c0 -66 43 -80 154 -89
c136 -11 183 -44 183 -131c0 -91 -51 -148 -213 -148c-64 0 -127 12 -164 27v31c30 -11 94 -27 164 -27z" />
    <glyph glyph-name="scaron.small" unicode="&#xe109;" horiz-adv-x="470" 
d="M377 750h24l-150 -200h-30l-150 200h24l141 -168zM212 26c133 0 178 37 178 116c0 74 -38 90 -149 101c-136 13 -186 39 -186 120c0 91 53 142 202 142c64 0 127 -12 164 -27v-31c-30 11 -94 27 -164 27c-127 0 -169 -31 -169 -111c0 -66 43 -80 154 -89
c136 -11 183 -44 183 -131c0 -91 -51 -148 -213 -148c-64 0 -127 12 -164 27v31c30 -11 94 -27 164 -27z" />
    <glyph glyph-name="scommaaccent.small" unicode="&#xe10a;" horiz-adv-x="470" 
d="M217 -50h37l-43 -200h-20zM212 26c133 0 178 37 178 116c0 74 -38 90 -149 101c-136 13 -186 39 -186 120c0 91 53 142 202 142c64 0 127 -12 164 -27v-31c-30 11 -94 27 -164 27c-127 0 -169 -31 -169 -111c0 -66 43 -80 154 -89c136 -11 183 -44 183 -131
c0 -91 -51 -148 -213 -148c-64 0 -127 12 -164 27v31c30 -11 94 -27 164 -27z" />
    <glyph glyph-name="scedilla.small" unicode="&#xe10b;" horiz-adv-x="470" 
d="M212 26c133 0 178 37 178 116c0 74 -38 90 -149 101c-136 13 -186 39 -186 120c0 91 53 142 202 142c64 0 127 -12 164 -27v-31c-30 11 -94 27 -164 27c-127 0 -169 -31 -169 -111c0 -66 43 -80 154 -89c136 -11 183 -44 183 -131c0 -85 -44 -140 -180 -147l4 -68
c45 -9 97 -42 97 -94c0 -51 -40 -84 -104 -84c-44 0 -69 10 -82 16v27c17 -6 44 -16 75 -16c58 0 81 23 81 55c0 46 -37 67 -96 78l6 85h-14c-64 0 -127 12 -164 27v31c30 -11 94 -27 164 -27z" />
    <glyph glyph-name="sdotbelow.small" unicode="&#xe10c;" horiz-adv-x="470" 
d="M212 26c133 0 178 37 178 116c0 78 -40 90 -154 101c-140 13 -191 24 -191 118c0 95 53 144 202 144c64 0 127 -12 164 -27v-31c-30 11 -94 27 -164 27c-127 0 -169 -30 -169 -113c0 -73 45 -78 159 -87c140 -11 188 -34 188 -131c0 -91 -51 -148 -213 -148
c-64 0 -127 12 -164 27v31c30 -11 94 -27 164 -27zM200 -150c0 16 13 30 30 30c16 0 30 -14 30 -30c0 -17 -14 -30 -30 -30c-17 0 -30 13 -30 30z" />
    <glyph glyph-name="germandbls.small" unicode="&#xe10d;" horiz-adv-x="940" 
d="M212 26c133 0 178 37 178 116c0 74 -38 90 -149 101c-136 13 -186 39 -186 120c0 91 53 142 202 142c64 0 127 -12 164 -27v-31c-30 11 -94 27 -164 27c-127 0 -169 -31 -169 -111c0 -66 43 -80 154 -89c136 -11 183 -44 183 -131c0 -91 -51 -148 -213 -148
c-64 0 -127 12 -164 27v31c30 -11 94 -27 164 -27zM682 26c133 0 178 37 178 116c0 74 -38 90 -149 101c-136 13 -186 39 -186 120c0 91 53 142 202 142c64 0 127 -12 164 -27v-31c-30 11 -94 27 -164 27c-127 0 -169 -31 -169 -111c0 -66 43 -80 154 -89
c136 -11 183 -44 183 -131c0 -91 -51 -148 -213 -148c-64 0 -127 12 -164 27v31c30 -11 94 -27 164 -27z" />
    <glyph glyph-name="tcaron.small" unicode="&#xe10e;" horiz-adv-x="477" 
d="M437 473h-182v-473h-33v473h-182v27h397v-27zM380 750h24l-150 -200h-30l-150 200h24l141 -168z" />
    <glyph glyph-name="tcommaaccent.small" unicode="&#xe10f;" horiz-adv-x="477" 
d="M437 473h-182v-473h-33v473h-182v27h397v-27zM220 -50h37l-43 -200h-20z" />
    <glyph glyph-name="tcedilla.small" unicode="&#xe110;" horiz-adv-x="477" 
d="M255 0h-33v473h-182v27h397v-27h-182v-473zM223 -90l2 24c77 -12 124 -50 124 -100c0 -51 -40 -84 -104 -84c-44 0 -69 10 -82 16v27c17 -6 44 -16 75 -16c58 0 81 23 81 55c0 46 -37 67 -96 78z" />
    <glyph glyph-name="tdotbelow.small" unicode="&#xe111;" horiz-adv-x="477" 
d="M437 473h-182v-473h-33v473h-182v27h397v-27zM209 -150c0 16 13 30 30 30c16 0 30 -14 30 -30c0 -17 -14 -30 -30 -30c-17 0 -30 13 -30 30z" />
    <glyph glyph-name="tbar.small" unicode="&#xe112;" horiz-adv-x="477" 
d="M385 244h-130v-244h-33v244h-130v26h130v203h-182v27h397v-27h-182v-203h130v-26z" />
    <glyph glyph-name="uacute.small" unicode="&#xe113;" horiz-adv-x="554" 
d="M277 -5c-166 0 -212 68 -212 171v334h35v-350c0 -91 69 -124 177 -124s177 33 177 124v350h35v-334c0 -103 -46 -171 -212 -171zM287 550h-20l60 200h35z" />
    <glyph glyph-name="ugrave.small" unicode="&#xe114;" horiz-adv-x="554" 
d="M277 -5c-166 0 -212 68 -212 171v334h35v-350c0 -91 69 -124 177 -124s177 33 177 124v350h35v-334c0 -103 -46 -171 -212 -171zM287 550h-20l-75 200h35z" />
    <glyph glyph-name="ucircumflex.small" unicode="&#xe115;" horiz-adv-x="554" 
d="M277 -5c-166 0 -212 68 -212 171v334h35v-350c0 -91 69 -124 177 -124s177 33 177 124v350h35v-334c0 -103 -46 -171 -212 -171zM136 550h-24l150 200h30l150 -200h-24l-141 168z" />
    <glyph glyph-name="udieresis.small" unicode="&#xe116;" horiz-adv-x="554" 
d="M277 -5c-166 0 -212 68 -212 171v334h35v-350c0 -91 69 -124 177 -124s177 33 177 124v350h35v-334c0 -103 -46 -171 -212 -171zM152 650c0 16 13 30 30 30c16 0 30 -14 30 -30c0 -17 -14 -30 -30 -30c-17 0 -30 13 -30 30zM342 650c0 16 13 30 30 30c16 0 30 -14 30 -30
c0 -17 -14 -30 -30 -30c-17 0 -30 13 -30 30z" />
    <glyph glyph-name="utilde.small" unicode="&#xe117;" horiz-adv-x="554" 
d="M277 -5c-166 0 -212 68 -212 171v334h35v-350c0 -91 69 -124 177 -124s177 33 177 124v350h35v-334c0 -103 -46 -171 -212 -171zM407 691h28c-4 -58 -36 -88 -87 -88c-72 0 -83 69 -141 69c-35 0 -58 -18 -60 -63h-28c4 58 36 88 87 88c72 0 83 -69 141 -69
c35 0 58 18 60 63z" />
    <glyph glyph-name="uring.small" unicode="&#xe118;" horiz-adv-x="554" 
d="M277 -5c-166 0 -212 68 -212 171v334h35v-350c0 -91 69 -124 177 -124s177 33 177 124v350h35v-334c0 -103 -46 -171 -212 -171zM370 650c0 -65 -37 -92 -93 -92c-57 0 -94 27 -94 92c0 66 37 93 94 93c56 0 93 -27 93 -93zM345 650c0 52 -28 69 -68 69
c-41 0 -70 -17 -70 -69s29 -69 70 -69c40 0 68 17 68 69z" />
    <glyph glyph-name="ucaron.small" unicode="&#xe119;" horiz-adv-x="554" 
d="M277 -5c-166 0 -212 68 -212 171v334h35v-350c0 -91 69 -124 177 -124s177 33 177 124v350h35v-334c0 -103 -46 -171 -212 -171zM418 750h24l-150 -200h-30l-150 200h24l141 -168z" />
    <glyph glyph-name="umacron.small" unicode="&#xe11a;" horiz-adv-x="554" 
d="M277 -5c-166 0 -212 68 -212 171v334h35v-350c0 -91 69 -124 177 -124s177 33 177 124v350h35v-334c0 -103 -46 -171 -212 -171zM414 637h-274v27h274v-27z" />
    <glyph glyph-name="ubreve.small" unicode="&#xe11b;" horiz-adv-x="554" 
d="M277 -5c-166 0 -212 68 -212 171v334h35v-350c0 -91 69 -124 177 -124s177 33 177 124v350h35v-334c0 -103 -46 -171 -212 -171zM277 550c-115 0 -175 66 -175 200h21c4 -111 47 -173 154 -173s150 62 154 173h21c0 -134 -60 -200 -175 -200z" />
    <glyph glyph-name="uinvertedbreve.small" unicode="&#xe11c;" horiz-adv-x="554" 
d="M277 -5c-166 0 -212 68 -212 171v334h35v-350c0 -91 69 -124 177 -124s177 33 177 124v350h35v-334c0 -103 -46 -171 -212 -171zM277 750c115 0 175 -66 175 -200h-21c-4 111 -47 173 -154 173s-150 -62 -154 -173h-21c0 134 60 200 175 200z" />
    <glyph glyph-name="uhungarumlaut.small" unicode="&#xe11d;" horiz-adv-x="554" 
d="M277 -5c-166 0 -212 68 -212 171v334h35v-350c0 -91 69 -124 177 -124s177 33 177 124v350h35v-334c0 -103 -46 -171 -212 -171zM237 550h-20l60 200h35zM337 550h-20l60 200h35z" />
    <glyph glyph-name="udoublegrave.small" unicode="&#xe11e;" horiz-adv-x="554" 
d="M277 -5c-166 0 -212 68 -212 171v334h35v-350c0 -91 69 -124 177 -124s177 33 177 124v350h35v-334c0 -103 -46 -171 -212 -171zM337 550h-20l-75 200h35zM237 550h-20l-75 200h35z" />
    <glyph glyph-name="udotbelow.small" unicode="&#xe11f;" horiz-adv-x="554" 
d="M277 -5c-166 0 -212 68 -212 171v334h35v-350c0 -91 69 -124 177 -124s177 33 177 124v350h35v-334c0 -103 -46 -171 -212 -171zM247 -150c0 16 13 30 30 30c16 0 30 -14 30 -30c0 -17 -14 -30 -30 -30c-17 0 -30 13 -30 30z" />
    <glyph glyph-name="uogonek.small" unicode="&#xe120;" horiz-adv-x="554" 
d="M277 -5c-166 0 -212 68 -212 171v334h35v-350c0 -91 69 -124 177 -124s177 33 177 124v350h35v-334c0 -87 -33 -149 -142 -166c-34 -14 -124 -67 -124 -149c0 -53 21 -77 70 -77c23 0 43 6 59 11v-25c-15 -5 -36 -10 -66 -10c-49 0 -89 30 -89 96c0 69 45 116 97 149h-17
z" />
    <glyph glyph-name="umacronbelow.small" unicode="&#xe121;" horiz-adv-x="554" 
d="M277 -5c-166 0 -212 68 -212 171v334h35v-350c0 -91 69 -124 177 -124s177 33 177 124v350h35v-334c0 -103 -46 -171 -212 -171zM414 -163h-274v27h274v-27z" />
    <glyph glyph-name="wacute.small" unicode="&#xe122;" horiz-adv-x="684" 
d="M326 500h32l148 -452l118 452h35l-141 -505h-23l-153 466l-153 -466h-23l-141 505h35l118 -452zM357 550h-20l60 200h35z" />
    <glyph glyph-name="wgrave.small" unicode="&#xe123;" horiz-adv-x="684" 
d="M326 500h32l148 -452l118 452h35l-141 -505h-23l-153 466l-153 -466h-23l-141 505h35l118 -452zM347 550h-20l-75 200h35z" />
    <glyph glyph-name="wcircumflex.small" unicode="&#xe124;" horiz-adv-x="684" 
d="M326 500h32l148 -452l118 452h35l-141 -505h-23l-153 466l-153 -466h-23l-141 505h35l118 -452zM201 550h-24l150 200h30l150 -200h-24l-141 168z" />
    <glyph glyph-name="wdieresis.small" unicode="&#xe125;" horiz-adv-x="684" 
d="M326 500h32l148 -452l118 452h35l-141 -505h-23l-153 466l-153 -466h-23l-141 505h35l118 -452zM217 650c0 16 13 30 30 30c16 0 30 -14 30 -30c0 -17 -14 -30 -30 -30c-17 0 -30 13 -30 30zM407 650c0 16 13 30 30 30c16 0 30 -14 30 -30c0 -17 -14 -30 -30 -30
c-17 0 -30 13 -30 30z" />
    <glyph glyph-name="yacute.small" unicode="&#xe126;" horiz-adv-x="504" 
d="M268 0h-32v184l-211 316h36l191 -291l191 291h36l-211 -316v-184zM262 550h-20l60 200h35z" />
    <glyph glyph-name="ygrave.small" unicode="&#xe127;" horiz-adv-x="504" 
d="M268 0h-32v184l-211 316h36l191 -291l191 291h36l-211 -316v-184zM262 550h-20l-75 200h35z" />
    <glyph glyph-name="ycircumflex.small" unicode="&#xe128;" horiz-adv-x="504" 
d="M268 0h-32v184l-211 316h36l191 -291l191 291h36l-211 -316v-184zM111 550h-24l150 200h30l150 -200h-24l-141 168z" />
    <glyph glyph-name="ydieresis.small" unicode="&#xe129;" horiz-adv-x="504" 
d="M268 0h-32v184l-211 316h36l191 -291l191 291h36l-211 -316v-184zM127 650c0 16 13 30 30 30c16 0 30 -14 30 -30c0 -17 -14 -30 -30 -30c-17 0 -30 13 -30 30zM317 650c0 16 13 30 30 30c16 0 30 -14 30 -30c0 -17 -14 -30 -30 -30c-17 0 -30 13 -30 30z" />
    <glyph glyph-name="ytilde.small" unicode="&#xe12a;" horiz-adv-x="504" 
d="M268 0h-32v184l-211 316h36l191 -291l191 291h36l-211 -316v-184zM382 691h28c-4 -58 -36 -88 -87 -88c-72 0 -83 69 -141 69c-35 0 -58 -18 -60 -63h-28c4 58 36 88 87 88c72 0 83 -69 141 -69c35 0 58 18 60 63z" />
    <glyph glyph-name="ymacron.small" unicode="&#xe12b;" horiz-adv-x="504" 
d="M268 0h-32v184l-211 316h36l191 -291l191 291h36l-211 -316v-184zM389 637h-274v27h274v-27z" />
    <glyph glyph-name="ij.small" unicode="&#xe12c;" horiz-adv-x="556" 
d="M124 0h-32v500h32v-500zM246 -2v32c11 -3 33 -4 55 -4c82 0 136 18 136 103v371h32v-368c0 -90 -47 -137 -168 -137c-15 0 -39 1 -55 3z" />
    <glyph glyph-name="zacute.small" unicode="&#xe12d;" horiz-adv-x="484" 
d="M449 0h-414v22l362 450h-345v28h386v-22l-362 -450h373v-28zM252 550h-20l60 200h35z" />
    <glyph glyph-name="zcaron.small" unicode="&#xe12e;" horiz-adv-x="484" 
d="M449 0h-414v22l362 450h-345v28h386v-22l-362 -450h373v-28zM383 750h24l-150 -200h-30l-150 200h24l141 -168z" />
    <glyph glyph-name="zdotaccent.small" unicode="&#xe12f;" horiz-adv-x="484" 
d="M449 0h-414v22l362 450h-345v28h386v-22l-362 -450h373v-28zM212 650c0 16 13 30 30 30c16 0 30 -14 30 -30c0 -17 -14 -30 -30 -30c-17 0 -30 13 -30 30z" />
    <glyph glyph-name="eng.small" unicode="&#xe130;" horiz-adv-x="524" 
d="M285 -255v27c75 0 138 24 138 102v141l-322 419l2 -434h-33v500h19l334 -433l-2 433h33v-621c0 -90 -57 -134 -169 -134z" />
    <glyph glyph-name="eth.small" unicode="&#xe131;" horiz-adv-x="562" 
d="M15 236v28h90v236h171c171 0 231 -95 231 -250s-60 -250 -231 -250h-171v236h-90zM137 27h146c142 0 190 87 190 223s-48 223 -190 223h-146v-209h131v-28h-131v-209z" />
    <glyph glyph-name="thorn.small" unicode="&#xe132;" horiz-adv-x="463" 
d="M103 95v-95h-33v500h33v-95h165c108 0 160 -55 160 -155c0 -99 -52 -155 -160 -155h-165zM103 122h178c77 0 116 50 116 128c0 79 -39 128 -116 128h-178v-256z" />
    <glyph glyph-name="ezh.small" unicode="&#xe133;" horiz-adv-x="480" 
d="M149 175h44c202 0 256 -95 256 -210s-66 -220 -258 -220c-66 0 -121 12 -156 27v30c37 -13 88 -26 156 -26c175 0 223 86 223 189c0 130 -69 182 -221 182h-86v23l266 302h-333v28h377v-21z" />
    <glyph glyph-name="ezhcaron.small" unicode="&#xe134;" horiz-adv-x="480" 
d="M149 175h44c202 0 256 -95 256 -210s-66 -220 -258 -220c-66 0 -121 12 -156 27v30c37 -13 88 -26 156 -26c175 0 223 86 223 189c0 130 -69 182 -221 182h-86v23l266 302h-333v28h377v-21zM372 750h24l-150 -200h-30l-150 200h24l141 -168z" />
    <glyph glyph-name="schwa.small" unicode="&#xe135;" horiz-adv-x="559" 
d="M267 474c-85 0 -142 -20 -179 -32v33c39 15 110 30 179 30c186 0 237 -106 237 -255s-56 -255 -237 -255c-167 0 -214 98 -214 255v13h417c-2 113 -40 211 -203 211zM470 234h-384c0 -129 35 -208 181 -208c163 0 201 95 203 208z" />
    <glyph glyph-name="ordfeminine.small" unicode="&#xe136;" horiz-adv-x="371" 
d="M352 381h-36l-36 91h-190l-36 -91h-35l156 374h22zM186 710l-84 -209h166z" />
    <glyph glyph-name="ordmasculine.small" unicode="&#xe137;" horiz-adv-x="439" 
d="M216 375c-116 0 -164 53 -164 190s48 190 164 190s164 -53 164 -190s-48 -190 -164 -190zM216 728c-94 0 -133 -41 -133 -163s39 -163 133 -163s133 41 133 163s-39 163 -133 163z" />
    <glyph glyph-name="cordinal.small" unicode="&#xe138;" horiz-adv-x="366" 
d="M219 402c38 0 66 5 92 14v-28c-20 -7 -63 -13 -92 -13c-116 0 -164 54 -164 190s48 190 164 190c29 0 72 -6 92 -13v-28c-26 9 -54 14 -92 14c-98 0 -133 -40 -133 -163s35 -163 133 -163z" />
    <glyph glyph-name="a.superior" unicode="&#xe139;" horiz-adv-x="281" 
d="M205 516c0 42 -14 60 -69 60c-34 0 -59 -6 -74 -11v21c18 8 47 13 74 13c77 0 95 -33 95 -84v-174h-14l-7 20c-22 -16 -56 -24 -81 -24c-66 0 -89 38 -89 80c0 41 21 74 90 78l75 5v16zM205 481l-79 -7c-44 -3 -60 -26 -60 -57c0 -26 9 -57 64 -57c29 0 53 8 75 22v99z
" />
    <glyph glyph-name="b.superior" unicode="&#xe13a;" horiz-adv-x="310" 
d="M160 599c83 0 105 -58 105 -131s-22 -131 -105 -131c-28 0 -60 9 -84 24l-7 -20h-14v381h26v-144c22 14 53 21 79 21zM160 576c-34 0 -58 -6 -79 -19v-178c21 -13 45 -19 79 -19c68 0 79 54 79 108s-11 108 -79 108z" />
    <glyph glyph-name="c.superior" unicode="&#xe13b;" horiz-adv-x="260" 
d="M45 468c0 74 21 131 106 131c24 0 52 -3 74 -12v-22c-20 6 -39 11 -74 11c-69 0 -80 -53 -80 -108s11 -108 80 -108c35 0 54 5 74 11v-22c-22 -9 -50 -12 -74 -12c-85 0 -106 57 -106 131z" />
    <glyph glyph-name="d.superior" unicode="&#xe13c;" horiz-adv-x="310" 
d="M150 599c26 0 57 -7 79 -21v144h26v-381h-14l-7 20c-24 -15 -56 -24 -84 -24c-83 0 -105 58 -105 131s22 131 105 131zM150 576c-68 0 -79 -54 -79 -108s11 -108 79 -108c34 0 58 6 79 19v178c-21 13 -45 19 -79 19z" />
    <glyph glyph-name="e.superior" unicode="&#xe13d;" horiz-adv-x="291" 
d="M45 468c0 74 21 131 106 131s95 -57 95 -131v-12h-175c1 -50 15 -96 80 -96c37 0 61 5 82 14v-23c-24 -10 -56 -14 -82 -14c-85 0 -106 57 -106 131zM151 576c-65 0 -79 -47 -80 -98h150c0 50 -4 98 -70 98z" />
    <glyph glyph-name="f.superior" unicode="&#xe13e;" horiz-adv-x="188" 
d="M183 723v-23c-8 2 -20 3 -33 3c-38 0 -65 -13 -65 -51v-57h83v-21h-83v-233h-25v233h-50v12l50 11v55c0 47 28 74 90 74c9 0 26 -1 33 -3z" />
    <glyph glyph-name="g.superior" unicode="&#xe13f;" horiz-adv-x="260" 
d="M25 506c0 53 21 93 97 93c14 0 26 -2 37 -4h86v-14l-46 -9c16 -16 21 -39 21 -66c0 -54 -21 -93 -98 -93c-15 0 -28 2 -39 5c-9 -7 -13 -16 -13 -24c0 -17 11 -19 22 -21c86 -12 165 -6 165 -78c0 -61 -65 -85 -135 -85c-71 0 -115 18 -115 76c0 38 28 60 58 71
c-10 3 -21 22 -21 33c0 17 9 28 20 35c-29 16 -39 45 -39 81zM32 286c0 -44 32 -53 90 -53c56 0 109 15 109 62c0 53 -71 47 -132 56c-33 -9 -67 -26 -67 -65zM196 506c0 37 -9 70 -74 70c-64 0 -73 -33 -73 -70s9 -70 73 -70c65 0 74 33 74 70z" />
    <glyph glyph-name="h.superior" unicode="&#xe140;" horiz-adv-x="295" 
d="M218 526c0 40 -22 50 -59 50c-34 0 -58 -6 -79 -19v-216h-25v381h25v-144c22 13 54 21 79 21c60 0 86 -24 86 -74v-184h-27v185z" />
    <glyph glyph-name="i.superior" unicode="&#xe141;" horiz-adv-x="160" 
d="M106 337c-32 0 -47 14 -47 47v211h25v-213c0 -18 5 -24 22 -24v-21zM50 671c0 12 9 22 21 22c13 0 22 -10 22 -22s-9 -22 -22 -22c-12 0 -21 10 -21 22z" />
    <glyph glyph-name="j.superior" unicode="&#xe142;" horiz-adv-x="150" 
d="M-2 210v22c34 2 68 16 68 55v308h25v-309c0 -49 -41 -75 -93 -76zM57 671c0 12 9 22 21 22c13 0 22 -10 22 -22s-9 -22 -22 -22c-12 0 -21 10 -21 22z" />
    <glyph glyph-name="k.superior" unicode="&#xe143;" horiz-adv-x="258" 
d="M241 595l-107 -104l124 -150h-32l-107 136l-39 -37v-99h-25v381h25v-252l126 125h35z" />
    <glyph glyph-name="l.superior" unicode="&#xe144;" horiz-adv-x="160" 
d="M107 337c-32 0 -47 14 -47 47v338h25v-340c0 -18 5 -24 22 -24v-21z" />
    <glyph glyph-name="m.superior" unicode="&#xe145;" horiz-adv-x="434" 
d="M358 341v188c0 39 -18 47 -52 47c-32 0 -53 -7 -76 -21c2 -8 3 -17 3 -27v-187h-27v188c0 39 -18 47 -51 47c-32 0 -52 -6 -74 -18v-217h-26v254h14l7 -20c24 16 54 24 79 24c35 0 56 -9 68 -28c28 18 58 28 83 28c54 0 78 -23 78 -72v-186h-26z" />
    <glyph glyph-name="n.superior" unicode="&#x207f;" horiz-adv-x="295" 
d="M219 341v185c0 40 -22 50 -59 50c-34 0 -58 -6 -79 -19v-216h-26v254h14l7 -21c24 16 56 25 84 25c60 0 85 -24 85 -74v-184h-26z" />
    <glyph glyph-name="o.superior" unicode="&#xe146;" horiz-adv-x="302" 
d="M257 468c0 -76 -18 -131 -106 -131s-106 55 -106 131s18 131 106 131s106 -55 106 -131zM231 468c0 60 -7 108 -80 108c-74 0 -80 -48 -80 -108s6 -108 80 -108c73 0 80 48 80 108z" />
    <glyph glyph-name="p.superior" unicode="&#xe147;" horiz-adv-x="310" 
d="M160 337c-26 0 -57 7 -79 21v-144h-26v381h14l7 -20c24 15 56 24 84 24c83 0 105 -58 105 -131s-22 -131 -105 -131zM160 360c68 0 79 54 79 108s-11 108 -79 108c-34 0 -58 -6 -79 -19v-178c21 -13 45 -19 79 -19z" />
    <glyph glyph-name="q.superior" unicode="&#xe148;" horiz-adv-x="310" 
d="M150 337c-83 0 -105 58 -105 131s22 131 105 131c28 0 60 -9 84 -24l7 20h14v-381h-26v144c-22 -14 -53 -21 -79 -21zM150 360c34 0 58 6 79 19v178c-21 13 -45 19 -79 19c-68 0 -79 -54 -79 -108s11 -108 79 -108z" />
    <glyph glyph-name="r.superior" unicode="&#xe149;" horiz-adv-x="205" 
d="M190 597v-24c-7 2 -17 3 -27 3c-35 0 -61 -6 -82 -19v-216h-26v254h14l7 -21c24 16 58 25 87 25c10 0 19 -1 27 -2z" />
    <glyph glyph-name="s.superior" unicode="&#xe14a;" horiz-adv-x="258" 
d="M65 527c0 -29 13 -38 64 -44c70 -7 89 -27 89 -71c0 -38 -24 -75 -101 -75c-24 0 -55 5 -74 12v22c18 -6 40 -11 74 -11c59 0 75 24 75 52c0 30 -8 44 -64 49c-72 8 -88 28 -88 66s23 72 94 72c23 0 50 -3 72 -12v-22c-20 6 -39 11 -73 11c-54 0 -68 -19 -68 -49z" />
    <glyph glyph-name="t.superior" unicode="&#xe14b;" horiz-adv-x="202" 
d="M158 359v-21c-3 -1 -11 -1 -15 -1c-49 0 -83 21 -83 69v168h-50v12l50 11v72l25 6v-80h83v-21h-83v-168c0 -36 25 -48 60 -48c3 0 9 0 13 1z" />
    <glyph glyph-name="u.superior" unicode="&#xe14c;" horiz-adv-x="295" 
d="M77 595v-185c0 -40 22 -50 59 -50c34 0 57 6 78 19v216h26v-254h-14l-7 21c-23 -16 -56 -25 -83 -25c-61 0 -86 24 -86 74v184h27z" />
    <glyph glyph-name="v.superior" unicode="&#xe14d;" horiz-adv-x="257" 
d="M20 595h29l80 -219l79 219h29l-100 -258h-17z" />
    <glyph glyph-name="w.superior" unicode="&#xe14e;" horiz-adv-x="375" 
d="M322 595h28l-72 -258h-19l-71 229l-71 -229h-20l-72 258h28l54 -214l67 214h27l67 -214z" />
    <glyph glyph-name="x.superior" unicode="&#xe14f;" horiz-adv-x="266" 
d="M55 341h-30l94 131l-88 123h30l72 -106l72 106h30l-88 -123l94 -131h-31l-77 113z" />
    <glyph glyph-name="y.superior" unicode="&#xe150;" horiz-adv-x="257" 
d="M20 595h30l79 -220l79 220h29l-148 -381h-28l56 132z" />
    <glyph glyph-name="z.superior" unicode="&#xe151;" horiz-adv-x="236" 
d="M216 341h-196v16l159 217h-151v21h183v-16l-160 -217h165v-21z" />
    <glyph glyph-name="ampersand" unicode="&#x26;" horiz-adv-x="727" 
d="M142 597c0 75 40 158 160 158s160 -80 160 -155c0 -110 -110 -149 -218 -200l-12 -6c20 -33 43 -66 68 -96c64 -79 129 -135 201 -181c84 83 133 216 133 383h31c0 -175 -51 -312 -137 -399c52 -31 108 -56 170 -81l-9 -25c-63 26 -124 53 -181 87
c-66 -57 -148 -87 -243 -87c-119 0 -231 50 -231 196c0 127 68 172 158 216c-30 58 -50 120 -50 190zM65 191c0 -134 112 -169 200 -169c84 0 157 27 216 76c-72 46 -139 102 -201 180c-28 33 -53 68 -74 104c-88 -43 -141 -81 -141 -191zM233 426c94 44 198 76 198 174
c0 66 -29 128 -129 128s-129 -61 -129 -128c0 -65 17 -125 46 -181z" />
    </font>
</defs>
</svg>
